<svg xmlns="http://www.w3.org/2000/svg" xmlns:xlink="http://www.w3.org/1999/xlink" width="200" zoomAndPan="magnify" viewBox="0 0 150 149.999998" height="200" preserveAspectRatio="xMidYMid meet" version="1.0"><defs><clipPath id="d86b37349f"><path d="M 18.253906 21 L 131.503906 21 L 131.503906 128.878906 L 18.253906 128.878906 Z M 18.253906 21 " clip-rule="nonzero"/></clipPath></defs><path fill="#8a2be2" d="M 149.996094 75 C 149.996094 76.226562 149.96875 77.453125 149.90625 78.679688 C 149.847656 79.90625 149.757812 81.128906 149.636719 82.351562 C 149.515625 83.570312 149.367188 84.789062 149.1875 86.003906 C 149.007812 87.21875 148.796875 88.425781 148.558594 89.628906 C 148.316406 90.835938 148.046875 92.03125 147.75 93.222656 C 147.453125 94.414062 147.125 95.59375 146.769531 96.769531 C 146.410156 97.945312 146.027344 99.109375 145.613281 100.265625 C 145.199219 101.421875 144.757812 102.566406 144.289062 103.699219 C 143.820312 104.832031 143.320312 105.957031 142.796875 107.066406 C 142.273438 108.175781 141.71875 109.269531 141.140625 110.351562 C 140.5625 111.4375 139.957031 112.503906 139.328125 113.554688 C 138.695312 114.609375 138.039062 115.644531 137.359375 116.664062 C 136.675781 117.6875 135.96875 118.691406 135.238281 119.675781 C 134.507812 120.660156 133.753906 121.628906 132.972656 122.578125 C 132.195312 123.527344 131.394531 124.457031 130.570312 125.363281 C 129.746094 126.273438 128.898438 127.164062 128.03125 128.03125 C 127.164062 128.898438 126.273438 129.746094 125.363281 130.570312 C 124.457031 131.394531 123.527344 132.195312 122.578125 132.972656 C 121.628906 133.753906 120.660156 134.507812 119.675781 135.238281 C 118.691406 135.96875 117.6875 136.675781 116.664062 137.359375 C 115.644531 138.039062 114.609375 138.695312 113.554688 139.328125 C 112.503906 139.957031 111.4375 140.5625 110.351562 141.140625 C 109.269531 141.71875 108.175781 142.273438 107.066406 142.796875 C 105.957031 143.320312 104.832031 143.820312 103.699219 144.289062 C 102.566406 144.757812 101.421875 145.199219 100.265625 145.613281 C 99.109375 146.027344 97.945312 146.410156 96.769531 146.769531 C 95.59375 147.125 94.414062 147.453125 93.222656 147.75 C 92.03125 148.046875 90.835938 148.316406 89.628906 148.558594 C 88.425781 148.796875 87.21875 149.007812 86.003906 149.1875 C 84.789062 149.367188 83.570312 149.515625 82.351562 149.636719 C 81.128906 149.757812 79.90625 149.847656 78.679688 149.90625 C 77.453125 149.96875 76.226562 149.996094 75 149.996094 C 73.769531 149.996094 72.542969 149.96875 71.320312 149.90625 C 70.09375 149.847656 68.871094 149.757812 67.648438 149.636719 C 66.425781 149.515625 65.207031 149.367188 63.996094 149.1875 C 62.78125 149.007812 61.570312 148.796875 60.367188 148.558594 C 59.164062 148.316406 57.964844 148.046875 56.777344 147.75 C 55.585938 147.453125 54.402344 147.125 53.226562 146.769531 C 52.054688 146.410156 50.886719 146.027344 49.734375 145.613281 C 48.578125 145.199219 47.433594 144.757812 46.296875 144.289062 C 45.164062 143.820312 44.042969 143.320312 42.933594 142.796875 C 41.824219 142.273438 40.726562 141.71875 39.644531 141.140625 C 38.5625 140.5625 37.496094 139.957031 36.441406 139.328125 C 35.390625 138.695312 34.351562 138.039062 33.332031 137.359375 C 32.3125 136.675781 31.308594 135.96875 30.320312 135.238281 C 29.335938 134.507812 28.367188 133.753906 27.421875 132.972656 C 26.472656 132.195312 25.542969 131.394531 24.632812 130.570312 C 23.722656 129.746094 22.835938 128.898438 21.964844 128.03125 C 21.097656 127.164062 20.253906 126.273438 19.429688 125.363281 C 18.605469 124.457031 17.800781 123.527344 17.023438 122.578125 C 16.246094 121.628906 15.492188 120.660156 14.757812 119.675781 C 14.027344 118.691406 13.320312 117.6875 12.640625 116.664062 C 11.957031 115.644531 11.300781 114.609375 10.671875 113.554688 C 10.039062 112.503906 9.433594 111.4375 8.855469 110.351562 C 8.277344 109.269531 7.726562 108.175781 7.199219 107.066406 C 6.675781 105.957031 6.179688 104.832031 5.707031 103.699219 C 5.238281 102.566406 4.796875 101.421875 4.382812 100.265625 C 3.96875 99.109375 3.585938 97.945312 3.230469 96.769531 C 2.875 95.59375 2.546875 94.414062 2.246094 93.222656 C 1.949219 92.03125 1.679688 90.835938 1.441406 89.628906 C 1.203125 88.425781 0.992188 87.21875 0.8125 86.003906 C 0.632812 84.789062 0.480469 83.570312 0.359375 82.351562 C 0.242188 81.128906 0.152344 79.90625 0.0898438 78.679688 C 0.03125 77.453125 0 76.226562 0 75 C 0 73.769531 0.03125 72.542969 0.0898438 71.320312 C 0.152344 70.09375 0.242188 68.871094 0.359375 67.648438 C 0.480469 66.425781 0.632812 65.207031 0.8125 63.996094 C 0.992188 62.78125 1.203125 61.570312 1.441406 60.367188 C 1.679688 59.164062 1.949219 57.964844 2.246094 56.777344 C 2.546875 55.585938 2.875 54.402344 3.230469 53.226562 C 3.585938 52.054688 3.96875 50.886719 4.382812 49.734375 C 4.796875 48.578125 5.238281 47.433594 5.707031 46.296875 C 6.179688 45.164062 6.675781 44.042969 7.199219 42.933594 C 7.726562 41.824219 8.277344 40.726562 8.855469 39.644531 C 9.433594 38.5625 10.039062 37.496094 10.671875 36.441406 C 11.300781 35.390625 11.957031 34.351562 12.640625 33.332031 C 13.320312 32.3125 14.027344 31.308594 14.757812 30.320312 C 15.492188 29.335938 16.246094 28.367188 17.023438 27.421875 C 17.800781 26.472656 18.605469 25.542969 19.429688 24.632812 C 20.253906 23.722656 21.097656 22.835938 21.964844 21.964844 C 22.835938 21.097656 23.722656 20.253906 24.632812 19.429688 C 25.542969 18.605469 26.472656 17.800781 27.421875 17.023438 C 28.367188 16.246094 29.335938 15.492188 30.320312 14.757812 C 31.308594 14.027344 32.3125 13.320312 33.332031 12.640625 C 34.351562 11.957031 35.390625 11.300781 36.441406 10.671875 C 37.496094 10.039062 38.5625 9.433594 39.644531 8.855469 C 40.726562 8.277344 41.824219 7.726562 42.933594 7.199219 C 44.042969 6.675781 45.164062 6.179688 46.296875 5.707031 C 47.433594 5.238281 48.578125 4.796875 49.734375 4.382812 C 50.886719 3.96875 52.054688 3.585938 53.226562 3.230469 C 54.402344 2.875 55.585938 2.546875 56.777344 2.246094 C 57.964844 1.949219 59.164062 1.679688 60.367188 1.441406 C 61.570312 1.203125 62.78125 0.992188 63.996094 0.8125 C 65.207031 0.632812 66.425781 0.480469 67.648438 0.359375 C 68.871094 0.242188 70.09375 0.152344 71.320312 0.0898438 C 72.542969 0.03125 73.769531 0 75 0 C 76.226562 0 77.453125 0.03125 78.679688 0.0898438 C 79.90625 0.152344 81.128906 0.242188 82.351562 0.359375 C 83.570312 0.480469 84.789062 0.632812 86.003906 0.8125 C 87.21875 0.992188 88.425781 1.203125 89.628906 1.441406 C 90.835938 1.679688 92.03125 1.949219 93.222656 2.246094 C 94.414062 2.546875 95.59375 2.875 96.769531 3.230469 C 97.945312 3.585938 99.109375 3.96875 100.265625 4.382812 C 101.421875 4.796875 102.566406 5.238281 103.699219 5.707031 C 104.832031 6.179688 105.957031 6.675781 107.066406 7.199219 C 108.175781 7.726562 109.269531 8.277344 110.351562 8.855469 C 111.4375 9.433594 112.503906 10.039062 113.554688 10.671875 C 114.609375 11.300781 115.644531 11.957031 116.664062 12.640625 C 117.6875 13.320312 118.691406 14.027344 119.675781 14.757812 C 120.660156 15.492188 121.628906 16.246094 122.578125 17.023438 C 123.527344 17.800781 124.457031 18.605469 125.363281 19.429688 C 126.273438 20.253906 127.164062 21.097656 128.03125 21.964844 C 128.898438 22.835938 129.746094 23.722656 130.570312 24.632812 C 131.394531 25.542969 132.195312 26.472656 132.972656 27.421875 C 133.753906 28.367188 134.507812 29.335938 135.238281 30.320312 C 135.96875 31.308594 136.675781 32.3125 137.359375 33.332031 C 138.039062 34.351562 138.695312 35.390625 139.328125 36.441406 C 139.957031 37.496094 140.5625 38.5625 141.140625 39.644531 C 141.71875 40.726562 142.273438 41.824219 142.796875 42.933594 C 143.320312 44.042969 143.820312 45.164062 144.289062 46.296875 C 144.757812 47.433594 145.199219 48.578125 145.613281 49.734375 C 146.027344 50.886719 146.410156 52.054688 146.769531 53.226562 C 147.125 54.402344 147.453125 55.585938 147.75 56.777344 C 148.046875 57.964844 148.316406 59.164062 148.558594 60.367188 C 148.796875 61.570312 149.007812 62.78125 149.1875 63.996094 C 149.367188 65.207031 149.515625 66.425781 149.636719 67.648438 C 149.757812 68.871094 149.847656 70.09375 149.90625 71.320312 C 149.96875 72.542969 149.996094 73.769531 149.996094 75 Z M 149.996094 75 " fill-opacity="1" fill-rule="nonzero"/><g clip-path="url(#d86b37349f)"><path fill="#ffffff" d="M 87.777344 83.976562 C 86.433594 84.429688 85.992188 85.300781 85.742188 86.496094 C 84.160156 94.046875 82.84375 101.640625 82.488281 109.355469 C 82.386719 111.5625 82.667969 113.800781 82.914062 116.007812 C 83.066406 117.359375 83.519531 118.074219 84.238281 118.976562 C 84.566406 118.175781 84.820312 117.335938 85.238281 116.578125 C 86.402344 114.460938 88.621094 113.519531 90.765625 114.195312 C 91.222656 114.339844 91.667969 114.5625 92.058594 114.839844 C 92.863281 115.40625 92.980469 115.910156 92.621094 116.851562 C 92.191406 117.984375 91.753906 119.113281 91.339844 120.25 C 91.207031 120.609375 91.113281 120.992188 91.058594 121.371094 C 90.492188 125.28125 87.144531 128.425781 83.21875 128.761719 C 79.121094 129.113281 75.980469 127.394531 73.480469 124.304688 C 71.996094 122.472656 70.914062 120.386719 70.402344 118.097656 C 69.542969 114.269531 68.820312 110.414062 68.09375 106.558594 C 66.824219 99.847656 65.558594 93.136719 64.378906 86.40625 C 64.15625 85.140625 63.578125 84.40625 62.355469 83.976562 C 62.210938 84.238281 62.019531 84.503906 61.90625 84.804688 C 59.945312 89.875 58.289062 95.035156 57.46875 100.429688 C 57.046875 103.207031 57.167969 105.9375 58.054688 108.617188 C 58.269531 109.261719 58.496094 109.90625 58.625 110.570312 C 58.851562 111.691406 58.0625 112.480469 57.027344 112.042969 C 56.121094 111.652344 55.253906 111.03125 54.558594 110.324219 C 53 108.738281 52.035156 106.777344 51.476562 104.632812 C 50.464844 100.753906 50.570312 96.832031 51.34375 92.949219 C 51.882812 90.25 52.695312 87.601562 53.386719 84.929688 C 53.507812 84.464844 53.660156 84.011719 53.828125 83.4375 C 53.414062 83.4375 53.09375 83.40625 52.78125 83.441406 C 49.539062 83.808594 46.746094 82.878906 44.445312 80.546875 C 44.070312 80.164062 43.691406 79.789062 43.351562 79.375 C 42.589844 78.445312 41.636719 77.804688 40.480469 77.5 C 38.082031 76.867188 36.183594 75.496094 34.683594 73.574219 C 33.285156 71.777344 31.582031 70.421875 29.554688 69.378906 C 28.320312 68.742188 27.1875 67.871094 26.109375 66.980469 C 25.042969 66.097656 24.402344 64.898438 24.113281 63.515625 C 23.484375 60.480469 21.808594 59.273438 18.730469 59.597656 C 18.640625 59.609375 18.546875 59.585938 18.328125 59.566406 C 18.328125 59.355469 18.28125 59.121094 18.335938 58.914062 C 20.257812 51.785156 22.578125 44.804688 26.183594 38.320312 C 28.484375 34.179688 31.265625 30.410156 34.839844 27.261719 C 40.09375 22.640625 46.242188 20.878906 53.152344 21.480469 C 55.960938 21.726562 58.726562 22.167969 61.414062 23.054688 C 61.871094 23.203125 62.371094 23.304688 62.769531 23.558594 C 64.214844 24.480469 65.628906 24.414062 67.285156 24.003906 C 72.992188 22.589844 78.714844 22.722656 84.390625 24.351562 C 84.800781 24.46875 85.363281 24.433594 85.742188 24.242188 C 88.554688 22.820312 91.578125 22.167969 94.65625 21.722656 C 98.230469 21.207031 101.8125 21.15625 105.355469 21.992188 C 109.777344 23.03125 113.46875 25.359375 116.648438 28.546875 C 119.972656 31.875 122.546875 35.738281 124.667969 39.914062 C 127.734375 45.949219 129.878906 52.320312 131.589844 58.851562 C 131.644531 59.070312 131.664062 59.292969 131.71875 59.609375 C 131.179688 59.566406 130.757812 59.511719 130.335938 59.5 C 128.15625 59.4375 126.324219 60.835938 125.980469 62.984375 C 125.632812 65.140625 124.511719 66.753906 122.792969 67.988281 C 121.929688 68.609375 121.019531 69.179688 120.078125 69.675781 C 118.425781 70.550781 117.003906 71.675781 115.832031 73.144531 C 115.292969 73.824219 114.671875 74.449219 114.050781 75.058594 C 113.035156 76.058594 111.859375 76.839844 110.484375 77.234375 C 108.699219 77.746094 107.214844 78.671875 106.042969 80.113281 C 105.832031 80.375 105.570312 80.597656 105.324219 80.828125 C 103.148438 82.890625 100.554688 83.714844 97.59375 83.472656 C 97.253906 83.445312 96.917969 83.402344 96.582031 83.382812 C 96.496094 83.378906 96.40625 83.453125 96.253906 83.515625 C 96.691406 84.988281 97.152344 86.460938 97.574219 87.949219 C 98.800781 92.265625 99.511719 96.652344 99.179688 101.160156 C 98.933594 104.476562 97.964844 107.546875 95.730469 110.082031 C 95.105469 110.792969 94.273438 111.339844 93.484375 111.886719 C 92.992188 112.230469 92.378906 112.316406 91.851562 111.914062 C 91.300781 111.5 91.332031 110.921875 91.539062 110.328125 C 91.617188 110.101562 91.644531 109.855469 91.730469 109.628906 C 92.957031 106.410156 93.105469 103.109375 92.507812 99.75 C 91.539062 94.339844 89.867188 89.140625 87.777344 83.976562 Z M 83.425781 122.726562 C 83.371094 122.488281 83.320312 122.25 83.226562 121.851562 C 81.996094 123.023438 80.902344 124.0625 79.589844 125.3125 C 80.78125 125 81.5 124.476562 82.167969 123.851562 C 82.550781 123.492188 82.964844 123.164062 83.363281 122.820312 C 82.792969 123.65625 82.222656 124.492188 81.652344 125.328125 C 82.875 124.742188 83.496094 123.714844 84.238281 122.335938 C 83.75 122.574219 83.585938 122.648438 83.425781 122.726562 Z M 91.105469 29.621094 C 91.648438 30.425781 91.992188 30.949219 92.347656 31.460938 C 93.8125 33.5625 95.679688 34.425781 98.253906 33.617188 C 99.585938 33.199219 100.992188 32.984375 102.382812 32.796875 C 105.4375 32.378906 108.257812 33.070312 110.804688 34.8125 C 111.050781 34.980469 111.242188 35.234375 111.582031 35.566406 C 109.582031 35.566406 107.789062 35.523438 106 35.578125 C 103.550781 35.65625 101.636719 36.757812 100.308594 38.824219 C 99.339844 40.328125 98.40625 41.851562 97.449219 43.382812 C 98.339844 45.457031 99.058594 47.5625 99.128906 49.828125 C 99.199219 52.164062 98.128906 54.21875 97.375 56.324219 C 100.234375 58.742188 102.691406 61.339844 103.917969 64.84375 C 105.148438 68.359375 104.695312 71.898438 103.953125 75.496094 C 106.003906 73.902344 107.710938 72.054688 108.914062 69.761719 C 110.148438 67.402344 110.570312 64.914062 110.019531 62.261719 C 112.03125 64.640625 112.566406 67.34375 111.890625 70.632812 C 112.875 69.777344 113.363281 69.019531 113.738281 68.1875 C 114.714844 66.015625 115.03125 63.742188 114.773438 61.375 C 114.441406 58.308594 113.199219 55.601562 111.539062 53.050781 C 111.242188 52.59375 110.953125 52.125 110.660156 51.664062 C 114.804688 54.625 117.871094 58.308594 118.78125 63.515625 C 121.253906 61.132812 121.804688 59.089844 120.875 56.050781 C 120.222656 53.929688 119.054688 52.097656 117.660156 50.398438 C 117.238281 49.886719 116.808594 49.382812 116.382812 48.875 C 120.28125 50.347656 123.347656 52.90625 125.984375 56.160156 C 126.804688 55.25 126.652344 54.339844 126.480469 53.539062 C 125.867188 50.699219 125.34375 47.820312 124.453125 45.070312 C 122.421875 38.792969 119.160156 33.226562 114.304688 28.671875 C 109.996094 24.636719 104.933594 22.597656 98.996094 22.734375 C 94.992188 22.828125 91.097656 23.496094 87.292969 24.726562 C 86.8125 24.882812 86.417969 24.988281 86.300781 25.601562 C 86.265625 25.777344 85.664062 25.992188 85.363281 25.941406 C 84.75 25.84375 84.171875 25.546875 83.566406 25.386719 C 77.511719 23.78125 71.488281 23.859375 65.492188 25.683594 C 65.078125 25.808594 64.65625 25.921875 64.230469 26.003906 C 64.109375 26.027344 63.964844 25.929688 63.785156 25.875 C 63.695312 25.570312 63.601562 25.257812 63.476562 24.835938 C 61.730469 24.382812 59.964844 23.855469 58.167969 23.484375 C 54.78125 22.78125 51.351562 22.511719 47.898438 22.886719 C 43.023438 23.417969 38.972656 25.671875 35.484375 29.015625 C 29.75 34.515625 26.246094 41.28125 24.394531 48.941406 C 23.964844 50.726562 23.738281 52.5625 23.480469 54.382812 C 23.394531 54.972656 23.382812 55.640625 24.152344 56.019531 C 26.769531 52.890625 29.78125 50.320312 33.578125 48.78125 C 33.117188 49.535156 32.554688 50.183594 32.03125 50.859375 C 30.53125 52.796875 29.320312 54.867188 28.867188 57.328125 C 28.398438 59.890625 29.449219 61.808594 31.335938 63.59375 C 32.222656 58.28125 35.21875 54.539062 39.335938 51.550781 C 39.066406 52.210938 38.6875 52.800781 38.304688 53.386719 C 36.753906 55.773438 35.621094 58.332031 35.273438 61.179688 C 34.941406 63.898438 35.296875 66.507812 36.695312 68.902344 C 37.007812 69.441406 37.460938 69.894531 38.039062 70.625 C 37.667969 66.375 38.304688 63.914062 40.066406 62.453125 C 39.199219 68.144531 42.023438 72.070312 46.160156 75.46875 C 43.808594 67.488281 46.316406 61.21875 52.773438 56.339844 C 52.511719 55.71875 52.320312 55.226562 52.101562 54.75 C 50.789062 51.929688 50.660156 49.054688 51.675781 46.121094 C 51.925781 45.386719 52.234375 44.671875 52.433594 43.925781 C 52.523438 43.597656 52.523438 43.144531 52.363281 42.867188 C 51.558594 41.484375 50.710938 40.128906 49.839844 38.789062 C 48.628906 36.925781 46.894531 35.832031 44.695312 35.625 C 43.203125 35.488281 41.695312 35.53125 40.191406 35.511719 C 39.679688 35.507812 39.167969 35.558594 38.667969 35.582031 C 38.652344 35.425781 38.621094 35.359375 38.644531 35.335938 C 38.738281 35.226562 38.839844 35.117188 38.953125 35.035156 C 41.015625 33.550781 43.308594 32.582031 45.859375 32.734375 C 48.019531 32.867188 50.179688 33.257812 52.300781 33.71875 C 54.320312 34.15625 55.9375 33.703125 57.253906 32.136719 C 57.628906 31.691406 57.953125 31.207031 58.3125 30.75 C 58.492188 30.523438 58.691406 30.316406 58.992188 29.972656 C 59.125 32.257812 58.765625 34.273438 57.992188 36.160156 C 57.167969 38.171875 56.117188 40.089844 55.183594 42.058594 C 54.519531 43.457031 53.8125 44.839844 53.25 46.277344 C 52.480469 48.25 52.472656 50.300781 53.316406 52.238281 C 54.066406 53.964844 55.011719 55.605469 55.894531 57.273438 C 56.714844 58.8125 57.566406 60.332031 58.398438 61.863281 C 58.5625 62.167969 58.699219 62.492188 58.988281 63.097656 C 59.476562 61.371094 59.878906 59.949219 60.28125 58.53125 C 60.484375 59.375 60.546875 60.195312 60.46875 61.003906 C 60.382812 61.917969 60.261719 62.84375 60 63.71875 C 58.867188 67.527344 57.675781 71.316406 56.507812 75.113281 C 56.363281 75.585938 56.234375 76.066406 56.058594 76.679688 C 57.488281 76.460938 58.78125 76.273438 59.726562 77.191406 C 60.613281 78.050781 61.292969 79.117188 62.101562 80.136719 C 61.570312 76.660156 61.679688 74.492188 62.503906 72.605469 C 62.941406 74.265625 62.976562 75.976562 63.824219 77.535156 C 64 76.539062 64.15625 75.65625 64.3125 74.773438 C 64.371094 74.785156 64.429688 74.796875 64.484375 74.808594 C 64.609375 75.695312 64.734375 76.582031 64.882812 77.644531 C 67.488281 72.5 70.429688 70.445312 75.175781 70.507812 C 80.070312 70.574219 83.371094 73.007812 85.351562 77.566406 C 85.429688 76.613281 85.511719 75.660156 85.59375 74.707031 C 85.65625 74.699219 85.71875 74.695312 85.777344 74.6875 C 85.984375 75.511719 86.1875 76.332031 86.394531 77.15625 C 86.480469 77.144531 86.570312 77.136719 86.660156 77.125 C 86.972656 75.621094 87.285156 74.117188 87.652344 72.351562 C 88.453125 74.925781 88.59375 77.277344 88.214844 79.71875 C 88.667969 79.292969 89 78.839844 89.28125 78.355469 C 90.078125 76.988281 91.304688 76.46875 92.828125 76.53125 C 93.246094 76.546875 93.664062 76.628906 94.167969 76.695312 C 93.914062 75.914062 93.679688 75.230469 93.46875 74.535156 C 92.324219 70.832031 91.15625 67.136719 90.066406 63.421875 C 89.621094 61.90625 89.464844 60.332031 89.863281 58.714844 C 90.265625 60.066406 90.667969 61.417969 91.070312 62.785156 C 92.753906 59.847656 94.402344 57.011719 96 54.144531 C 96.398438 53.433594 96.652344 52.636719 96.9375 51.863281 C 97.578125 50.117188 97.648438 48.332031 96.972656 46.597656 C 96.359375 45.023438 95.632812 43.488281 94.90625 41.960938 C 94.078125 40.210938 93.105469 38.523438 92.355469 36.742188 C 91.449219 34.589844 90.9375 32.324219 91.105469 29.621094 Z M 88.699219 82.84375 C 88.917969 83.414062 89.128906 83.902344 89.300781 84.402344 C 90.609375 88.246094 92.035156 92.058594 93.183594 95.949219 C 94.214844 99.453125 94.601562 103.074219 93.9375 106.722656 C 93.722656 107.898438 93.386719 109.054688 93.023438 110.558594 C 93.664062 110.007812 94.078125 109.695312 94.4375 109.328125 C 95.46875 108.261719 96.109375 106.960938 96.570312 105.570312 C 97.792969 101.902344 97.832031 98.140625 97.304688 94.367188 C 96.570312 89.074219 95.066406 83.972656 93.320312 78.933594 C 93.183594 78.542969 92.980469 78.175781 92.761719 77.695312 C 90.8125 79.015625 90.003906 81.050781 88.699219 82.84375 Z M 56.800781 110.273438 C 56.46875 108.109375 56.015625 106.070312 55.871094 104.011719 C 55.652344 100.835938 56.214844 97.710938 57.1875 94.703125 C 58.363281 91.0625 59.695312 87.476562 61 83.878906 C 61.25 83.191406 61.347656 82.648438 60.84375 82.003906 C 60.21875 81.207031 59.777344 80.269531 59.164062 79.460938 C 58.683594 78.824219 58.070312 78.292969 57.367188 77.5625 C 57.0625 78.285156 56.8125 78.75 56.660156 79.246094 C 55.683594 82.441406 54.644531 85.621094 53.789062 88.851562 C 52.714844 92.902344 52.199219 97.035156 52.605469 101.238281 C 52.816406 103.425781 53.316406 105.542969 54.347656 107.5 C 54.941406 108.621094 55.679688 109.628906 56.800781 110.273438 Z M 65.832031 82.976562 C 67.132812 78.128906 70.445312 76.175781 74.933594 76.054688 C 79.394531 75.933594 82.683594 77.902344 84.425781 82.5 C 85.175781 79.34375 84.574219 76.878906 82.636719 74.753906 C 78.59375 70.324219 71.171875 70.4375 67.253906 74.992188 C 65.285156 77.28125 64.921875 79.886719 65.832031 82.976562 Z M 83.089844 85.921875 C 83.894531 83.667969 83.371094 81.308594 81.710938 79.617188 C 78.316406 76.15625 71.796875 76.21875 68.449219 79.738281 C 66.90625 81.363281 66.402344 83.753906 67.167969 85.859375 C 68.707031 82.304688 71.625 80.800781 75.253906 80.820312 C 78.828125 80.84375 81.652344 82.390625 83.089844 85.921875 Z M 82.101562 88.757812 C 82.628906 85.832031 82.453125 84.703125 79.441406 82.878906 C 76.503906 81.097656 72.441406 81.507812 69.757812 83.617188 C 68.027344 84.976562 67.621094 86.660156 68.160156 88.730469 C 72.808594 85.660156 77.402344 85.605469 82.101562 88.757812 Z M 68.65625 91.9375 C 73.058594 88.394531 77.339844 88.417969 81.617188 92.164062 C 81.675781 91.808594 81.714844 91.570312 81.757812 91.335938 C 82.058594 89.710938 82.070312 89.601562 80.617188 88.808594 C 76.941406 86.800781 73.210938 86.722656 69.585938 88.875 C 67.726562 89.980469 67.976562 90.050781 68.65625 91.9375 Z M 69.628906 96.140625 C 73.324219 93.933594 76.976562 93.992188 80.636719 95.878906 C 81.070312 94.050781 81.054688 93.996094 79.589844 93.261719 C 77.367188 92.148438 75.035156 92.0625 72.652344 92.578125 C 71.367188 92.855469 70.191406 93.375 69.226562 94.328125 C 69.351562 94.894531 69.464844 95.410156 69.628906 96.140625 Z M 70.242188 98.46875 C 71.839844 97.566406 73.464844 97.175781 75.179688 97.140625 C 76.933594 97.101562 78.574219 97.609375 80.246094 98.277344 C 80.351562 97.941406 80.453125 97.722656 80.480469 97.496094 C 80.511719 97.167969 80.488281 96.832031 80.488281 96.40625 C 77.449219 94.652344 74.308594 94.46875 71.09375 95.890625 C 69.605469 96.550781 69.601562 96.683594 70.242188 98.46875 Z M 69.136719 93.605469 C 73.128906 91.039062 77.085938 91.070312 81.074219 93.488281 C 81.371094 92.421875 80.746094 91.90625 80.128906 91.457031 C 77.269531 89.363281 74.214844 89.300781 71.082031 90.742188 C 70.441406 91.035156 69.90625 91.574219 69.351562 92.035156 C 68.890625 92.417969 68.773438 92.910156 69.136719 93.605469 Z M 79.980469 101.300781 C 77.0625 99.230469 72.457031 99.667969 70.628906 101.507812 C 70.726562 101.972656 70.839844 102.503906 70.96875 103.113281 C 73.945312 101.636719 76.804688 101.699219 79.820312 103.019531 C 79.882812 102.332031 79.929688 101.828125 79.980469 101.300781 Z M 80.269531 98.921875 C 76.8125 97.148438 73.566406 97.160156 70.289062 98.980469 C 70.320312 99.421875 70.332031 99.757812 70.375 100.089844 C 70.394531 100.269531 70.464844 100.4375 70.542969 100.714844 C 73.671875 99.113281 76.785156 98.984375 80.039062 100.675781 C 80.125 100.035156 80.1875 99.53125 80.269531 98.921875 Z M 79.628906 105.179688 C 79.628906 104.496094 79.628906 104.03125 79.628906 103.535156 C 76.695312 102.148438 73.875 102.101562 70.992188 103.714844 C 71.125 104.261719 71.230469 104.707031 71.355469 105.242188 C 74.105469 104 76.78125 104.019531 79.628906 105.179688 Z M 79.472656 105.714844 C 76.75 104.492188 74.144531 104.484375 71.449219 105.769531 C 71.519531 106.355469 71.582031 106.855469 71.65625 107.460938 C 74.257812 106.570312 76.761719 106.367188 79.378906 107.441406 C 79.414062 106.816406 79.441406 106.304688 79.472656 105.714844 Z M 72.054688 109.609375 C 74.511719 108.894531 76.84375 108.734375 79.273438 109.492188 C 79.273438 108.871094 79.273438 108.417969 79.273438 107.90625 C 76.761719 106.867188 74.34375 106.914062 71.785156 107.96875 C 71.871094 108.511719 71.953125 109 72.054688 109.609375 Z M 72.394531 111.382812 C 74.761719 111.382812 76.894531 111.382812 79.105469 111.382812 C 79.105469 110.933594 79.105469 110.476562 79.105469 109.925781 C 76.730469 109.316406 74.457031 109.226562 72.128906 110.175781 C 72.242188 110.695312 72.332031 111.101562 72.394531 111.382812 Z M 72.773438 113.65625 C 74.980469 113.507812 77.039062 113.367188 79.378906 113.210938 C 79.085938 112.644531 78.960938 112.007812 78.6875 111.9375 C 76.640625 111.386719 74.597656 111.445312 72.5 112.167969 C 72.59375 112.675781 72.671875 113.09375 72.773438 113.65625 Z M 73.210938 115.578125 C 75.355469 115.734375 77.378906 115.640625 79.425781 114.921875 C 79.300781 114.457031 79.207031 114.101562 79.078125 113.625 C 77.007812 113.917969 74.957031 113.71875 72.84375 114.140625 C 73 114.75 73.101562 115.152344 73.210938 115.578125 Z M 90.84375 116.515625 C 88.304688 116.515625 86.648438 118.199219 86.617188 120.539062 C 87.589844 120.203125 88.574219 119.863281 89.597656 119.507812 C 89.984375 118.578125 90.390625 117.605469 90.84375 116.515625 Z M 73.355469 116.234375 C 73.507812 116.820312 73.511719 117.335938 74.191406 117.375 C 76.09375 117.476562 77.949219 117.335938 79.726562 116.421875 C 79.621094 116.097656 79.535156 115.835938 79.457031 115.59375 C 77.421875 115.808594 75.464844 116.011719 73.355469 116.234375 Z M 80.199219 117.847656 C 79.734375 117.007812 79.742188 117.035156 79.027344 117.195312 C 77.757812 117.472656 76.480469 117.726562 75.203125 117.964844 C 74.804688 118.039062 74.394531 118.027344 73.996094 118.054688 C 74.023438 118.867188 74.476562 119.046875 75.066406 119.085938 C 76.90625 119.203125 78.59375 118.722656 80.199219 117.847656 Z M 80.511719 118.441406 C 78.558594 118.996094 76.699219 119.519531 74.871094 120.039062 C 76.382812 121.054688 78.980469 120.59375 80.824219 118.910156 C 80.703125 118.726562 80.574219 118.535156 80.511719 118.441406 Z M 81.496094 120.210938 C 81.207031 119.351562 80.796875 119.671875 80.433594 119.863281 C 79.011719 120.605469 77.542969 121.199219 75.9375 121.398438 C 75.84375 121.410156 75.761719 121.535156 75.539062 121.722656 C 77.960938 122.503906 79.65625 121.246094 81.496094 120.210938 Z M 76.84375 123.101562 C 78.691406 123.617188 81.867188 122.082031 81.878906 120.546875 C 80.171875 121.417969 78.492188 122.269531 76.84375 123.101562 Z M 78.21875 124.351562 C 79.824219 124.527344 81.761719 123.300781 82.816406 121.199219 C 81.125 122.359375 79.691406 123.339844 78.21875 124.351562 Z M 83.75 124.070312 C 84.234375 123.855469 84.636719 123.535156 84.5625 122.6875 C 84.199219 123.304688 83.976562 123.6875 83.75 124.070312 Z M 83.75 124.070312 " fill-opacity="1" fill-rule="nonzero"/></g><path fill="#ffffff" d="M 85.375 71.898438 C 82.914062 68.035156 79.214844 66.9375 74.996094 66.96875 C 70.75 67 67.109375 68.257812 64.714844 72.078125 C 64.640625 72.019531 64.566406 71.960938 64.492188 71.902344 C 64.871094 71.203125 65.1875 70.457031 65.648438 69.816406 C 66.644531 68.449219 68.007812 67.535156 69.582031 66.941406 C 73.171875 65.597656 76.792969 65.542969 80.386719 66.828125 C 82.546875 67.597656 84.316406 68.914062 85.292969 71.09375 C 85.355469 71.222656 85.417969 71.355469 85.449219 71.496094 C 85.464844 71.578125 85.417969 71.675781 85.375 71.898438 Z M 85.375 71.898438 " fill-opacity="1" fill-rule="nonzero"/><path fill="#ffffff" d="M 65.390625 65.738281 C 65.484375 65.546875 65.554688 65.335938 65.675781 65.164062 C 66.566406 63.902344 67.75 62.984375 69.167969 62.417969 C 72.910156 60.925781 76.707031 60.765625 80.511719 62.152344 C 82.523438 62.890625 84.167969 64.113281 85.058594 66.210938 C 83.410156 64.402344 81.425781 63.171875 79.039062 62.667969 C 76.644531 62.160156 74.242188 62.136719 71.828125 62.578125 C 69.398438 63.019531 67.320312 64.140625 65.390625 65.738281 Z M 65.390625 65.738281 " fill-opacity="1" fill-rule="nonzero"/><path fill="#ffffff" d="M 88.5 69.945312 C 85.210938 65.96875 84.625 58.253906 87.28125 53.859375 C 86.566406 59.457031 87.113281 64.734375 88.5 69.945312 Z M 88.5 69.945312 " fill-opacity="1" fill-rule="nonzero"/><path fill="#ffffff" d="M 62.972656 54.03125 C 65.203125 57.773438 65.332031 65.359375 61.613281 70.007812 C 62.039062 68.042969 62.496094 66.371094 62.746094 64.664062 C 63 62.945312 63.125 61.195312 63.15625 59.457031 C 63.191406 57.671875 63.042969 55.886719 62.972656 54.03125 Z M 62.972656 54.03125 " fill-opacity="1" fill-rule="nonzero"/><path fill="#ffffff" d="M 88.296875 32.066406 C 89.070312 37.285156 90.027344 39.269531 94.507812 45.058594 C 90.414062 44.121094 86.664062 36.441406 88.296875 32.066406 Z M 88.296875 32.066406 " fill-opacity="1" fill-rule="nonzero"/><path fill="#ffffff" d="M 55.019531 45.484375 C 59.003906 41.769531 61.183594 37.4375 61.867188 32.085938 C 63.472656 36.746094 60.035156 43.46875 55.019531 45.484375 Z M 55.019531 45.484375 " fill-opacity="1" fill-rule="nonzero"/><path fill="#ffffff" d="M 93.582031 51.316406 C 93.464844 51.816406 93.253906 52.289062 93.261719 52.753906 C 93.300781 54.777344 91.910156 56.136719 89.90625 55.90625 C 89.636719 55.875 89.394531 55.5625 89.019531 55.296875 C 89.234375 54.566406 89.382812 53.695312 89.738281 52.921875 C 90.539062 51.171875 91.933594 50.671875 93.582031 51.316406 Z M 92.699219 52.71875 C 92.664062 52.722656 92.632812 52.722656 92.597656 52.722656 C 92.597656 53.027344 92.597656 53.332031 92.597656 53.640625 C 92.632812 53.636719 92.664062 53.632812 92.699219 53.628906 C 92.699219 53.328125 92.699219 53.023438 92.699219 52.71875 Z M 90.722656 55.183594 C 90.738281 55.234375 90.757812 55.285156 90.777344 55.335938 C 91.085938 55.21875 91.398438 55.101562 91.707031 54.984375 C 91.683594 54.925781 91.660156 54.863281 91.640625 54.804688 C 91.332031 54.929688 91.027344 55.058594 90.722656 55.183594 Z M 90.722656 55.183594 " fill-opacity="1" fill-rule="nonzero"/><path fill="#ffffff" d="M 56.121094 51.480469 C 57.378906 50.710938 58.515625 50.871094 59.507812 51.847656 C 60.449219 52.769531 60.839844 53.96875 61.011719 55.214844 C 61.0625 55.558594 60.476562 55.824219 60.125 55.886719 C 59.777344 55.949219 59.378906 55.75 59.003906 55.664062 C 57.242188 55.253906 56.75 54.632812 56.796875 52.84375 C 56.808594 52.332031 57.039062 51.75 56.121094 51.480469 Z M 57.425781 52.589844 C 57.226562 54.457031 57.636719 54.957031 59.53125 55.234375 C 58.132812 54.894531 57.496094 53.964844 57.425781 52.589844 Z M 57.425781 52.589844 " fill-opacity="1" fill-rule="nonzero"/><path fill="#ffffff" d="M 66.925781 56.644531 C 71.785156 52.828125 78.535156 52.699219 83.535156 56.699219 C 80.894531 55.484375 78.164062 54.667969 75.230469 54.679688 C 72.316406 54.691406 69.578125 55.382812 66.925781 56.644531 Z M 66.925781 56.644531 " fill-opacity="1" fill-rule="nonzero"/><path fill="#ffffff" d="M 67.574219 59.671875 C 70.992188 55.113281 79.433594 54.921875 83.179688 60.191406 C 80.964844 58.324219 78.492188 57.144531 75.546875 57.042969 C 72.558594 56.9375 69.972656 57.941406 67.574219 59.671875 Z M 67.574219 59.671875 " fill-opacity="1" fill-rule="nonzero"/><path fill="#ffffff" d="M 70.207031 48.574219 C 72.792969 46.910156 77.484375 46.847656 80.125 48.625 C 76.71875 47.929688 73.484375 47.859375 70.207031 48.574219 Z M 70.207031 48.574219 " fill-opacity="1" fill-rule="nonzero"/><path fill="#ffffff" d="M 56.824219 48.023438 C 57.828125 48.335938 58.847656 48.605469 59.832031 48.96875 C 61.238281 49.484375 61.828125 50.582031 61.789062 52.035156 C 61.773438 52.59375 61.675781 53.148438 61.613281 53.714844 C 61.035156 52.476562 60.703125 51.136719 59.894531 50.207031 C 59.113281 49.308594 57.84375 48.839844 56.792969 48.179688 C 56.804688 48.128906 56.8125 48.074219 56.824219 48.023438 Z M 56.824219 48.023438 " fill-opacity="1" fill-rule="nonzero"/><path fill="#ffffff" d="M 93.402344 48.253906 C 90.789062 49.097656 88.996094 50.664062 88.734375 53.601562 C 88.636719 53.566406 88.539062 53.527344 88.441406 53.492188 C 88.441406 52.621094 88.382812 51.742188 88.460938 50.878906 C 88.527344 50.164062 89.019531 49.667969 89.628906 49.300781 C 90.773438 48.613281 92.019531 48.292969 93.402344 48.253906 Z M 93.402344 48.253906 " fill-opacity="1" fill-rule="nonzero"/></svg>