<svg xmlns="http://www.w3.org/2000/svg" xmlns:xlink="http://www.w3.org/1999/xlink" width="500" zoomAndPan="magnify" viewBox="0 0 375 374.999991" height="500" preserveAspectRatio="xMidYMid meet" version="1.0"><defs><clipPath id="89149f59aa"><path d="M 34 42 L 341.421875 42 L 341.421875 334 L 34 334 Z M 34 42 " clip-rule="nonzero"/></clipPath></defs><g clip-path="url(#89149f59aa)"><path fill="#8a2be2" d="M 222.082031 211.804688 C 218.457031 213.03125 217.253906 215.386719 216.578125 218.621094 C 212.296875 239.0625 208.734375 259.609375 207.769531 280.496094 C 207.496094 286.46875 208.257812 292.523438 208.929688 298.496094 C 209.339844 302.15625 210.5625 304.09375 212.511719 306.535156 C 213.398438 304.371094 214.089844 302.089844 215.210938 300.046875 C 218.359375 294.308594 224.375 291.761719 230.179688 293.589844 C 231.410156 293.980469 232.621094 294.589844 233.675781 295.335938 C 235.859375 296.875 236.167969 298.230469 235.199219 300.785156 C 234.039062 303.847656 232.847656 306.902344 231.730469 309.976562 C 231.375 310.957031 231.109375 311.988281 230.964844 313.019531 C 229.4375 323.597656 220.371094 332.109375 209.746094 333.019531 C 198.660156 333.96875 190.15625 329.3125 183.386719 320.953125 C 179.371094 315.992188 176.445312 310.347656 175.054688 304.152344 C 172.730469 293.796875 170.777344 283.355469 168.804688 272.925781 C 165.375 254.757812 161.953125 236.589844 158.757812 218.382812 C 158.15625 214.953125 156.59375 212.964844 153.28125 211.808594 C 152.890625 212.507812 152.375 213.234375 152.066406 214.039062 C 146.753906 227.765625 142.277344 241.730469 140.058594 256.335938 C 138.914062 263.855469 139.238281 271.242188 141.640625 278.496094 C 142.21875 280.238281 142.828125 281.988281 143.1875 283.78125 C 143.792969 286.8125 141.65625 288.957031 138.863281 287.761719 C 136.40625 286.714844 134.054688 285.027344 132.175781 283.113281 C 127.960938 278.824219 125.34375 273.507812 123.832031 267.707031 C 121.101562 257.207031 121.386719 246.597656 123.480469 236.089844 C 124.933594 228.777344 127.128906 221.609375 129.011719 214.382812 C 129.335938 213.128906 129.742188 211.898438 130.203125 210.34375 C 129.085938 210.34375 128.214844 210.261719 127.363281 210.355469 C 118.585938 211.347656 111.035156 208.828125 104.804688 202.515625 C 103.792969 201.488281 102.761719 200.464844 101.847656 199.351562 C 99.78125 196.832031 97.203125 195.097656 94.070312 194.269531 C 87.585938 192.5625 82.445312 188.84375 78.386719 183.644531 C 74.597656 178.789062 69.988281 175.117188 64.507812 172.289062 C 61.164062 170.566406 58.09375 168.210938 55.179688 165.800781 C 52.292969 163.410156 50.554688 160.160156 49.78125 156.425781 C 48.074219 148.210938 43.539062 144.9375 35.207031 145.820312 C 34.960938 145.847656 34.703125 145.785156 34.117188 145.734375 C 34.117188 145.160156 33.988281 144.523438 34.136719 143.96875 C 39.335938 124.671875 45.621094 105.78125 55.378906 88.226562 C 61.605469 77.019531 69.136719 66.820312 78.8125 58.304688 C 93.027344 45.785156 109.667969 41.027344 128.367188 42.65625 C 135.972656 43.320312 143.460938 44.519531 150.726562 46.910156 C 151.972656 47.316406 153.324219 47.589844 154.402344 48.277344 C 158.316406 50.773438 162.140625 50.589844 166.625 49.476562 C 182.070312 45.648438 197.558594 46.011719 212.917969 50.421875 C 214.03125 50.742188 215.554688 50.644531 216.578125 50.128906 C 224.1875 46.28125 232.375 44.507812 240.703125 43.308594 C 250.378906 41.914062 260.074219 41.777344 269.660156 44.03125 C 281.628906 46.851562 291.625 53.148438 300.234375 61.777344 C 309.222656 70.789062 316.191406 81.238281 321.929688 92.539062 C 330.230469 108.875 336.042969 126.125 340.667969 143.804688 C 340.820312 144.386719 340.875 144.996094 341.019531 145.855469 C 339.5625 145.734375 338.417969 145.585938 337.273438 145.550781 C 331.378906 145.386719 326.417969 149.167969 325.484375 154.984375 C 324.542969 160.824219 321.515625 165.191406 316.859375 168.527344 C 314.519531 170.207031 312.058594 171.75 309.515625 173.09375 C 305.035156 175.460938 301.1875 178.511719 298.023438 182.484375 C 296.554688 184.328125 294.878906 186.015625 293.195312 187.667969 C 290.445312 190.371094 287.265625 192.488281 283.542969 193.550781 C 278.714844 194.933594 274.695312 197.445312 271.527344 201.339844 C 270.953125 202.050781 270.242188 202.652344 269.574219 203.285156 C 263.691406 208.859375 256.664062 211.09375 248.65625 210.441406 C 247.738281 210.367188 246.828125 210.246094 245.914062 210.199219 C 245.679688 210.1875 245.441406 210.382812 245.03125 210.558594 C 246.21875 214.542969 247.457031 218.53125 248.597656 222.550781 C 251.921875 234.238281 253.847656 246.113281 252.945312 258.308594 C 252.28125 267.292969 249.660156 275.597656 243.609375 282.464844 C 241.917969 284.386719 239.671875 285.867188 237.539062 287.347656 C 236.203125 288.273438 234.539062 288.507812 233.109375 287.421875 C 231.628906 286.296875 231.710938 284.734375 232.265625 283.128906 C 232.476562 282.511719 232.558594 281.847656 232.789062 281.234375 C 236.109375 272.527344 236.503906 263.585938 234.886719 254.496094 C 232.273438 239.847656 227.742188 225.777344 222.082031 211.804688 Z M 210.3125 316.6875 C 210.167969 316.039062 210.019531 315.390625 209.773438 314.308594 C 206.433594 317.488281 203.480469 320.296875 199.925781 323.679688 C 203.148438 322.839844 205.09375 321.417969 206.90625 319.722656 C 207.941406 318.753906 209.0625 317.867188 210.144531 316.941406 C 208.601562 319.203125 207.058594 321.460938 205.515625 323.722656 C 208.820312 322.136719 210.503906 319.363281 212.507812 315.628906 C 211.183594 316.269531 210.746094 316.476562 210.3125 316.6875 Z M 231.097656 64.6875 C 232.566406 66.867188 233.492188 68.28125 234.457031 69.667969 C 238.417969 75.347656 243.472656 77.691406 250.445312 75.5 C 254.046875 74.367188 257.855469 73.792969 261.613281 73.277344 C 269.882812 72.148438 277.515625 74.015625 284.414062 78.734375 C 285.082031 79.191406 285.597656 79.875 286.511719 80.78125 C 281.097656 80.78125 276.25 80.660156 271.414062 80.8125 C 264.78125 81.023438 259.597656 84 256 89.59375 C 253.382812 93.664062 250.855469 97.792969 248.265625 101.933594 C 250.679688 107.546875 252.617188 113.246094 252.808594 119.382812 C 253.003906 125.703125 250.101562 131.261719 248.058594 136.960938 C 255.800781 143.507812 262.449219 150.535156 265.773438 160.015625 C 269.109375 169.535156 267.878906 179.117188 265.871094 188.847656 C 271.421875 184.539062 276.042969 179.539062 279.292969 173.328125 C 282.632812 166.941406 283.773438 160.203125 282.289062 153.027344 C 287.734375 159.472656 289.179688 166.78125 287.351562 175.683594 C 290.015625 173.371094 291.335938 171.316406 292.347656 169.070312 C 294.992188 163.191406 295.851562 157.03125 295.15625 150.625 C 294.253906 142.324219 290.894531 135 286.402344 128.101562 C 285.59375 126.859375 284.816406 125.597656 284.023438 124.34375 C 295.242188 132.355469 303.542969 142.335938 306.003906 156.425781 C 312.699219 149.976562 314.1875 144.441406 311.664062 136.222656 C 309.902344 130.476562 306.746094 125.519531 302.964844 120.921875 C 301.828125 119.539062 300.664062 118.171875 299.507812 116.796875 C 310.0625 120.78125 318.363281 127.710938 325.496094 136.511719 C 327.722656 134.050781 327.304688 131.585938 326.835938 129.417969 C 325.183594 121.734375 323.761719 113.949219 321.347656 106.496094 C 315.851562 89.515625 307.027344 74.4375 293.878906 62.113281 C 282.230469 51.195312 268.523438 45.675781 252.457031 46.046875 C 241.613281 46.300781 231.074219 48.105469 220.773438 51.4375 C 219.472656 51.859375 218.402344 52.148438 218.085938 53.808594 C 217.992188 54.285156 216.367188 54.863281 215.554688 54.730469 C 213.894531 54.460938 212.328125 53.660156 210.6875 53.222656 C 194.304688 48.875 177.996094 49.089844 161.765625 54.027344 C 160.644531 54.371094 159.507812 54.667969 158.359375 54.894531 C 158.027344 54.960938 157.632812 54.699219 157.148438 54.550781 C 156.902344 53.71875 156.652344 52.871094 156.316406 51.730469 C 151.582031 50.511719 146.8125 49.082031 141.953125 48.074219 C 132.78125 46.175781 123.5 45.445312 114.15625 46.457031 C 100.960938 47.894531 89.992188 53.992188 80.554688 63.046875 C 65.027344 77.933594 55.550781 96.25 50.535156 116.976562 C 49.367188 121.804688 48.761719 126.773438 48.058594 131.699219 C 47.832031 133.296875 47.796875 135.109375 49.878906 136.136719 C 56.960938 127.667969 65.113281 120.710938 75.394531 116.546875 C 74.140625 118.585938 72.625 120.339844 71.203125 122.171875 C 67.140625 127.40625 63.871094 133.015625 62.644531 139.671875 C 61.367188 146.613281 64.210938 151.808594 69.328125 156.636719 C 71.722656 142.253906 79.835938 132.121094 90.976562 124.035156 C 90.246094 125.824219 89.21875 127.417969 88.183594 129.011719 C 83.984375 135.472656 80.925781 142.390625 79.984375 150.101562 C 79.082031 157.457031 80.046875 164.519531 83.828125 171.003906 C 84.675781 172.460938 85.90625 173.691406 87.46875 175.671875 C 86.464844 164.164062 88.1875 157.503906 92.949219 153.554688 C 90.605469 168.953125 98.25 179.578125 109.445312 188.777344 C 103.082031 167.179688 109.875 150.210938 127.339844 137.003906 C 126.632812 135.316406 126.121094 133.984375 125.523438 132.695312 C 121.972656 125.0625 121.628906 117.277344 124.371094 109.34375 C 125.054688 107.363281 125.882812 105.421875 126.425781 103.402344 C 126.664062 102.511719 126.671875 101.289062 126.234375 100.535156 C 124.0625 96.792969 121.761719 93.125 119.402344 89.492188 C 116.128906 84.457031 111.4375 81.492188 105.476562 80.9375 C 101.441406 80.5625 97.359375 80.683594 93.296875 80.632812 C 91.910156 80.617188 90.523438 80.75 89.171875 80.816406 C 89.121094 80.398438 89.046875 80.21875 89.101562 80.152344 C 89.363281 79.863281 89.628906 79.566406 89.945312 79.335938 C 95.527344 75.320312 101.734375 72.699219 108.628906 73.113281 C 114.480469 73.464844 120.328125 74.53125 126.070312 75.773438 C 131.53125 76.957031 135.914062 75.734375 139.472656 71.492188 C 140.484375 70.289062 141.367188 68.980469 142.339844 67.742188 C 142.820312 67.128906 143.367188 66.5625 144.179688 65.636719 C 144.535156 71.824219 143.558594 77.273438 141.464844 82.386719 C 139.238281 87.828125 136.402344 93.023438 133.871094 98.347656 C 132.074219 102.132812 130.152344 105.875 128.636719 109.769531 C 126.554688 115.109375 126.53125 120.652344 128.8125 125.902344 C 130.847656 130.574219 133.402344 135.019531 135.796875 139.527344 C 138.011719 143.691406 140.324219 147.804688 142.570312 151.949219 C 143.019531 152.777344 143.386719 153.648438 144.167969 155.292969 C 145.488281 150.617188 146.574219 146.773438 147.660156 142.933594 C 148.214844 145.21875 148.378906 147.441406 148.171875 149.628906 C 147.9375 152.097656 147.613281 154.605469 146.90625 156.976562 C 143.839844 167.277344 140.613281 177.535156 137.453125 187.808594 C 137.058594 189.09375 136.710938 190.394531 136.238281 192.050781 C 140.105469 191.460938 143.601562 190.949219 146.167969 193.441406 C 148.5625 195.765625 150.40625 198.648438 152.59375 201.414062 C 151.152344 192 151.453125 186.132812 153.6875 181.019531 C 154.867188 185.515625 154.957031 190.148438 157.261719 194.367188 C 157.734375 191.671875 158.152344 189.285156 158.574219 186.894531 C 158.734375 186.925781 158.890625 186.960938 159.046875 186.992188 C 159.382812 189.390625 159.71875 191.792969 160.121094 194.664062 C 167.167969 180.738281 175.136719 175.179688 187.984375 175.351562 C 201.230469 175.53125 210.15625 182.113281 215.515625 194.453125 C 215.738281 191.871094 215.957031 189.289062 216.175781 186.710938 C 216.34375 186.695312 216.511719 186.679688 216.675781 186.664062 C 217.230469 188.890625 217.785156 191.113281 218.339844 193.339844 C 218.578125 193.3125 218.820312 193.285156 219.0625 193.257812 C 219.90625 189.1875 220.753906 185.113281 221.746094 180.339844 C 223.914062 187.304688 224.296875 193.671875 223.269531 200.285156 C 224.492188 199.121094 225.394531 197.894531 226.160156 196.589844 C 228.316406 192.882812 231.636719 191.484375 235.753906 191.648438 C 236.890625 191.695312 238.019531 191.921875 239.386719 192.09375 C 238.695312 189.984375 238.066406 188.125 237.488281 186.253906 C 234.398438 176.230469 231.230469 166.230469 228.28125 156.167969 C 227.078125 152.066406 226.648438 147.804688 227.738281 143.425781 C 228.820312 147.089844 229.90625 150.75 231.003906 154.453125 C 235.554688 146.496094 240.015625 138.816406 244.339844 131.058594 C 245.417969 129.128906 246.113281 126.976562 246.878906 124.886719 C 248.609375 120.15625 248.800781 115.328125 246.972656 110.632812 C 245.3125 106.367188 243.347656 102.21875 241.386719 98.085938 C 239.136719 93.351562 236.503906 88.785156 234.480469 83.964844 C 232.027344 78.132812 230.644531 72 231.097656 64.6875 Z M 224.578125 208.738281 C 225.175781 210.28125 225.742188 211.601562 226.207031 212.960938 C 229.753906 223.363281 233.605469 233.675781 236.714844 244.207031 C 239.515625 253.6875 240.554688 263.488281 238.757812 273.367188 C 238.179688 276.550781 237.269531 279.675781 236.289062 283.746094 C 238.015625 282.253906 239.140625 281.410156 240.109375 280.414062 C 242.90625 277.535156 244.632812 274.015625 245.890625 270.25 C 249.199219 260.320312 249.296875 250.144531 247.875 239.925781 C 245.882812 225.601562 241.816406 211.789062 237.085938 198.15625 C 236.71875 197.097656 236.167969 196.097656 235.582031 194.796875 C 230.296875 198.378906 228.109375 203.882812 224.578125 208.738281 Z M 138.246094 282.984375 C 137.347656 277.117188 136.117188 271.605469 135.730469 266.03125 C 135.136719 257.4375 136.660156 248.980469 139.292969 240.832031 C 142.476562 230.984375 146.082031 221.273438 149.609375 211.539062 C 150.285156 209.679688 150.550781 208.207031 149.191406 206.46875 C 147.5 204.308594 146.300781 201.769531 144.644531 199.578125 C 143.347656 197.855469 141.679688 196.417969 139.78125 194.4375 C 138.953125 196.398438 138.28125 197.660156 137.871094 199.003906 C 135.226562 207.652344 132.410156 216.253906 130.09375 224.992188 C 127.191406 235.960938 125.789062 247.144531 126.890625 258.523438 C 127.464844 264.441406 128.8125 270.171875 131.609375 275.472656 C 133.210938 278.507812 135.210938 281.234375 138.246094 282.984375 Z M 162.691406 209.101562 C 166.210938 195.980469 175.179688 190.691406 187.324219 190.363281 C 199.398438 190.035156 208.300781 195.359375 213.019531 207.800781 C 215.046875 199.265625 213.417969 192.589844 208.171875 186.84375 C 197.230469 174.855469 177.140625 175.15625 166.542969 187.480469 C 161.210938 193.683594 160.230469 200.734375 162.691406 209.101562 Z M 209.398438 217.0625 C 211.578125 210.96875 210.164062 204.578125 205.671875 200.003906 C 196.476562 190.636719 178.828125 190.800781 169.773438 200.335938 C 165.601562 204.726562 164.230469 211.199219 166.304688 216.894531 C 170.46875 207.273438 178.367188 203.207031 188.191406 203.265625 C 197.859375 203.320312 205.511719 207.507812 209.398438 217.0625 Z M 206.730469 224.738281 C 208.15625 216.828125 207.679688 213.769531 199.523438 208.828125 C 191.570312 204.011719 180.582031 205.125 173.316406 210.824219 C 168.628906 214.507812 167.535156 219.066406 168.992188 224.671875 C 181.574219 216.359375 194.007812 216.214844 206.730469 224.738281 Z M 170.332031 233.351562 C 182.25 223.757812 193.839844 223.828125 205.417969 233.957031 C 205.578125 233 205.671875 232.355469 205.792969 231.71875 C 206.609375 227.316406 206.636719 227.027344 202.710938 224.882812 C 192.765625 219.445312 182.660156 219.234375 172.851562 225.058594 C 167.816406 228.050781 168.492188 228.246094 170.332031 233.351562 Z M 172.960938 244.722656 C 182.964844 238.753906 192.851562 238.910156 202.757812 244.015625 C 203.933594 239.066406 203.890625 238.925781 199.929688 236.9375 C 193.914062 233.917969 187.597656 233.691406 181.152344 235.085938 C 177.671875 235.835938 174.484375 237.246094 171.882812 239.820312 C 172.21875 241.347656 172.527344 242.746094 172.960938 244.722656 Z M 174.625 251.023438 C 178.949219 248.582031 183.347656 247.53125 187.996094 247.429688 C 192.738281 247.328125 197.175781 248.699219 201.707031 250.507812 C 201.984375 249.601562 202.269531 249.011719 202.332031 248.398438 C 202.421875 247.503906 202.355469 246.59375 202.355469 245.445312 C 194.128906 240.699219 185.632812 240.199219 176.933594 244.050781 C 172.898438 245.832031 172.890625 246.191406 174.625 251.023438 Z M 171.632812 237.863281 C 182.441406 230.921875 193.144531 231.007812 203.941406 237.546875 C 204.75 234.664062 203.050781 233.265625 201.390625 232.050781 C 193.652344 226.382812 185.378906 226.207031 176.902344 230.109375 C 175.164062 230.910156 173.714844 232.367188 172.210938 233.617188 C 170.964844 234.648438 170.652344 235.980469 171.632812 237.863281 Z M 200.980469 258.695312 C 193.085938 253.09375 180.625 254.273438 175.671875 259.253906 C 175.9375 260.507812 176.242188 261.949219 176.59375 263.597656 C 184.652344 259.605469 192.390625 259.769531 200.546875 263.34375 C 200.722656 261.480469 200.847656 260.125 200.980469 258.695312 Z M 201.765625 252.253906 C 192.410156 247.453125 183.625 247.484375 174.757812 252.410156 C 174.84375 253.609375 174.875 254.515625 174.984375 255.414062 C 175.042969 255.894531 175.230469 256.359375 175.4375 257.105469 C 183.914062 252.769531 192.339844 252.417969 201.140625 257 C 201.371094 255.265625 201.550781 253.898438 201.765625 252.253906 Z M 200.035156 269.195312 C 200.035156 267.335938 200.035156 266.082031 200.035156 264.738281 C 192.097656 260.984375 184.460938 260.863281 176.660156 265.230469 C 177.011719 266.710938 177.296875 267.914062 177.644531 269.363281 C 185.082031 265.996094 192.324219 266.046875 200.035156 269.195312 Z M 199.605469 270.644531 C 192.242188 267.328125 185.1875 267.3125 177.890625 270.789062 C 178.082031 272.375 178.25 273.730469 178.449219 275.363281 C 185.5 272.957031 192.273438 272.402344 199.359375 275.3125 C 199.449219 273.617188 199.523438 272.242188 199.605469 270.644531 Z M 179.527344 281.175781 C 186.183594 279.25 192.492188 278.8125 199.066406 280.867188 C 199.066406 279.1875 199.066406 277.957031 199.066406 276.566406 C 192.269531 273.761719 185.726562 273.886719 178.796875 276.742188 C 179.039062 278.207031 179.257812 279.53125 179.527344 281.175781 Z M 180.453125 285.980469 C 186.855469 285.980469 192.628906 285.980469 198.621094 285.980469 C 198.621094 284.761719 198.621094 283.53125 198.621094 282.035156 C 192.191406 280.386719 186.039062 280.144531 179.730469 282.710938 C 180.039062 284.117188 180.285156 285.21875 180.453125 285.980469 Z M 181.480469 292.132812 C 187.449219 291.730469 193.019531 291.355469 199.359375 290.925781 C 198.566406 289.394531 198.226562 287.675781 197.480469 287.476562 C 191.949219 285.988281 186.410156 286.148438 180.742188 288.109375 C 180.992188 289.476562 181.199219 290.609375 181.480469 292.132812 Z M 182.660156 297.339844 C 188.46875 297.753906 193.949219 297.507812 199.484375 295.558594 C 199.148438 294.296875 198.886719 293.335938 198.542969 292.042969 C 192.9375 292.847656 187.382812 292.300781 181.671875 293.441406 C 182.089844 295.09375 182.367188 296.183594 182.660156 297.339844 Z M 230.386719 299.867188 C 223.511719 299.867188 219.03125 304.425781 218.953125 310.761719 C 221.578125 309.851562 224.242188 308.929688 227.007812 307.96875 C 228.058594 305.457031 229.15625 302.820312 230.386719 299.867188 Z M 183.058594 299.109375 C 183.460938 300.695312 183.476562 302.089844 185.316406 302.191406 C 190.46875 302.476562 195.488281 302.097656 200.292969 299.617188 C 200.007812 298.742188 199.777344 298.03125 199.566406 297.375 C 194.0625 297.953125 188.757812 298.507812 183.058594 299.109375 Z M 201.570312 303.472656 C 200.316406 301.207031 200.335938 301.28125 198.402344 301.707031 C 194.964844 302.464844 191.511719 303.148438 188.054688 303.792969 C 186.980469 303.992188 185.863281 303.960938 184.785156 304.035156 C 184.863281 306.238281 186.089844 306.726562 187.6875 306.828125 C 192.667969 307.148438 197.226562 305.84375 201.570312 303.472656 Z M 202.417969 305.085938 C 197.132812 306.582031 192.105469 308.003906 187.15625 309.402344 C 191.246094 312.160156 198.277344 310.90625 203.269531 306.355469 C 202.9375 305.855469 202.585938 305.335938 202.417969 305.085938 Z M 205.089844 309.878906 C 204.304688 307.542969 203.195312 308.410156 202.207031 308.929688 C 198.363281 310.945312 194.390625 312.554688 190.039062 313.089844 C 189.785156 313.125 189.570312 313.457031 188.960938 313.964844 C 195.515625 316.085938 200.109375 312.675781 205.089844 309.878906 Z M 192.496094 317.703125 C 197.492188 319.097656 206.09375 314.9375 206.125 310.789062 C 201.5 313.136719 196.953125 315.441406 192.496094 317.703125 Z M 196.214844 321.078125 C 200.5625 321.554688 205.808594 318.242188 208.660156 312.550781 C 204.082031 315.6875 200.203125 318.34375 196.214844 321.078125 Z M 211.191406 320.316406 C 212.492188 319.734375 213.585938 318.867188 213.382812 316.578125 C 212.402344 318.25 211.796875 319.285156 211.191406 320.316406 Z M 211.191406 320.316406 " fill-opacity="1" fill-rule="nonzero"/></g><path fill="#8a2be2" d="M 215.582031 179.117188 C 208.929688 168.652344 198.917969 165.683594 187.488281 165.765625 C 176.007812 165.851562 166.152344 169.257812 159.671875 179.59375 C 159.46875 179.4375 159.261719 179.28125 159.058594 179.125 C 160.09375 177.234375 160.941406 175.207031 162.199219 173.480469 C 164.890625 169.777344 168.574219 167.300781 172.84375 165.699219 C 182.550781 162.058594 192.351562 161.90625 202.085938 165.386719 C 207.929688 167.476562 212.726562 171.03125 215.367188 176.929688 C 215.527344 177.285156 215.703125 177.648438 215.78125 178.023438 C 215.828125 178.25 215.703125 178.515625 215.582031 179.117188 Z M 215.582031 179.117188 " fill-opacity="1" fill-rule="nonzero"/><path fill="#8a2be2" d="M 161.496094 162.441406 C 161.75 161.921875 161.9375 161.351562 162.265625 160.886719 C 164.679688 157.476562 167.886719 154.988281 171.722656 153.457031 C 181.84375 149.417969 192.128906 148.976562 202.425781 152.738281 C 207.871094 154.726562 212.320312 158.042969 214.722656 163.722656 C 210.261719 158.820312 204.894531 155.496094 198.441406 154.128906 C 191.960938 152.753906 185.453125 152.691406 178.925781 153.882812 C 172.34375 155.085938 166.714844 158.113281 161.496094 162.441406 Z M 161.496094 162.441406 " fill-opacity="1" fill-rule="nonzero"/><path fill="#8a2be2" d="M 224.039062 173.820312 C 215.144531 163.0625 213.550781 142.183594 220.742188 130.285156 C 218.804688 145.4375 220.289062 159.726562 224.039062 173.820312 Z M 224.039062 173.820312 " fill-opacity="1" fill-rule="nonzero"/><path fill="#8a2be2" d="M 154.949219 130.757812 C 160.984375 140.878906 161.34375 161.414062 151.265625 173.996094 C 152.421875 168.683594 153.664062 164.148438 154.34375 159.53125 C 155.023438 154.875 155.363281 150.140625 155.449219 145.433594 C 155.539062 140.609375 155.140625 135.777344 154.949219 130.757812 Z M 154.949219 130.757812 " fill-opacity="1" fill-rule="nonzero"/><path fill="#8a2be2" d="M 223.492188 71.300781 C 225.582031 85.429688 228.175781 90.804688 240.304688 106.464844 C 229.226562 103.925781 219.070312 83.148438 223.492188 71.300781 Z M 223.492188 71.300781 " fill-opacity="1" fill-rule="nonzero"/><path fill="#8a2be2" d="M 133.425781 107.621094 C 144.210938 97.566406 150.105469 85.835938 151.957031 71.359375 C 156.300781 83.972656 147.003906 102.167969 133.425781 107.621094 Z M 133.425781 107.621094 " fill-opacity="1" fill-rule="nonzero"/><path fill="#8a2be2" d="M 237.796875 123.40625 C 237.480469 124.761719 236.910156 126.035156 236.933594 127.300781 C 237.035156 132.777344 233.277344 136.449219 227.855469 135.832031 C 227.117188 135.746094 226.46875 134.902344 225.453125 134.175781 C 226.035156 132.199219 226.4375 129.847656 227.394531 127.753906 C 229.5625 123.015625 233.332031 121.664062 237.796875 123.40625 Z M 235.40625 127.203125 C 235.316406 127.207031 235.226562 127.210938 235.132812 127.214844 C 235.132812 128.042969 235.132812 128.867188 235.132812 129.691406 C 235.226562 129.683594 235.316406 129.675781 235.40625 129.667969 C 235.40625 128.84375 235.40625 128.023438 235.40625 127.203125 Z M 230.054688 133.878906 C 230.105469 134.011719 230.15625 134.148438 230.207031 134.285156 C 231.046875 133.96875 231.886719 133.652344 232.726562 133.335938 C 232.664062 133.171875 232.601562 133.007812 232.539062 132.84375 C 231.710938 133.1875 230.882812 133.53125 230.054688 133.878906 Z M 230.054688 133.878906 " fill-opacity="1" fill-rule="nonzero"/><path fill="#8a2be2" d="M 136.410156 123.847656 C 139.8125 121.761719 142.886719 122.203125 145.574219 124.839844 C 148.117188 127.339844 149.179688 130.585938 149.648438 133.960938 C 149.777344 134.882812 148.199219 135.605469 147.242188 135.777344 C 146.296875 135.945312 145.222656 135.410156 144.207031 135.171875 C 139.4375 134.066406 138.105469 132.382812 138.230469 127.539062 C 138.265625 126.152344 138.894531 124.582031 136.410156 123.847656 Z M 139.9375 126.855469 C 139.394531 131.902344 140.507812 133.261719 145.636719 134.007812 C 141.847656 133.089844 140.125 130.574219 139.9375 126.855469 Z M 139.9375 126.855469 " fill-opacity="1" fill-rule="nonzero"/><path fill="#8a2be2" d="M 165.652344 137.828125 C 178.804688 127.496094 197.074219 127.152344 210.605469 137.980469 C 203.457031 134.679688 196.074219 132.472656 188.128906 132.507812 C 180.238281 132.542969 172.835938 134.417969 165.652344 137.828125 Z M 165.652344 137.828125 " fill-opacity="1" fill-rule="nonzero"/><path fill="#8a2be2" d="M 167.410156 146.023438 C 176.65625 133.679688 199.503906 133.160156 209.644531 147.421875 C 203.648438 142.371094 196.949219 139.183594 188.988281 138.902344 C 180.894531 138.617188 173.894531 141.335938 167.410156 146.023438 Z M 167.410156 146.023438 " fill-opacity="1" fill-rule="nonzero"/><path fill="#8a2be2" d="M 174.527344 115.988281 C 181.53125 111.476562 194.226562 111.308594 201.375 116.117188 C 192.15625 114.238281 183.398438 114.046875 174.527344 115.988281 Z M 174.527344 115.988281 " fill-opacity="1" fill-rule="nonzero"/><path fill="#8a2be2" d="M 138.3125 114.492188 C 141.027344 115.335938 143.785156 116.070312 146.449219 117.050781 C 150.253906 118.449219 151.851562 121.414062 151.75 125.347656 C 151.707031 126.859375 151.441406 128.359375 151.273438 129.902344 C 149.710938 126.546875 148.804688 122.917969 146.617188 120.402344 C 144.507812 117.976562 141.074219 116.699219 138.222656 114.914062 C 138.253906 114.773438 138.28125 114.632812 138.3125 114.492188 Z M 138.3125 114.492188 " fill-opacity="1" fill-rule="nonzero"/><path fill="#8a2be2" d="M 237.316406 115.113281 C 230.238281 117.398438 225.386719 121.640625 224.675781 129.59375 C 224.414062 129.492188 224.148438 129.394531 223.886719 129.296875 C 223.886719 126.9375 223.726562 124.5625 223.9375 122.222656 C 224.113281 120.292969 225.445312 118.945312 227.101562 117.949219 C 230.191406 116.09375 233.5625 115.222656 237.316406 115.113281 Z M 237.316406 115.113281 " fill-opacity="1" fill-rule="nonzero"/></svg>