<svg xmlns="http://www.w3.org/2000/svg" xmlns:xlink="http://www.w3.org/1999/xlink" width="250" zoomAndPan="magnify" viewBox="0 0 187.5 112.499997" height="150" preserveAspectRatio="xMidYMid meet" version="1.0"><defs><g/><clipPath id="6d6df3b85e"><path d="M 51.609375 5.339844 L 135.238281 5.339844 L 135.238281 85.234375 L 51.609375 85.234375 Z M 51.609375 5.339844 " clip-rule="nonzero"/></clipPath></defs><g clip-path="url(#6d6df3b85e)"><path fill="#8a2be2" d="M 102.9375 51.941406 C 101.945312 52.277344 101.617188 52.921875 101.433594 53.804688 C 100.265625 59.378906 99.292969 64.988281 99.03125 70.6875 C 98.953125 72.316406 99.164062 73.96875 99.347656 75.597656 C 99.457031 76.597656 99.792969 77.125 100.324219 77.792969 C 100.566406 77.203125 100.753906 76.578125 101.0625 76.019531 C 101.921875 74.457031 103.5625 73.761719 105.144531 74.261719 C 105.480469 74.367188 105.8125 74.53125 106.097656 74.734375 C 106.695312 75.15625 106.777344 75.527344 106.515625 76.222656 C 106.199219 77.058594 105.875 77.890625 105.566406 78.730469 C 105.46875 79 105.398438 79.28125 105.359375 79.5625 C 104.941406 82.449219 102.46875 84.769531 99.570312 85.019531 C 96.542969 85.277344 94.222656 84.007812 92.378906 81.726562 C 91.28125 80.371094 90.484375 78.832031 90.101562 77.140625 C 89.46875 74.316406 88.9375 71.46875 88.398438 68.621094 C 87.460938 63.664062 86.527344 58.707031 85.65625 53.738281 C 85.492188 52.800781 85.066406 52.257812 84.160156 51.945312 C 84.054688 52.136719 83.914062 52.332031 83.828125 52.550781 C 82.378906 56.296875 81.160156 60.109375 80.554688 64.09375 C 80.242188 66.144531 80.328125 68.160156 80.984375 70.140625 C 81.144531 70.617188 81.308594 71.09375 81.40625 71.582031 C 81.574219 72.410156 80.988281 72.996094 80.226562 72.667969 C 79.558594 72.382812 78.914062 71.921875 78.402344 71.402344 C 77.253906 70.230469 76.539062 68.78125 76.125 67.195312 C 75.378906 64.332031 75.457031 61.4375 76.03125 58.570312 C 76.425781 56.574219 77.027344 54.617188 77.539062 52.644531 C 77.628906 52.304688 77.738281 51.96875 77.863281 51.542969 C 77.558594 51.542969 77.320312 51.523438 77.089844 51.546875 C 74.695312 51.816406 72.632812 51.128906 70.933594 49.40625 C 70.65625 49.128906 70.375 48.847656 70.128906 48.542969 C 69.5625 47.859375 68.859375 47.382812 68.003906 47.160156 C 66.234375 46.691406 64.832031 45.675781 63.726562 44.257812 C 62.691406 42.933594 61.433594 41.933594 59.9375 41.160156 C 59.027344 40.691406 58.1875 40.046875 57.394531 39.390625 C 56.605469 38.738281 56.128906 37.851562 55.917969 36.832031 C 55.453125 34.589844 54.214844 33.695312 51.941406 33.9375 C 51.875 33.945312 51.804688 33.929688 51.644531 33.914062 C 51.644531 33.757812 51.609375 33.585938 51.652344 33.433594 C 53.070312 28.167969 54.785156 23.011719 57.445312 18.222656 C 59.144531 15.164062 61.199219 12.382812 63.839844 10.058594 C 67.71875 6.640625 72.261719 5.34375 77.363281 5.785156 C 79.4375 5.96875 81.480469 6.296875 83.464844 6.949219 C 83.804688 7.058594 84.171875 7.132812 84.46875 7.320312 C 85.535156 8.003906 86.578125 7.953125 87.804688 7.648438 C 92.015625 6.605469 96.242188 6.703125 100.433594 7.90625 C 100.738281 7.992188 101.15625 7.96875 101.433594 7.824219 C 103.511719 6.777344 105.742188 6.292969 108.015625 5.964844 C 110.65625 5.585938 113.300781 5.546875 115.917969 6.164062 C 119.183594 6.933594 121.910156 8.648438 124.261719 11.003906 C 126.714844 13.464844 128.613281 16.316406 130.179688 19.398438 C 132.445312 23.855469 134.03125 28.5625 135.292969 33.386719 C 135.335938 33.546875 135.351562 33.714844 135.390625 33.945312 C 134.992188 33.914062 134.679688 33.875 134.367188 33.863281 C 132.757812 33.820312 131.40625 34.851562 131.152344 36.4375 C 130.894531 38.03125 130.066406 39.222656 128.796875 40.132812 C 128.160156 40.59375 127.488281 41.011719 126.792969 41.378906 C 125.570312 42.027344 124.519531 42.859375 123.65625 43.941406 C 123.257812 44.445312 122.800781 44.90625 122.339844 45.355469 C 121.589844 46.09375 120.722656 46.671875 119.707031 46.960938 C 118.390625 47.339844 117.292969 48.023438 116.425781 49.085938 C 116.269531 49.28125 116.078125 49.445312 115.894531 49.617188 C 114.289062 51.140625 112.371094 51.75 110.1875 51.570312 C 109.9375 51.550781 109.6875 51.519531 109.4375 51.503906 C 109.375 51.5 109.308594 51.554688 109.195312 51.601562 C 109.523438 52.691406 109.859375 53.777344 110.171875 54.875 C 111.078125 58.0625 111.601562 61.304688 111.355469 64.632812 C 111.175781 67.082031 110.460938 69.351562 108.808594 71.222656 C 108.347656 71.75 107.734375 72.152344 107.152344 72.554688 C 106.789062 72.808594 106.335938 72.871094 105.945312 72.578125 C 105.539062 72.269531 105.5625 71.84375 105.714844 71.40625 C 105.773438 71.238281 105.792969 71.054688 105.855469 70.886719 C 106.761719 68.511719 106.871094 66.074219 106.429688 63.59375 C 105.714844 59.59375 104.480469 55.753906 102.9375 51.941406 Z M 99.722656 80.5625 C 99.683594 80.386719 99.644531 80.207031 99.578125 79.914062 C 98.664062 80.78125 97.859375 81.546875 96.890625 82.46875 C 97.769531 82.242188 98.300781 81.851562 98.792969 81.390625 C 99.078125 81.125 99.382812 80.882812 99.675781 80.632812 C 99.257812 81.25 98.835938 81.863281 98.414062 82.480469 C 99.316406 82.050781 99.777344 81.292969 100.324219 80.273438 C 99.960938 80.449219 99.84375 80.503906 99.722656 80.5625 Z M 105.394531 11.800781 C 105.796875 12.394531 106.050781 12.78125 106.3125 13.15625 C 107.394531 14.707031 108.773438 15.347656 110.675781 14.75 C 111.65625 14.441406 112.695312 14.285156 113.722656 14.144531 C 115.980469 13.835938 118.0625 14.34375 119.945312 15.632812 C 120.125 15.757812 120.265625 15.945312 120.515625 16.191406 C 119.039062 16.191406 117.714844 16.15625 116.394531 16.199219 C 114.585938 16.257812 113.171875 17.070312 112.191406 18.59375 C 111.476562 19.707031 110.785156 20.832031 110.082031 21.960938 C 110.738281 23.492188 111.265625 25.050781 111.320312 26.722656 C 111.375 28.449219 110.582031 29.964844 110.023438 31.519531 C 112.136719 33.304688 113.949219 35.222656 114.859375 37.8125 C 115.765625 40.40625 115.433594 43.023438 114.882812 45.679688 C 116.398438 44.503906 117.660156 43.136719 118.546875 41.445312 C 119.457031 39.699219 119.769531 37.863281 119.363281 35.90625 C 120.851562 37.664062 121.242188 39.65625 120.746094 42.085938 C 121.472656 41.453125 121.832031 40.894531 122.109375 40.28125 C 122.832031 38.679688 123.066406 36.996094 122.875 35.25 C 122.628906 32.984375 121.710938 30.984375 120.484375 29.101562 C 120.265625 28.761719 120.054688 28.417969 119.835938 28.078125 C 122.898438 30.261719 125.164062 32.984375 125.835938 36.832031 C 127.660156 35.070312 128.066406 33.5625 127.378906 31.320312 C 126.898438 29.75 126.039062 28.398438 125.007812 27.144531 C 124.695312 26.765625 124.378906 26.394531 124.0625 26.019531 C 126.941406 27.105469 129.207031 28.996094 131.15625 31.398438 C 131.761719 30.726562 131.648438 30.054688 131.519531 29.460938 C 131.066406 27.367188 130.679688 25.242188 130.023438 23.207031 C 128.523438 18.574219 126.113281 14.460938 122.527344 11.097656 C 119.347656 8.117188 115.609375 6.609375 111.222656 6.710938 C 108.265625 6.78125 105.390625 7.273438 102.578125 8.183594 C 102.222656 8.296875 101.929688 8.378906 101.84375 8.828125 C 101.820312 8.960938 101.375 9.117188 101.152344 9.082031 C 100.699219 9.007812 100.273438 8.789062 99.824219 8.671875 C 95.355469 7.484375 90.90625 7.542969 86.476562 8.890625 C 86.171875 8.984375 85.859375 9.066406 85.546875 9.125 C 85.457031 9.144531 85.347656 9.074219 85.214844 9.03125 C 85.148438 8.804688 85.082031 8.574219 84.988281 8.261719 C 83.699219 7.929688 82.398438 7.539062 81.070312 7.265625 C 78.566406 6.746094 76.035156 6.546875 73.484375 6.824219 C 69.882812 7.214844 66.890625 8.878906 64.316406 11.351562 C 60.078125 15.414062 57.492188 20.410156 56.125 26.066406 C 55.808594 27.382812 55.640625 28.742188 55.449219 30.085938 C 55.386719 30.519531 55.378906 31.015625 55.945312 31.296875 C 57.878906 28.984375 60.101562 27.085938 62.910156 25.949219 C 62.566406 26.507812 62.152344 26.984375 61.765625 27.484375 C 60.65625 28.914062 59.765625 30.445312 59.429688 32.261719 C 59.082031 34.152344 59.855469 35.570312 61.253906 36.890625 C 61.90625 32.964844 64.121094 30.199219 67.160156 27.992188 C 66.960938 28.480469 66.679688 28.917969 66.398438 29.351562 C 65.253906 31.113281 64.417969 33 64.160156 35.105469 C 63.914062 37.113281 64.179688 39.039062 65.210938 40.808594 C 65.441406 41.207031 65.777344 41.542969 66.203125 42.082031 C 65.929688 38.941406 66.398438 37.125 67.699219 36.046875 C 67.058594 40.25 69.144531 43.148438 72.199219 45.660156 C 70.464844 39.765625 72.316406 35.136719 77.082031 31.53125 C 76.890625 31.070312 76.75 30.707031 76.585938 30.355469 C 75.617188 28.273438 75.523438 26.148438 76.273438 23.984375 C 76.460938 23.441406 76.6875 22.914062 76.832031 22.363281 C 76.898438 22.121094 76.902344 21.785156 76.78125 21.582031 C 76.1875 20.558594 75.5625 19.558594 74.917969 18.566406 C 74.023438 17.191406 72.742188 16.382812 71.117188 16.234375 C 70.015625 16.128906 68.902344 16.164062 67.792969 16.148438 C 67.414062 16.144531 67.035156 16.183594 66.667969 16.199219 C 66.65625 16.085938 66.632812 16.035156 66.648438 16.019531 C 66.71875 15.9375 66.792969 15.859375 66.878906 15.796875 C 68.402344 14.699219 70.097656 13.984375 71.976562 14.097656 C 73.574219 14.195312 75.167969 14.484375 76.734375 14.824219 C 78.226562 15.144531 79.421875 14.8125 80.394531 13.65625 C 80.667969 13.328125 80.910156 12.96875 81.175781 12.632812 C 81.308594 12.464844 81.457031 12.3125 81.675781 12.058594 C 81.773438 13.746094 81.507812 15.234375 80.9375 16.628906 C 80.328125 18.113281 79.554688 19.53125 78.863281 20.984375 C 78.375 22.015625 77.851562 23.039062 77.4375 24.101562 C 76.867188 25.558594 76.863281 27.070312 77.484375 28.503906 C 78.039062 29.777344 78.738281 30.988281 79.390625 32.21875 C 79.996094 33.355469 80.625 34.480469 81.238281 35.609375 C 81.363281 35.835938 81.460938 36.074219 81.675781 36.523438 C 82.035156 35.246094 82.332031 34.199219 82.628906 33.148438 C 82.78125 33.773438 82.824219 34.378906 82.769531 34.976562 C 82.703125 35.652344 82.613281 36.335938 82.421875 36.980469 C 81.585938 39.792969 80.703125 42.589844 79.84375 45.394531 C 79.734375 45.746094 79.640625 46.101562 79.511719 46.550781 C 80.566406 46.390625 81.519531 46.253906 82.222656 46.933594 C 82.875 47.566406 83.378906 48.351562 83.972656 49.105469 C 83.582031 46.539062 83.664062 44.9375 84.273438 43.542969 C 84.59375 44.769531 84.621094 46.035156 85.246094 47.183594 C 85.375 46.449219 85.492188 45.796875 85.605469 45.144531 C 85.648438 45.152344 85.691406 45.164062 85.734375 45.171875 C 85.828125 45.828125 85.917969 46.480469 86.027344 47.265625 C 87.953125 43.464844 90.125 41.949219 93.632812 41.996094 C 97.246094 42.042969 99.683594 43.839844 101.144531 47.207031 C 101.203125 46.503906 101.261719 45.800781 101.324219 45.09375 C 101.371094 45.089844 101.414062 45.085938 101.460938 45.082031 C 101.613281 45.691406 101.761719 46.296875 101.914062 46.902344 C 101.980469 46.898438 102.046875 46.890625 102.109375 46.882812 C 102.34375 45.769531 102.574219 44.660156 102.84375 43.355469 C 103.433594 45.257812 103.539062 46.996094 103.257812 48.800781 C 103.59375 48.480469 103.839844 48.148438 104.046875 47.789062 C 104.636719 46.78125 105.542969 46.398438 106.664062 46.441406 C 106.976562 46.457031 107.285156 46.515625 107.65625 46.5625 C 107.46875 45.988281 107.296875 45.480469 107.140625 44.96875 C 106.296875 42.234375 105.433594 39.507812 104.625 36.761719 C 104.296875 35.640625 104.183594 34.480469 104.476562 33.285156 C 104.773438 34.285156 105.070312 35.28125 105.371094 36.292969 C 106.613281 34.121094 107.828125 32.027344 109.007812 29.910156 C 109.304688 29.382812 109.492188 28.796875 109.703125 28.226562 C 110.175781 26.933594 110.226562 25.617188 109.726562 24.335938 C 109.273438 23.171875 108.738281 22.039062 108.203125 20.910156 C 107.589844 19.621094 106.871094 18.375 106.316406 17.058594 C 105.648438 15.46875 105.269531 13.792969 105.394531 11.800781 Z M 103.617188 51.105469 C 103.78125 51.527344 103.933594 51.886719 104.058594 52.257812 C 105.027344 55.097656 106.078125 57.910156 106.929688 60.785156 C 107.691406 63.371094 107.976562 66.046875 107.484375 68.742188 C 107.328125 69.609375 107.078125 70.464844 106.8125 71.574219 C 107.28125 71.167969 107.589844 70.9375 107.855469 70.664062 C 108.617188 69.878906 109.089844 68.917969 109.433594 67.890625 C 110.335938 65.179688 110.363281 62.40625 109.972656 59.617188 C 109.429688 55.707031 108.320312 51.9375 107.027344 48.21875 C 106.929688 47.929688 106.777344 47.65625 106.621094 47.300781 C 105.175781 48.277344 104.578125 49.78125 103.617188 51.105469 Z M 80.058594 71.363281 C 79.8125 69.765625 79.476562 68.261719 79.371094 66.738281 C 79.210938 64.394531 79.625 62.085938 80.34375 59.863281 C 81.214844 57.175781 82.199219 54.527344 83.160156 51.871094 C 83.34375 51.363281 83.417969 50.960938 83.046875 50.488281 C 82.582031 49.898438 82.257812 49.203125 81.804688 48.605469 C 81.449219 48.136719 80.996094 47.742188 80.476562 47.203125 C 80.25 47.738281 80.070312 48.082031 79.957031 48.449219 C 79.234375 50.808594 78.464844 53.15625 77.835938 55.542969 C 77.042969 58.535156 76.660156 61.585938 76.960938 64.691406 C 77.117188 66.304688 77.484375 67.871094 78.246094 69.316406 C 78.6875 70.144531 79.230469 70.886719 80.058594 71.363281 Z M 86.730469 51.203125 C 87.691406 47.625 90.136719 46.183594 93.449219 46.09375 C 96.746094 46.003906 99.175781 47.457031 100.460938 50.851562 C 101.015625 48.519531 100.570312 46.699219 99.140625 45.132812 C 96.152344 41.859375 90.671875 41.941406 87.78125 45.304688 C 86.324219 46.996094 86.058594 48.921875 86.730469 51.203125 Z M 99.472656 53.378906 C 100.070312 51.714844 99.683594 49.972656 98.457031 48.722656 C 95.949219 46.167969 91.132812 46.210938 88.660156 48.8125 C 87.523438 50.011719 87.148438 51.777344 87.714844 53.332031 C 88.851562 50.707031 91.007812 49.597656 93.6875 49.613281 C 96.328125 49.628906 98.414062 50.769531 99.472656 53.378906 Z M 98.746094 55.472656 C 99.136719 53.3125 99.003906 52.480469 96.78125 51.132812 C 94.609375 49.816406 91.613281 50.121094 89.628906 51.675781 C 88.347656 52.679688 88.050781 53.925781 88.449219 55.453125 C 91.882812 53.183594 95.273438 53.144531 98.746094 55.472656 Z M 88.816406 57.824219 C 92.066406 55.203125 95.230469 55.222656 98.386719 57.988281 C 98.433594 57.726562 98.457031 57.550781 98.492188 57.375 C 98.714844 56.175781 98.71875 56.097656 97.648438 55.511719 C 94.933594 54.027344 92.179688 53.96875 89.503906 55.558594 C 88.128906 56.375 88.3125 56.429688 88.816406 57.824219 Z M 89.53125 60.925781 C 92.261719 59.296875 94.960938 59.339844 97.664062 60.734375 C 97.984375 59.382812 97.972656 59.34375 96.890625 58.800781 C 95.25 57.976562 93.527344 57.914062 91.765625 58.296875 C 90.816406 58.5 89.949219 58.882812 89.238281 59.585938 C 89.328125 60.003906 89.414062 60.386719 89.53125 60.925781 Z M 89.984375 62.644531 C 91.164062 61.976562 92.367188 61.691406 93.632812 61.664062 C 94.929688 61.636719 96.140625 62.011719 97.375 62.503906 C 97.453125 62.257812 97.527344 62.09375 97.546875 61.929688 C 97.570312 61.683594 97.550781 61.4375 97.550781 61.121094 C 95.308594 59.828125 92.988281 59.691406 90.617188 60.742188 C 89.515625 61.226562 89.511719 61.324219 89.984375 62.644531 Z M 89.167969 59.054688 C 92.117188 57.160156 95.039062 57.183594 97.984375 58.96875 C 98.207031 58.179688 97.742188 57.796875 97.289062 57.46875 C 95.175781 55.921875 92.921875 55.875 90.605469 56.9375 C 90.132812 57.15625 89.738281 57.554688 89.328125 57.894531 C 88.988281 58.175781 88.902344 58.539062 89.167969 59.054688 Z M 97.179688 64.738281 C 95.023438 63.207031 91.621094 63.53125 90.269531 64.890625 C 90.34375 65.234375 90.425781 65.625 90.523438 66.074219 C 92.722656 64.988281 94.832031 65.03125 97.058594 66.003906 C 97.105469 65.5 97.140625 65.128906 97.179688 64.738281 Z M 97.390625 62.980469 C 94.839844 61.671875 92.441406 61.679688 90.023438 63.023438 C 90.046875 63.351562 90.054688 63.597656 90.082031 63.84375 C 90.101562 63.972656 90.152344 64.101562 90.207031 64.304688 C 92.519531 63.121094 94.820312 63.023438 97.222656 64.277344 C 97.285156 63.800781 97.332031 63.429688 97.390625 62.980469 Z M 96.921875 67.601562 C 96.921875 67.097656 96.921875 66.753906 96.921875 66.386719 C 94.753906 65.363281 92.667969 65.328125 90.539062 66.519531 C 90.636719 66.925781 90.714844 67.253906 90.808594 67.648438 C 92.839844 66.730469 94.816406 66.746094 96.921875 67.601562 Z M 96.800781 68 C 94.792969 67.09375 92.867188 67.089844 90.875 68.039062 C 90.929688 68.46875 90.976562 68.839844 91.027344 69.285156 C 92.953125 68.628906 94.800781 68.476562 96.734375 69.273438 C 96.757812 68.808594 96.78125 68.433594 96.800781 68 Z M 91.324219 70.871094 C 93.140625 70.347656 94.859375 70.226562 96.65625 70.789062 C 96.65625 70.328125 96.65625 69.992188 96.65625 69.613281 C 94.800781 68.847656 93.015625 68.882812 91.125 69.664062 C 91.191406 70.0625 91.25 70.421875 91.324219 70.871094 Z M 91.574219 72.183594 C 93.324219 72.183594 94.898438 72.183594 96.535156 72.183594 C 96.535156 71.851562 96.535156 71.515625 96.535156 71.105469 C 94.777344 70.65625 93.101562 70.589844 91.378906 71.289062 C 91.464844 71.675781 91.53125 71.976562 91.574219 72.183594 Z M 91.855469 73.863281 C 93.484375 73.753906 95.003906 73.648438 96.734375 73.53125 C 96.519531 73.113281 96.425781 72.644531 96.222656 72.589844 C 94.710938 72.1875 93.203125 72.230469 91.65625 72.765625 C 91.722656 73.136719 91.78125 73.445312 91.855469 73.863281 Z M 92.179688 75.28125 C 93.761719 75.394531 95.257812 75.328125 96.769531 74.796875 C 96.675781 74.453125 96.605469 74.191406 96.511719 73.835938 C 94.984375 74.058594 93.46875 73.910156 91.910156 74.21875 C 92.023438 74.667969 92.097656 74.96875 92.179688 75.28125 Z M 105.203125 75.972656 C 103.324219 75.972656 102.101562 77.214844 102.082031 78.945312 C 102.796875 78.695312 103.523438 78.445312 104.28125 78.183594 C 104.566406 77.496094 104.867188 76.777344 105.203125 75.972656 Z M 92.285156 75.765625 C 92.398438 76.199219 92.402344 76.578125 92.902344 76.605469 C 94.308594 76.683594 95.679688 76.582031 96.988281 75.90625 C 96.914062 75.664062 96.847656 75.472656 96.792969 75.292969 C 95.289062 75.449219 93.84375 75.601562 92.285156 75.765625 Z M 97.339844 76.957031 C 96.996094 76.339844 97 76.359375 96.472656 76.476562 C 95.535156 76.679688 94.59375 76.867188 93.648438 77.042969 C 93.355469 77.097656 93.050781 77.089844 92.757812 77.109375 C 92.78125 77.710938 93.113281 77.84375 93.550781 77.871094 C 94.910156 77.960938 96.152344 77.601562 97.339844 76.957031 Z M 97.570312 77.398438 C 96.128906 77.804688 94.753906 78.191406 93.40625 78.574219 C 94.519531 79.328125 96.4375 78.984375 97.800781 77.742188 C 97.710938 77.605469 97.617188 77.464844 97.570312 77.398438 Z M 98.300781 78.703125 C 98.085938 78.066406 97.78125 78.304688 97.511719 78.445312 C 96.464844 78.996094 95.378906 79.433594 94.191406 79.582031 C 94.121094 79.589844 94.0625 79.679688 93.898438 79.820312 C 95.6875 80.398438 96.9375 79.46875 98.300781 78.703125 Z M 94.863281 80.839844 C 96.226562 81.21875 98.574219 80.085938 98.582031 78.953125 C 97.320312 79.59375 96.078125 80.222656 94.863281 80.839844 Z M 95.875 81.761719 C 97.0625 81.890625 98.496094 80.984375 99.273438 79.433594 C 98.023438 80.289062 96.964844 81.015625 95.875 81.761719 Z M 99.964844 81.554688 C 100.320312 81.394531 100.617188 81.15625 100.5625 80.53125 C 100.292969 80.988281 100.128906 81.269531 99.964844 81.554688 Z M 99.964844 81.554688 " fill-opacity="1" fill-rule="nonzero"/></g><path fill="#8a2be2" d="M 101.160156 43.023438 C 99.347656 40.167969 96.613281 39.355469 93.496094 39.378906 C 90.363281 39.402344 87.671875 40.332031 85.90625 43.152344 C 85.851562 43.109375 85.792969 43.070312 85.738281 43.027344 C 86.019531 42.507812 86.25 41.957031 86.59375 41.484375 C 87.328125 40.476562 88.335938 39.800781 89.5 39.363281 C 92.148438 38.367188 94.824219 38.328125 97.480469 39.277344 C 99.074219 39.847656 100.382812 40.816406 101.101562 42.425781 C 101.148438 42.523438 101.195312 42.621094 101.214844 42.726562 C 101.230469 42.785156 101.195312 42.859375 101.160156 43.023438 Z M 101.160156 43.023438 " fill-opacity="1" fill-rule="nonzero"/><path fill="#8a2be2" d="M 86.402344 38.472656 C 86.472656 38.332031 86.523438 38.175781 86.613281 38.050781 C 87.273438 37.117188 88.148438 36.4375 89.195312 36.019531 C 91.957031 34.917969 94.761719 34.800781 97.570312 35.824219 C 99.058594 36.367188 100.273438 37.273438 100.929688 38.824219 C 99.710938 37.484375 98.246094 36.578125 96.484375 36.203125 C 94.714844 35.828125 92.941406 35.8125 91.160156 36.136719 C 89.363281 36.464844 87.828125 37.292969 86.402344 38.472656 Z M 86.402344 38.472656 " fill-opacity="1" fill-rule="nonzero"/><path fill="#8a2be2" d="M 103.46875 41.578125 C 101.042969 38.644531 100.609375 32.945312 102.570312 29.699219 C 102.042969 33.832031 102.445312 37.730469 103.46875 41.578125 Z M 103.46875 41.578125 " fill-opacity="1" fill-rule="nonzero"/><path fill="#8a2be2" d="M 84.617188 29.828125 C 86.261719 32.589844 86.359375 38.191406 83.613281 41.625 C 83.925781 40.175781 84.265625 38.9375 84.453125 37.679688 C 84.636719 36.410156 84.730469 35.117188 84.753906 33.832031 C 84.777344 32.515625 84.667969 31.195312 84.617188 29.828125 Z M 84.617188 29.828125 " fill-opacity="1" fill-rule="nonzero"/><path fill="#8a2be2" d="M 103.320312 13.605469 C 103.890625 17.460938 104.597656 18.925781 107.90625 23.199219 C 104.886719 22.507812 102.113281 16.835938 103.320312 13.605469 Z M 103.320312 13.605469 " fill-opacity="1" fill-rule="nonzero"/><path fill="#8a2be2" d="M 78.746094 23.515625 C 81.6875 20.769531 83.296875 17.570312 83.800781 13.617188 C 84.984375 17.0625 82.449219 22.027344 78.746094 23.515625 Z M 78.746094 23.515625 " fill-opacity="1" fill-rule="nonzero"/><path fill="#8a2be2" d="M 107.222656 27.820312 C 107.136719 28.191406 106.980469 28.539062 106.988281 28.882812 C 107.015625 30.378906 105.988281 31.378906 104.511719 31.210938 C 104.308594 31.1875 104.132812 30.957031 103.855469 30.761719 C 104.015625 30.21875 104.125 29.578125 104.386719 29.007812 C 104.976562 27.714844 106.003906 27.347656 107.222656 27.820312 Z M 106.570312 28.859375 C 106.546875 28.859375 106.523438 28.859375 106.496094 28.859375 C 106.496094 29.085938 106.496094 29.3125 106.496094 29.535156 C 106.523438 29.535156 106.546875 29.53125 106.570312 29.53125 C 106.570312 29.304688 106.570312 29.082031 106.570312 28.859375 Z M 105.109375 30.679688 C 105.125 30.714844 105.136719 30.753906 105.152344 30.789062 C 105.382812 30.703125 105.609375 30.617188 105.839844 30.53125 C 105.824219 30.484375 105.804688 30.441406 105.789062 30.398438 C 105.5625 30.492188 105.335938 30.585938 105.109375 30.679688 Z M 105.109375 30.679688 " fill-opacity="1" fill-rule="nonzero"/><path fill="#8a2be2" d="M 79.558594 27.941406 C 80.488281 27.375 81.324219 27.492188 82.058594 28.214844 C 82.753906 28.894531 83.042969 29.78125 83.171875 30.703125 C 83.207031 30.953125 82.773438 31.148438 82.515625 31.195312 C 82.257812 31.242188 81.960938 31.097656 81.683594 31.03125 C 80.382812 30.730469 80.019531 30.269531 80.054688 28.949219 C 80.066406 28.570312 80.238281 28.140625 79.558594 27.941406 Z M 80.519531 28.761719 C 80.371094 30.140625 80.675781 30.511719 82.074219 30.714844 C 81.042969 30.464844 80.570312 29.777344 80.519531 28.761719 Z M 80.519531 28.761719 " fill-opacity="1" fill-rule="nonzero"/><path fill="#8a2be2" d="M 87.539062 31.757812 C 91.125 28.9375 96.113281 28.84375 99.804688 31.796875 C 97.851562 30.898438 95.839844 30.296875 93.671875 30.304688 C 91.519531 30.3125 89.496094 30.824219 87.539062 31.757812 Z M 87.539062 31.757812 " fill-opacity="1" fill-rule="nonzero"/><path fill="#8a2be2" d="M 88.015625 33.992188 C 90.539062 30.625 96.773438 30.484375 99.542969 34.375 C 97.90625 32.996094 96.078125 32.125 93.90625 32.050781 C 91.695312 31.972656 89.785156 32.714844 88.015625 33.992188 Z M 88.015625 33.992188 " fill-opacity="1" fill-rule="nonzero"/><path fill="#8a2be2" d="M 89.960938 25.796875 C 91.871094 24.566406 95.335938 24.519531 97.285156 25.832031 C 94.769531 25.320312 92.378906 25.269531 89.960938 25.796875 Z M 89.960938 25.796875 " fill-opacity="1" fill-rule="nonzero"/><path fill="#8a2be2" d="M 80.078125 25.390625 C 80.816406 25.621094 81.570312 25.820312 82.296875 26.085938 C 83.335938 26.46875 83.773438 27.277344 83.742188 28.351562 C 83.734375 28.761719 83.660156 29.171875 83.613281 29.59375 C 83.1875 28.679688 82.941406 27.6875 82.34375 27 C 81.765625 26.339844 80.832031 25.992188 80.050781 25.503906 C 80.0625 25.464844 80.070312 25.429688 80.078125 25.390625 Z M 80.078125 25.390625 " fill-opacity="1" fill-rule="nonzero"/><path fill="#8a2be2" d="M 107.09375 25.558594 C 105.160156 26.183594 103.835938 27.339844 103.644531 29.507812 C 103.570312 29.484375 103.5 29.457031 103.429688 29.429688 C 103.429688 28.785156 103.382812 28.136719 103.441406 27.5 C 103.488281 26.972656 103.851562 26.605469 104.304688 26.332031 C 105.148438 25.824219 106.070312 25.589844 107.09375 25.558594 Z M 107.09375 25.558594 " fill-opacity="1" fill-rule="nonzero"/><g fill="#8a2be2" fill-opacity="1"><g transform="translate(38.922497, 101.001464)"><g><path d="M 0.921875 -12.421875 L 6.5 -12.421875 L 6.5 -10.546875 L 3.65625 -10.546875 L 3.65625 -7.46875 L 5.828125 -7.46875 L 5.828125 -5.5625 L 3.65625 -5.5625 L 3.65625 -1.859375 L 6.53125 -1.859375 L 6.53125 0 L 0.921875 0 Z M 0.921875 -12.421875 "/></g></g></g><g fill="#8a2be2" fill-opacity="1"><g transform="translate(45.77632, 101.001464)"><g><path d="M 0.921875 -12.421875 L 3.65625 -12.421875 L 3.65625 -1.859375 L 6.515625 -1.859375 L 6.515625 0 L 0.921875 0 Z M 0.921875 -12.421875 "/></g></g></g><g fill="#8a2be2" fill-opacity="1"><g transform="translate(52.568816, 101.001464)"><g><path d="M 0.921875 -12.421875 L 6.5 -12.421875 L 6.5 -10.546875 L 3.65625 -10.546875 L 3.65625 -7.46875 L 5.828125 -7.46875 L 5.828125 -5.5625 L 3.65625 -5.5625 L 3.65625 -1.859375 L 6.53125 -1.859375 L 6.53125 0 L 0.921875 0 Z M 0.921875 -12.421875 "/></g></g></g><g fill="#8a2be2" fill-opacity="1"><g transform="translate(59.422638, 101.001464)"><g><path d="M 0.921875 -12.421875 L 5.09375 -12.421875 C 6.1875 -12.421875 7.003906 -12.109375 7.546875 -11.484375 C 8.085938 -10.867188 8.359375 -9.976562 8.359375 -8.8125 C 8.359375 -7.488281 8.039062 -6.566406 7.40625 -6.046875 C 6.78125 -5.523438 5.898438 -5.265625 4.765625 -5.265625 L 3.65625 -5.265625 L 3.65625 0 L 0.921875 0 Z M 4.578125 -7.1875 C 5.054688 -7.1875 5.375 -7.3125 5.53125 -7.5625 C 5.695312 -7.820312 5.78125 -8.253906 5.78125 -8.859375 C 5.78125 -9.410156 5.703125 -9.816406 5.546875 -10.078125 C 5.390625 -10.347656 5.0625 -10.484375 4.5625 -10.484375 L 3.65625 -10.484375 L 3.65625 -7.1875 Z M 4.578125 -7.1875 "/></g></g></g><g fill="#8a2be2" fill-opacity="1"><g transform="translate(68.177752, 101.001464)"><g><path d="M 0.96875 -12.421875 L 3.703125 -12.421875 L 3.703125 -7.390625 L 5.625 -7.390625 L 5.625 -12.421875 L 8.390625 -12.421875 L 8.390625 0 L 5.625 0 L 5.625 -5.421875 L 3.703125 -5.421875 L 3.703125 0 L 0.96875 0 Z M 0.96875 -12.421875 "/></g></g></g><g fill="#8a2be2" fill-opacity="1"><g transform="translate(77.530856, 101.001464)"><g><path d="M 2.671875 -12.421875 L 5.796875 -12.421875 L 8.109375 0 L 5.578125 0 L 5.171875 -2.625 L 3.34375 -2.625 L 2.90625 0 L 0.328125 0 Z M 4.90625 -4.265625 L 4.25 -9.109375 L 3.59375 -4.265625 Z M 4.90625 -4.265625 "/></g></g></g><g fill="#8a2be2" fill-opacity="1"><g transform="translate(85.979319, 101.001464)"><g><path d="M 0.921875 -12.421875 L 2.84375 -12.421875 L 5.390625 -6.4375 L 5.390625 -12.421875 L 7.671875 -12.421875 L 7.671875 0 L 5.8125 0 L 3.265625 -6.4375 L 3.265625 0 L 0.921875 0 Z M 0.921875 -12.421875 "/></g></g></g><g fill="#8a2be2" fill-opacity="1"><g transform="translate(94.581099, 101.001464)"><g><path d="M 2.03125 -10.375 L 0.171875 -10.375 L 0.171875 -12.421875 L 6.65625 -12.421875 L 6.65625 -10.375 L 4.796875 -10.375 L 4.796875 0 L 2.03125 0 Z M 2.03125 -10.375 "/></g></g></g><g fill="#8a2be2" fill-opacity="1"><g transform="translate(101.404258, 101.001464)"><g><path d="M 0.9375 -12.421875 L 3.671875 -12.421875 L 3.671875 0 L 0.9375 0 Z M 0.9375 -12.421875 "/></g></g></g><g fill="#8a2be2" fill-opacity="1"><g transform="translate(106.019476, 101.001464)"><g><path d="M 0.921875 -12.421875 L 2.84375 -12.421875 L 5.390625 -6.4375 L 5.390625 -12.421875 L 7.671875 -12.421875 L 7.671875 0 L 5.8125 0 L 3.265625 -6.4375 L 3.265625 0 L 0.921875 0 Z M 0.921875 -12.421875 "/></g></g></g><g fill="#8a2be2" fill-opacity="1"><g transform="translate(114.621257, 101.001464)"><g><path d="M 2.671875 -12.421875 L 5.796875 -12.421875 L 8.109375 0 L 5.578125 0 L 5.171875 -2.625 L 3.34375 -2.625 L 2.90625 0 L 0.328125 0 Z M 4.90625 -4.265625 L 4.25 -9.109375 L 3.59375 -4.265625 Z M 4.90625 -4.265625 "/></g></g></g><g fill="#8a2be2" fill-opacity="1"><g transform="translate(123.069719, 101.001464)"><g><path d="M 2.03125 -10.375 L 0.171875 -10.375 L 0.171875 -12.421875 L 6.65625 -12.421875 L 6.65625 -10.375 L 4.796875 -10.375 L 4.796875 0 L 2.03125 0 Z M 2.03125 -10.375 "/></g></g></g><g fill="#8a2be2" fill-opacity="1"><g transform="translate(129.892878, 101.001464)"><g><path d="M 4.46875 0.1875 C 3.132812 0.1875 2.179688 -0.15625 1.609375 -0.84375 C 1.035156 -1.539062 0.75 -2.5625 0.75 -3.90625 L 0.75 -8.515625 C 0.75 -9.867188 1.035156 -10.882812 1.609375 -11.5625 C 2.179688 -12.238281 3.132812 -12.578125 4.46875 -12.578125 C 5.820312 -12.578125 6.785156 -12.234375 7.359375 -11.546875 C 7.941406 -10.867188 8.234375 -9.859375 8.234375 -8.515625 L 8.234375 -3.90625 C 8.234375 -2.5625 7.941406 -1.539062 7.359375 -0.84375 C 6.785156 -0.15625 5.820312 0.1875 4.46875 0.1875 Z M 4.46875 -1.765625 C 4.863281 -1.765625 5.117188 -1.894531 5.234375 -2.15625 C 5.359375 -2.414062 5.421875 -2.769531 5.421875 -3.21875 L 5.421875 -9.203125 C 5.421875 -9.660156 5.359375 -10.015625 5.234375 -10.265625 C 5.117188 -10.523438 4.863281 -10.65625 4.46875 -10.65625 C 4.101562 -10.65625 3.859375 -10.523438 3.734375 -10.265625 C 3.617188 -10.003906 3.5625 -9.648438 3.5625 -9.203125 L 3.5625 -3.21875 C 3.5625 -2.769531 3.613281 -2.414062 3.71875 -2.15625 C 3.832031 -1.894531 4.082031 -1.765625 4.46875 -1.765625 Z M 4.46875 -1.765625 "/></g></g></g><g fill="#8a2be2" fill-opacity="1"><g transform="translate(138.87799, 101.001464)"><g><path d="M 0.921875 -12.421875 L 4.34375 -12.421875 C 5.695312 -12.421875 6.722656 -12.175781 7.421875 -11.6875 C 8.117188 -11.207031 8.46875 -10.359375 8.46875 -9.140625 C 8.46875 -8.304688 8.359375 -7.644531 8.140625 -7.15625 C 7.921875 -6.664062 7.519531 -6.285156 6.9375 -6.015625 L 8.640625 0 L 5.8125 0 L 4.4375 -5.5625 L 3.65625 -5.5625 L 3.65625 0 L 0.921875 0 Z M 4.4375 -7.140625 C 4.976562 -7.140625 5.359375 -7.285156 5.578125 -7.578125 C 5.804688 -7.867188 5.921875 -8.304688 5.921875 -8.890625 C 5.921875 -9.453125 5.816406 -9.875 5.609375 -10.15625 C 5.398438 -10.4375 5.046875 -10.578125 4.546875 -10.578125 L 3.65625 -10.578125 L 3.65625 -7.140625 Z M 4.4375 -7.140625 "/></g></g></g></svg>