<svg xmlns="http://www.w3.org/2000/svg" xmlns:xlink="http://www.w3.org/1999/xlink" width="1000" zoomAndPan="magnify" viewBox="0 0 750 749.999995" height="1000" preserveAspectRatio="xMidYMid meet" version="1.0"><defs><clipPath id="0f7ea9fdf5"><path d="M 119.195312 67.136719 L 630.695312 67.136719 L 630.695312 682.886719 L 119.195312 682.886719 Z M 119.195312 67.136719 " clip-rule="nonzero"/></clipPath></defs><g clip-path="url(#0f7ea9fdf5)"><path fill="#2e006c" d="M 598.160156 301.820312 C 596.644531 297.988281 594.53125 294.460938 591.964844 291.324219 C 591.445312 290.703125 590.9375 290.058594 590.382812 289.464844 L 588.347656 287.425781 C 581.378906 280.949219 572.054688 276.953125 561.796875 276.953125 C 555.21875 276.953125 549.097656 278.726562 543.671875 281.609375 C 540.863281 283.101562 538.183594 284.796875 535.828125 286.894531 L 532.667969 290.058594 C 531.894531 290.929688 531.277344 291.929688 530.582031 292.867188 C 525.738281 299.355469 522.738281 307.285156 522.738281 316.011719 C 522.738281 325.054688 525.835938 333.355469 531 339.96875 C 529.769531 338.402344 528.683594 336.730469 527.710938 334.984375 L 527.621094 335.046875 C 544.078125 362.519531 552.96875 394.117188 552.96875 426.535156 C 552.96875 524.738281 473.082031 604.625 374.878906 604.625 C 276.675781 604.625 196.789062 524.738281 196.789062 426.535156 C 196.789062 343.738281 253.730469 274.132812 349.835938 254.289062 L 320.25 373.347656 L 502.4375 210.585938 L 307.296875 67.242188 L 355.894531 173.933594 C 354.703125 174.070312 353.566406 174.449219 352.464844 174.96875 C 210.144531 196.445312 119.074219 300.972656 119.074219 426.535156 C 119.074219 567.589844 233.835938 682.335938 374.878906 682.335938 C 515.933594 682.335938 630.679688 567.589844 630.679688 426.535156 C 630.679688 382.59375 619.308594 339.691406 598.160156 301.820312 " fill-opacity="1" fill-rule="nonzero"/></g></svg>