<svg xmlns="http://www.w3.org/2000/svg" xmlns:xlink="http://www.w3.org/1999/xlink" width="1000" zoomAndPan="magnify" viewBox="0 0 750 749.999995" height="1000" preserveAspectRatio="xMidYMid meet" version="1.0"><defs><clipPath id="fd9e221e7c"><path d="M 99.625 43.589844 L 650.125 43.589844 L 650.125 706 L 99.625 706 Z M 99.625 43.589844 " clip-rule="nonzero"/></clipPath></defs><g clip-path="url(#fd9e221e7c)"><path fill="#8a2be2" d="M 615.238281 296.222656 C 613.605469 292.097656 611.328125 288.296875 608.566406 284.921875 C 608.007812 284.253906 607.460938 283.558594 606.863281 282.917969 L 604.671875 280.726562 C 597.167969 273.753906 587.132812 269.453125 576.089844 269.453125 C 569.011719 269.453125 562.421875 271.359375 556.578125 274.464844 C 553.554688 276.070312 550.671875 277.894531 548.136719 280.15625 L 544.734375 283.558594 C 543.902344 284.5 543.234375 285.574219 542.488281 286.582031 C 537.273438 293.566406 534.042969 302.105469 534.042969 311.5 C 534.042969 321.234375 537.378906 330.167969 542.9375 337.289062 C 541.613281 335.601562 540.445312 333.800781 539.394531 331.921875 L 539.300781 331.992188 C 557.015625 361.566406 566.585938 395.578125 566.585938 430.476562 C 566.585938 536.191406 480.585938 622.191406 374.871094 622.191406 C 269.15625 622.191406 183.15625 536.191406 183.15625 430.476562 C 183.15625 341.347656 244.457031 266.417969 347.910156 245.050781 L 316.0625 373.222656 L 512.191406 198.007812 L 302.121094 43.695312 L 354.433594 158.550781 C 353.152344 158.699219 351.929688 159.109375 350.742188 159.664062 C 197.535156 182.785156 99.5 295.308594 99.5 430.476562 C 99.5 582.324219 223.039062 705.851562 374.871094 705.851562 C 526.71875 705.851562 650.246094 582.324219 650.246094 430.476562 C 650.246094 383.175781 638.003906 336.988281 615.238281 296.222656 " fill-opacity="1" fill-rule="nonzero"/></g></svg>