<svg xmlns="http://www.w3.org/2000/svg" xmlns:xlink="http://www.w3.org/1999/xlink" width="1000" zoomAndPan="magnify" viewBox="0 0 750 749.999995" height="1000" preserveAspectRatio="xMidYMid meet" version="1.0"><defs><clipPath id="5ed00a2631"><path d="M 341.035156 662.261719 L 411 662.261719 L 411 700.859375 L 341.035156 700.859375 Z M 341.035156 662.261719 " clip-rule="nonzero"/></clipPath><clipPath id="f8861f56e7"><path d="M 371 49.109375 L 381 49.109375 L 381 90 L 371 90 Z M 371 49.109375 " clip-rule="nonzero"/></clipPath><clipPath id="07c959b61c"><path d="M 676.5625 404.410156 L 734.191406 404.410156 L 734.191406 414.597656 L 676.5625 414.597656 Z M 676.5625 404.410156 " clip-rule="nonzero"/></clipPath><clipPath id="469be672ba"><path d="M 15.691406 402 L 72 402 L 72 412 L 15.691406 412 Z M 15.691406 402 " clip-rule="nonzero"/></clipPath></defs><path fill="#2e006c" d="M 317.910156 246.410156 C 291.761719 246.410156 269.835938 266.824219 267.996094 292.882812 L 267.804688 295.617188 L 265.335938 296.816406 C 239.625 309.324219 223.652344 334.84375 223.652344 363.410156 C 223.652344 378.636719 228.257812 393.273438 236.96875 405.738281 L 238.109375 407.367188 L 237.746094 409.324219 C 237.617188 409.996094 237.511719 410.679688 237.421875 411.363281 L 237.242188 412.707031 L 236.382812 413.757812 C 223.527344 429.382812 216.445312 449.152344 216.445312 469.425781 C 216.445312 512.597656 248.601562 549.890625 291.25 556.167969 L 293.117188 556.445312 L 294.289062 557.929688 C 305.828125 572.578125 323.941406 582.136719 345.292969 584.839844 C 348.664062 585.269531 351.941406 584.257812 354.503906 581.996094 C 357.0625 579.742188 358.527344 576.5 358.527344 573.097656 L 358.527344 247.054688 C 358.527344 239.382812 352.949219 235.9375 348.171875 235.3125 C 343.449219 234.695312 337.246094 236.578125 335.300781 243.910156 L 334.050781 248.851562 L 329.5 247.773438 C 325.683594 246.867188 321.785156 246.410156 317.910156 246.410156 Z M 346.753906 594.425781 C 345.871094 594.425781 344.984375 594.371094 344.101562 594.257812 C 320.96875 591.328125 301.136719 581.0625 288.015625 565.273438 C 265.894531 561.574219 245.644531 550.238281 230.820312 533.214844 C 215.429688 515.542969 206.953125 492.886719 206.953125 469.425781 C 206.953125 447.597656 214.363281 426.289062 227.851562 409.210938 C 218.886719 395.582031 214.160156 379.796875 214.160156 363.410156 C 214.160156 347.445312 218.683594 331.925781 227.238281 318.527344 C 235.078125 306.25 245.945312 296.261719 258.78125 289.496094 C 262.257812 259.800781 287.714844 236.914062 317.910156 236.914062 C 321.105469 236.914062 324.3125 237.175781 327.492188 237.695312 C 331.355469 229.402344 339.875 224.660156 349.398438 225.898438 C 358.367188 227.070312 368.019531 234.1875 368.019531 247.054688 L 368.019531 573.097656 C 368.019531 579.222656 365.382812 585.0625 360.78125 589.121094 C 356.882812 592.558594 351.882812 594.425781 346.753906 594.425781 " fill-opacity="1" fill-rule="nonzero"/><path fill="#2e006c" d="M 295.59375 565.453125 C 292.84375 565.453125 290.085938 565.265625 287.347656 564.882812 L 288.660156 555.480469 C 298.695312 556.878906 309.09375 555.203125 317.9375 550.761719 L 322.199219 559.246094 C 314.070312 563.328125 304.855469 565.453125 295.59375 565.453125 " fill-opacity="1" fill-rule="nonzero"/><path fill="#2e006c" d="M 324.226562 562.8125 C 328.457031 560.28125 329.832031 554.800781 327.300781 550.574219 C 324.769531 546.347656 319.289062 544.96875 315.0625 547.5 C 310.832031 550.03125 309.457031 555.511719 311.988281 559.738281 C 314.519531 563.964844 320 565.34375 324.226562 562.8125 " fill-opacity="1" fill-rule="nonzero"/><path fill="#2e006c" d="M 273.25 446.917969 C 254.339844 438.953125 238.648438 425.890625 227.882812 409.140625 L 235.867188 404.007812 C 245.597656 419.140625 259.796875 430.953125 276.933594 438.171875 L 273.25 446.917969 " fill-opacity="1" fill-rule="nonzero"/><path fill="#2e006c" d="M 271.546875 450.710938 C 276.160156 452.445312 281.304688 450.109375 283.039062 445.5 C 284.773438 440.886719 282.4375 435.742188 277.824219 434.007812 C 273.210938 432.273438 268.066406 434.609375 266.332031 439.21875 C 264.601562 443.832031 266.933594 448.980469 271.546875 450.710938 " fill-opacity="1" fill-rule="nonzero"/><path fill="#2e006c" d="M 250.535156 306.320312 L 244.855469 298.714844 C 260.8125 286.796875 280.082031 280.054688 300.582031 279.21875 L 300.96875 288.707031 C 282.390625 289.464844 264.949219 295.550781 250.535156 306.320312 " fill-opacity="1" fill-rule="nonzero"/><path fill="#2e006c" d="M 300.34375 292.917969 C 305.269531 292.910156 309.261719 288.90625 309.25 283.980469 C 309.246094 279.054688 305.242188 275.0625 300.316406 275.070312 C 295.390625 275.078125 291.398438 279.082031 291.40625 284.007812 C 291.414062 288.9375 295.417969 292.925781 300.34375 292.917969 " fill-opacity="1" fill-rule="nonzero"/><path fill="#2e006c" d="M 314.644531 343.726562 L 309.113281 336.007812 C 322.46875 326.441406 332.167969 311.890625 335.714844 296.085938 C 339.882812 277.550781 335.6875 257.316406 324.5 241.960938 L 332.175781 236.371094 C 344.949219 253.902344 349.734375 277.003906 344.980469 298.167969 C 340.921875 316.210938 329.867188 332.816406 314.644531 343.726562 " fill-opacity="1" fill-rule="nonzero"/><path fill="#2e006c" d="M 307.4375 332.058594 C 303.28125 334.703125 302.054688 340.21875 304.699219 344.375 C 307.339844 348.535156 312.859375 349.757812 317.015625 347.117188 C 321.175781 344.472656 322.402344 338.957031 319.757812 334.796875 C 317.109375 330.640625 311.59375 329.414062 307.4375 332.058594 " fill-opacity="1" fill-rule="nonzero"/><path fill="#2e006c" d="M 361.960938 496.675781 C 348.230469 492.722656 335.878906 481.570312 326.242188 464.429688 C 322.90625 458.496094 320.035156 452.289062 317.257812 446.289062 C 313.601562 438.390625 310.148438 430.929688 305.695312 423.933594 C 297.585938 411.195312 286.300781 400.511719 273.054688 393.042969 L 277.714844 384.773438 C 292.316406 393.007812 304.761719 404.789062 313.703125 418.835938 C 318.496094 426.371094 322.246094 434.46875 325.871094 442.300781 C 328.574219 448.136719 331.367188 454.167969 334.519531 459.773438 C 340.371094 470.179688 350.335938 483.449219 364.585938 487.554688 L 361.960938 496.675781 " fill-opacity="1" fill-rule="nonzero"/><path fill="#2e006c" d="M 271.648438 397.09375 C 267.273438 394.835938 265.558594 389.449219 267.820312 385.074219 C 270.082031 380.695312 275.46875 378.980469 279.84375 381.242188 C 284.222656 383.503906 285.9375 388.890625 283.671875 393.265625 C 281.410156 397.644531 276.023438 399.359375 271.648438 397.09375 " fill-opacity="1" fill-rule="nonzero"/><path fill="#2e006c" d="M 405.890625 235.203125 C 405.3125 235.203125 404.75 235.242188 404.203125 235.3125 C 399.429688 235.9375 393.851562 239.382812 393.851562 247.054688 L 393.851562 573.097656 C 393.851562 576.5 395.316406 579.742188 397.871094 581.996094 C 400.4375 584.257812 403.707031 585.269531 407.082031 584.839844 C 428.433594 582.136719 446.550781 572.578125 458.089844 557.929688 L 459.257812 556.445312 L 461.125 556.167969 C 503.769531 549.890625 535.929688 512.597656 535.929688 469.425781 C 535.929688 449.152344 528.851562 429.382812 515.996094 413.757812 L 515.132812 412.707031 L 514.957031 411.363281 C 514.863281 410.675781 514.757812 409.996094 514.632812 409.320312 L 514.273438 407.367188 L 515.40625 405.738281 C 524.117188 393.273438 528.722656 378.636719 528.722656 363.410156 C 528.722656 334.84375 512.75 309.324219 487.039062 296.816406 L 484.574219 295.617188 L 484.378906 292.882812 C 482.539062 266.824219 460.613281 246.410156 434.46875 246.410156 C 430.59375 246.410156 426.695312 246.867188 422.878906 247.773438 L 418.328125 248.851562 L 417.074219 243.902344 C 415.355469 237.425781 410.300781 235.203125 405.890625 235.203125 Z M 405.625 594.425781 C 400.496094 594.425781 395.492188 592.558594 391.59375 589.121094 C 386.992188 585.0625 384.355469 579.222656 384.355469 573.097656 L 384.355469 247.054688 C 384.355469 234.1875 394.007812 227.070312 402.976562 225.898438 C 412.503906 224.65625 421.019531 229.398438 424.886719 237.695312 C 428.0625 237.175781 431.273438 236.914062 434.46875 236.914062 C 464.660156 236.914062 490.121094 259.800781 493.59375 289.496094 C 506.429688 296.261719 517.296875 306.25 525.140625 318.527344 C 533.695312 331.925781 538.214844 347.445312 538.214844 363.410156 C 538.214844 379.796875 533.488281 395.582031 524.523438 409.210938 C 538.015625 426.289062 545.425781 447.597656 545.425781 469.425781 C 545.425781 492.886719 536.949219 515.542969 521.558594 533.214844 C 506.730469 550.238281 486.480469 561.574219 464.359375 565.273438 C 451.242188 581.0625 431.40625 591.328125 408.277344 594.257812 C 407.390625 594.371094 406.507812 594.425781 405.625 594.425781 " fill-opacity="1" fill-rule="nonzero"/><path fill="#2e006c" d="M 456.78125 565.453125 C 447.523438 565.453125 438.304688 563.328125 430.179688 559.246094 L 434.4375 550.761719 C 443.28125 555.203125 453.679688 556.882812 463.71875 555.480469 L 465.027344 564.882812 C 462.292969 565.265625 459.535156 565.453125 456.78125 565.453125 " fill-opacity="1" fill-rule="nonzero"/><path fill="#2e006c" d="M 437.3125 547.5 C 433.085938 544.96875 427.605469 546.347656 425.074219 550.574219 C 422.546875 554.800781 423.921875 560.28125 428.148438 562.8125 C 432.375 565.34375 437.859375 563.964844 440.386719 559.738281 C 442.917969 555.511719 441.542969 550.03125 437.3125 547.5 " fill-opacity="1" fill-rule="nonzero"/><path fill="#2e006c" d="M 479.128906 446.917969 L 475.441406 438.171875 C 492.578125 430.953125 506.78125 419.140625 516.511719 404.007812 L 524.492188 409.140625 C 513.722656 425.890625 498.035156 438.953125 479.128906 446.917969 " fill-opacity="1" fill-rule="nonzero"/><path fill="#2e006c" d="M 474.550781 434.007812 C 469.941406 435.742188 467.605469 440.886719 469.339844 445.5 C 471.070312 450.109375 476.21875 452.445312 480.832031 450.710938 C 485.441406 448.980469 487.777344 443.832031 486.042969 439.21875 C 484.308594 434.609375 479.164062 432.273438 474.550781 434.007812 " fill-opacity="1" fill-rule="nonzero"/><path fill="#2e006c" d="M 501.839844 306.320312 C 487.425781 295.550781 469.988281 289.464844 451.40625 288.707031 L 451.796875 279.21875 C 472.296875 280.054688 491.566406 286.796875 507.523438 298.714844 L 501.839844 306.320312 " fill-opacity="1" fill-rule="nonzero"/><path fill="#2e006c" d="M 452.0625 275.070312 C 447.132812 275.0625 443.128906 279.054688 443.121094 283.980469 C 443.117188 288.90625 447.105469 292.910156 452.035156 292.917969 C 456.960938 292.925781 460.960938 288.9375 460.96875 284.007812 C 460.976562 279.082031 456.988281 275.078125 452.0625 275.070312 " fill-opacity="1" fill-rule="nonzero"/><path fill="#2e006c" d="M 437.734375 343.726562 C 422.507812 332.816406 411.449219 316.210938 407.398438 298.167969 C 402.640625 277.003906 407.429688 253.902344 420.203125 236.371094 L 427.875 241.960938 C 416.6875 257.316406 412.496094 277.550781 416.660156 296.085938 C 420.210938 311.890625 429.90625 326.4375 443.261719 336.007812 L 437.734375 343.726562 " fill-opacity="1" fill-rule="nonzero"/><path fill="#2e006c" d="M 435.359375 347.117188 C 439.519531 349.757812 445.03125 348.535156 447.679688 344.375 C 450.324219 340.21875 449.097656 334.703125 444.9375 332.058594 C 440.78125 329.414062 435.265625 330.640625 432.621094 334.796875 C 429.976562 338.957031 431.203125 344.472656 435.359375 347.117188 " fill-opacity="1" fill-rule="nonzero"/><path fill="#2e006c" d="M 390.414062 496.675781 L 387.789062 487.554688 C 402.042969 483.449219 412.007812 470.179688 417.855469 459.773438 C 421.011719 454.167969 423.800781 448.136719 426.503906 442.304688 C 430.128906 434.46875 433.878906 426.371094 438.671875 418.835938 C 447.613281 404.789062 460.058594 393.007812 474.660156 384.773438 L 479.324219 393.042969 C 466.074219 400.511719 454.785156 411.195312 446.683594 423.933594 C 442.226562 430.933594 438.773438 438.394531 435.117188 446.292969 C 432.339844 452.292969 429.46875 458.496094 426.132812 464.429688 C 416.496094 481.570312 404.144531 492.722656 390.414062 496.675781 " fill-opacity="1" fill-rule="nonzero"/><path fill="#2e006c" d="M 472.53125 381.242188 C 476.90625 378.980469 482.289062 380.695312 484.554688 385.074219 C 486.816406 389.449219 485.105469 394.835938 480.726562 397.09375 C 476.347656 399.359375 470.964844 397.644531 468.703125 393.265625 C 466.4375 388.890625 468.152344 383.503906 472.53125 381.242188 " fill-opacity="1" fill-rule="nonzero"/><path fill="#2e006c" d="M 419.621094 611.964844 L 332.757812 611.964844 C 330.136719 611.964844 328.007812 609.835938 328.007812 607.214844 C 328.007812 604.59375 330.136719 602.46875 332.757812 602.46875 L 419.621094 602.46875 C 422.242188 602.46875 424.367188 604.59375 424.367188 607.214844 C 424.367188 609.835938 422.242188 611.964844 419.621094 611.964844 " fill-opacity="1" fill-rule="nonzero"/><path fill="#2e006c" d="M 419.621094 630.671875 L 332.757812 630.671875 C 330.136719 630.671875 328.007812 628.542969 328.007812 625.921875 C 328.007812 623.300781 330.136719 621.179688 332.757812 621.179688 L 419.621094 621.179688 C 422.242188 621.179688 424.367188 623.300781 424.367188 625.921875 C 424.367188 628.542969 422.242188 630.671875 419.621094 630.671875 " fill-opacity="1" fill-rule="nonzero"/><path fill="#2e006c" d="M 419.621094 649.375 L 332.757812 649.375 C 330.136719 649.375 328.007812 647.25 328.007812 644.628906 C 328.007812 642.007812 330.136719 639.882812 332.757812 639.882812 L 419.621094 639.882812 C 422.242188 639.882812 424.367188 642.007812 424.367188 644.628906 C 424.367188 647.25 422.242188 649.375 419.621094 649.375 " fill-opacity="1" fill-rule="nonzero"/><path fill="#2e006c" d="M 419.621094 668.082031 L 332.757812 668.082031 C 330.136719 668.082031 328.007812 665.957031 328.007812 663.335938 C 328.007812 660.714844 330.136719 658.589844 332.757812 658.589844 L 419.621094 658.589844 C 422.242188 658.589844 424.367188 660.714844 424.367188 663.335938 C 424.367188 665.957031 422.242188 668.082031 419.621094 668.082031 " fill-opacity="1" fill-rule="nonzero"/><g clip-path="url(#5ed00a2631)"><path fill="#2e006c" d="M 376.1875 700.863281 C 357.054688 700.863281 341.488281 685.296875 341.488281 666.164062 L 341.492188 665.554688 L 350.984375 665.703125 L 350.980469 666.164062 C 350.980469 680.0625 362.289062 691.371094 376.1875 691.371094 C 390.085938 691.371094 401.394531 680.0625 401.394531 666.164062 C 401.394531 665.367188 401.355469 664.5625 401.285156 663.777344 L 410.738281 662.890625 C 410.835938 663.972656 410.886719 665.074219 410.886719 666.164062 C 410.886719 685.296875 395.324219 700.863281 376.1875 700.863281 " fill-opacity="1" fill-rule="nonzero"/></g><path fill="#2e006c" d="M 376.1875 179.667969 C 373.566406 179.667969 371.441406 177.546875 371.441406 174.925781 L 371.441406 142.082031 C 371.441406 139.460938 373.566406 137.335938 376.1875 137.335938 C 378.808594 137.335938 380.933594 139.460938 380.933594 142.082031 L 380.933594 174.925781 C 380.933594 177.546875 378.808594 179.667969 376.1875 179.667969 " fill-opacity="1" fill-rule="nonzero"/><g clip-path="url(#f8861f56e7)"><path fill="#2e006c" d="M 376.1875 89.039062 C 373.566406 89.039062 371.441406 86.914062 371.441406 84.292969 L 371.441406 53.886719 C 371.441406 51.269531 373.566406 49.144531 376.1875 49.144531 C 378.808594 49.144531 380.933594 51.269531 380.933594 53.886719 L 380.933594 84.292969 C 380.933594 86.914062 378.808594 89.039062 376.1875 89.039062 " fill-opacity="1" fill-rule="nonzero"/></g><path fill="#2e006c" d="M 540.964844 248.910156 C 539.75 248.910156 538.535156 248.449219 537.605469 247.519531 C 535.753906 245.667969 535.753906 242.660156 537.605469 240.808594 L 581.449219 196.964844 C 583.304688 195.113281 586.308594 195.113281 588.164062 196.964844 C 590.019531 198.816406 590.019531 201.824219 588.164062 203.675781 L 544.320312 247.519531 C 543.394531 248.449219 542.179688 248.910156 540.964844 248.910156 " fill-opacity="1" fill-rule="nonzero"/><path fill="#2e006c" d="M 599.609375 190.265625 C 598.394531 190.265625 597.179688 189.800781 596.253906 188.875 C 594.402344 187.019531 594.402344 184.015625 596.253906 182.160156 L 623.191406 155.226562 C 625.046875 153.371094 628.050781 153.371094 629.902344 155.226562 C 631.757812 157.078125 631.757812 160.085938 629.902344 161.9375 L 602.964844 188.875 C 602.039062 189.800781 600.824219 190.265625 599.609375 190.265625 " fill-opacity="1" fill-rule="nonzero"/><path fill="#2e006c" d="M 649.175781 414.386719 L 608.515625 414.386719 C 605.894531 414.386719 603.769531 412.261719 603.769531 409.640625 C 603.769531 407.019531 605.894531 404.894531 608.515625 404.894531 L 649.175781 404.894531 C 651.796875 404.894531 653.925781 407.019531 653.925781 409.640625 C 653.925781 412.261719 651.796875 414.386719 649.175781 414.386719 " fill-opacity="1" fill-rule="nonzero"/><g clip-path="url(#07c959b61c)"><path fill="#2e006c" d="M 729.554688 414.386719 L 681.597656 414.386719 C 678.972656 414.386719 676.847656 412.261719 676.847656 409.640625 C 676.847656 407.019531 678.972656 404.894531 681.597656 404.894531 L 729.554688 404.894531 C 732.167969 404.894531 734.296875 407.019531 734.296875 409.640625 C 734.296875 412.261719 732.167969 414.386719 729.554688 414.386719 " fill-opacity="1" fill-rule="nonzero"/></g><path fill="#2e006c" d="M 561.269531 601.160156 C 560.058594 601.160156 558.839844 600.695312 557.914062 599.769531 L 535.917969 577.773438 C 534.066406 575.917969 534.066406 572.914062 535.917969 571.058594 C 537.773438 569.207031 540.777344 569.207031 542.632812 571.058594 L 564.628906 593.058594 C 566.480469 594.910156 566.480469 597.914062 564.628906 599.769531 C 563.699219 600.695312 562.488281 601.160156 561.269531 601.160156 " fill-opacity="1" fill-rule="nonzero"/><path fill="#2e006c" d="M 621.5 663.355469 L 576.941406 618.796875 C 575.085938 616.941406 575.085938 613.9375 576.941406 612.082031 C 578.792969 610.226562 581.800781 610.226562 583.65625 612.082031 L 628.214844 656.644531 L 621.5 663.355469 " fill-opacity="1" fill-rule="nonzero"/><path fill="#2e006c" d="M 198.371094 588.125 C 197.15625 588.125 195.941406 587.664062 195.015625 586.734375 C 193.164062 584.882812 193.164062 581.875 195.015625 580.023438 L 205.667969 569.371094 C 207.523438 567.519531 210.527344 567.519531 212.378906 569.371094 C 214.234375 571.226562 214.234375 574.230469 212.378906 576.082031 L 201.726562 586.734375 C 200.800781 587.664062 199.585938 588.125 198.371094 588.125 " fill-opacity="1" fill-rule="nonzero"/><path fill="#2e006c" d="M 123.441406 663.058594 C 122.226562 663.058594 121.011719 662.59375 120.085938 661.667969 C 118.230469 659.8125 118.230469 656.808594 120.085938 654.953125 L 159.078125 615.960938 C 160.929688 614.105469 163.933594 614.105469 165.789062 615.960938 C 167.644531 617.816406 167.644531 620.820312 165.789062 622.671875 L 126.796875 661.667969 C 125.871094 662.59375 124.65625 663.058594 123.441406 663.058594 " fill-opacity="1" fill-rule="nonzero"/><path fill="#2e006c" d="M 141.472656 412 L 98.132812 412 C 95.507812 412 93.382812 409.875 93.382812 407.25 C 93.382812 404.628906 95.507812 402.503906 98.132812 402.503906 L 141.472656 402.503906 C 144.09375 402.503906 146.21875 404.628906 146.21875 407.25 C 146.21875 409.875 144.09375 412 141.472656 412 " fill-opacity="1" fill-rule="nonzero"/><g clip-path="url(#469be672ba)"><path fill="#2e006c" d="M 67.121094 412 L 20.4375 412 C 17.816406 412 15.691406 409.875 15.691406 407.25 C 15.691406 404.628906 17.816406 402.503906 20.4375 402.503906 L 67.121094 402.503906 C 69.746094 402.503906 71.867188 404.628906 71.867188 407.25 C 71.867188 409.875 69.746094 412 67.121094 412 " fill-opacity="1" fill-rule="nonzero"/></g><path fill="#2e006c" d="M 210.714844 247.222656 C 209.496094 247.222656 208.285156 246.757812 207.355469 245.832031 L 183.316406 221.792969 C 181.460938 219.9375 181.460938 216.933594 183.316406 215.078125 C 185.167969 213.222656 188.171875 213.222656 190.027344 215.078125 L 214.070312 239.121094 C 215.921875 240.972656 215.921875 243.980469 214.070312 245.832031 C 213.144531 246.757812 211.925781 247.222656 210.714844 247.222656 " fill-opacity="1" fill-rule="nonzero"/><path fill="#2e006c" d="M 160.597656 197.109375 C 159.382812 197.109375 158.167969 196.644531 157.242188 195.71875 L 121.773438 160.25 C 119.917969 158.394531 119.917969 155.390625 121.773438 153.535156 C 123.628906 151.683594 126.632812 151.683594 128.484375 153.535156 L 163.953125 189.007812 C 165.808594 190.859375 165.808594 193.867188 163.953125 195.71875 C 163.027344 196.644531 161.8125 197.109375 160.597656 197.109375 " fill-opacity="1" fill-rule="nonzero"/><path fill="#2e006c" d="M 299.332031 206.121094 C 297.757812 206.121094 296.214844 205.335938 295.3125 203.902344 L 281.527344 182.003906 C 280.132812 179.785156 280.796875 176.855469 283.015625 175.460938 C 285.234375 174.0625 288.164062 174.726562 289.5625 176.945312 L 303.347656 198.84375 C 304.742188 201.0625 304.074219 203.992188 301.859375 205.390625 C 301.070312 205.886719 300.199219 206.121094 299.332031 206.121094 " fill-opacity="1" fill-rule="nonzero"/><path fill="#2e006c" d="M 269.753906 159.132812 C 268.179688 159.132812 266.632812 158.347656 265.734375 156.914062 L 246.390625 126.191406 C 244.996094 123.972656 245.660156 121.039062 247.878906 119.644531 C 250.101562 118.246094 253.03125 118.914062 254.425781 121.132812 L 273.765625 151.855469 C 275.164062 154.074219 274.496094 157.003906 272.28125 158.402344 C 271.492188 158.898438 270.617188 159.132812 269.753906 159.132812 " fill-opacity="1" fill-rule="nonzero"/><path fill="#2e006c" d="M 455.207031 206.121094 C 454.34375 206.121094 453.46875 205.886719 452.683594 205.390625 C 450.464844 203.992188 449.796875 201.0625 451.191406 198.84375 L 466.855469 173.964844 C 468.253906 171.742188 471.183594 171.078125 473.402344 172.476562 C 475.621094 173.871094 476.289062 176.800781 474.890625 179.019531 L 459.230469 203.902344 C 458.324219 205.335938 456.785156 206.121094 455.207031 206.121094 " fill-opacity="1" fill-rule="nonzero"/><path fill="#2e006c" d="M 488.804688 152.746094 C 487.941406 152.746094 487.066406 152.515625 486.28125 152.019531 C 484.0625 150.621094 483.394531 147.691406 484.792969 145.472656 L 500.113281 121.132812 C 501.511719 118.914062 504.441406 118.246094 506.660156 119.644531 C 508.878906 121.039062 509.546875 123.972656 508.148438 126.191406 L 492.824219 150.53125 C 491.921875 151.964844 490.382812 152.746094 488.804688 152.746094 " fill-opacity="1" fill-rule="nonzero"/><path fill="#2e006c" d="M 165.945312 327.480469 L 124.785156 308.652344 C 122.402344 307.566406 121.351562 304.746094 122.445312 302.363281 C 123.535156 299.980469 126.351562 298.933594 128.734375 300.023438 L 169.894531 318.847656 L 165.945312 327.480469 " fill-opacity="1" fill-rule="nonzero"/><path fill="#2e006c" d="M 98.535156 296.179688 C 97.875 296.179688 97.203125 296.039062 96.5625 295.75 L 59.757812 278.914062 C 57.375 277.824219 56.324219 275.007812 57.417969 272.625 C 58.503906 270.238281 61.324219 269.191406 63.707031 270.28125 L 100.511719 287.113281 C 102.894531 288.207031 103.945312 291.019531 102.855469 293.40625 C 102.058594 295.148438 100.335938 296.179688 98.535156 296.179688 " fill-opacity="1" fill-rule="nonzero"/><path fill="#2e006c" d="M 584.042969 327.480469 L 580.09375 318.847656 L 622.535156 299.433594 C 624.917969 298.34375 627.738281 299.390625 628.828125 301.777344 C 629.917969 304.164062 628.871094 306.976562 626.484375 308.066406 L 584.042969 327.480469 " fill-opacity="1" fill-rule="nonzero"/><path fill="#2e006c" d="M 671.648438 286.941406 C 669.84375 286.941406 668.125 285.914062 667.332031 284.167969 C 666.234375 281.785156 667.285156 278.96875 669.671875 277.878906 L 686.285156 270.28125 C 688.667969 269.191406 691.480469 270.238281 692.574219 272.625 C 693.664062 275.007812 692.613281 277.824219 690.230469 278.914062 L 673.621094 286.511719 C 672.976562 286.804688 672.308594 286.941406 671.648438 286.941406 " fill-opacity="1" fill-rule="nonzero"/><path fill="#2e006c" d="M 138.046875 508.128906 C 136.34375 508.128906 134.703125 507.214844 133.851562 505.609375 C 132.617188 503.292969 133.5 500.417969 135.8125 499.191406 L 164.007812 484.21875 C 166.324219 482.992188 169.195312 483.871094 170.421875 486.1875 C 171.65625 488.5 170.773438 491.375 168.460938 492.605469 L 140.265625 507.574219 C 139.558594 507.953125 138.796875 508.128906 138.046875 508.128906 " fill-opacity="1" fill-rule="nonzero"/><path fill="#2e006c" d="M 72.503906 543.554688 L 68.046875 535.171875 L 109.847656 512.976562 C 112.164062 511.75 115.035156 512.628906 116.265625 514.945312 C 117.492188 517.261719 116.613281 520.132812 114.300781 521.363281 L 72.503906 543.554688 " fill-opacity="1" fill-rule="nonzero"/><path fill="#2e006c" d="M 606.492188 503.414062 C 605.742188 503.414062 604.980469 503.234375 604.273438 502.859375 L 584.957031 492.605469 C 582.640625 491.375 581.761719 488.5 582.992188 486.1875 C 584.222656 483.871094 587.09375 482.992188 589.410156 484.21875 L 608.722656 494.476562 C 611.039062 495.707031 611.917969 498.578125 610.6875 500.894531 C 609.835938 502.5 608.195312 503.414062 606.492188 503.414062 " fill-opacity="1" fill-rule="nonzero"/><path fill="#2e006c" d="M 683.136719 544.109375 C 682.386719 544.109375 681.621094 543.929688 680.917969 543.554688 L 634.289062 518.796875 C 631.972656 517.570312 631.089844 514.695312 632.320312 512.378906 C 633.550781 510.066406 636.425781 509.183594 638.738281 510.414062 L 685.367188 535.171875 C 687.679688 536.398438 688.5625 539.273438 687.335938 541.589844 C 686.480469 543.195312 684.839844 544.109375 683.136719 544.109375 " fill-opacity="1" fill-rule="nonzero"/></svg>