<svg xmlns="http://www.w3.org/2000/svg" xmlns:xlink="http://www.w3.org/1999/xlink" width="250" zoomAndPan="magnify" viewBox="0 0 187.5 112.499997" height="150" preserveAspectRatio="xMidYMid meet" version="1.0"><defs><clipPath id="0bc6720d43"><path d="M 50.246094 11.199219 L 136 11.199219 L 136 100.800781 L 50.246094 100.800781 Z M 50.246094 11.199219 " clip-rule="nonzero"/></clipPath></defs><g clip-path="url(#0bc6720d43)"><path fill="#65451f" d="M 50.488281 12.746094 L 50.488281 99.257812 C 50.488281 99.460938 50.527344 99.660156 50.605469 99.847656 C 50.683594 100.039062 50.796875 100.203125 50.941406 100.347656 C 51.085938 100.496094 51.253906 100.605469 51.441406 100.683594 C 51.632812 100.761719 51.828125 100.800781 52.03125 100.800781 L 120.007812 100.800781 C 120.210938 100.800781 120.410156 100.761719 120.597656 100.683594 C 120.789062 100.605469 120.953125 100.496094 121.097656 100.347656 C 121.242188 100.203125 121.355469 100.039062 121.433594 99.847656 C 121.511719 99.660156 121.550781 99.460938 121.550781 99.257812 L 121.550781 73.394531 L 132.890625 56 L 134.683594 53.265625 C 134.910156 52.917969 135.101562 52.550781 135.257812 52.164062 C 135.410156 51.777344 135.527344 51.378906 135.601562 50.972656 C 135.679688 50.5625 135.714844 50.148438 135.710938 49.734375 C 135.707031 49.316406 135.664062 48.90625 135.578125 48.5 C 135.492188 48.09375 135.367188 47.695312 135.203125 47.3125 C 135.042969 46.929688 134.84375 46.566406 134.609375 46.222656 C 134.375 45.878906 134.109375 45.5625 133.8125 45.269531 C 133.515625 44.980469 133.191406 44.71875 132.84375 44.492188 L 132.503906 44.277344 C 132.15625 44.046875 131.789062 43.855469 131.402344 43.699219 C 131.015625 43.542969 130.621094 43.429688 130.210938 43.351562 C 129.800781 43.273438 129.386719 43.238281 128.972656 43.242188 C 128.554688 43.246094 128.144531 43.289062 127.734375 43.375 C 127.328125 43.460938 126.933594 43.585938 126.550781 43.75 C 126.167969 43.910156 125.804688 44.109375 125.460938 44.347656 C 125.117188 44.582031 124.800781 44.847656 124.507812 45.144531 C 124.214844 45.441406 123.957031 45.765625 123.730469 46.113281 L 122.324219 48.277344 L 121.519531 49.511719 L 121.519531 23.898438 C 121.515625 23.492188 121.371094 23.140625 121.089844 22.847656 L 109.917969 11.648438 C 109.632812 11.347656 109.28125 11.199219 108.867188 11.199219 L 51.988281 11.199219 C 51.785156 11.207031 51.59375 11.25 51.410156 11.332031 C 51.226562 11.410156 51.0625 11.523438 50.925781 11.667969 C 50.785156 11.8125 50.675781 11.976562 50.601562 12.164062 C 50.527344 12.351562 50.488281 12.542969 50.488281 12.746094 Z M 113.828125 79.777344 L 107.878906 75.882812 L 124.007812 51.148438 L 129.957031 55.042969 Z M 107.015625 78.878906 L 111.292969 81.675781 L 106.519531 84.304688 Z M 130.882812 46.730469 L 131.222656 46.949219 C 131.59375 47.191406 131.90625 47.492188 132.160156 47.859375 C 132.410156 48.226562 132.582031 48.628906 132.671875 49.0625 C 132.765625 49.496094 132.769531 49.933594 132.6875 50.371094 C 132.605469 50.808594 132.441406 51.210938 132.195312 51.582031 L 131.578125 52.523438 L 125.628906 48.648438 L 126.25 47.691406 C 126.492188 47.320312 126.796875 47.011719 127.164062 46.761719 C 127.53125 46.511719 127.933594 46.34375 128.367188 46.253906 C 128.800781 46.164062 129.238281 46.160156 129.671875 46.242188 C 130.109375 46.324219 130.511719 46.488281 130.882812 46.730469 Z M 116.980469 22.957031 L 109.839844 22.957031 L 109.839844 15.835938 Z M 53.484375 14.183594 L 106.84375 14.183594 L 106.84375 24.46875 C 106.84375 24.675781 106.882812 24.871094 106.960938 25.0625 C 107.039062 25.25 107.152344 25.417969 107.296875 25.5625 C 107.441406 25.707031 107.609375 25.820312 107.796875 25.898438 C 107.988281 25.976562 108.183594 26.015625 108.390625 26.015625 L 118.570312 26.015625 L 118.570312 54.070312 L 104.542969 75.449219 C 104.496094 75.535156 104.460938 75.621094 104.433594 75.714844 C 104.398438 75.808594 104.367188 75.90625 104.34375 76.007812 L 103.351562 86.898438 C 103.332031 87.171875 103.382812 87.433594 103.5 87.683594 C 103.617188 87.929688 103.789062 88.132812 104.015625 88.289062 C 104.257812 88.425781 104.515625 88.496094 104.789062 88.496094 C 105.066406 88.496094 105.324219 88.425781 105.5625 88.289062 L 114.941406 83.128906 C 115.09375 83.050781 115.222656 82.941406 115.324219 82.804688 L 115.402344 82.710938 L 118.492188 78.078125 L 118.492188 97.820312 L 53.484375 97.820312 Z M 53.484375 14.183594 " fill-opacity="1" fill-rule="nonzero"/></g><path fill="#65451f" d="M 63.125 33.414062 L 109.472656 33.570312 C 109.703125 33.628906 109.933594 33.632812 110.167969 33.582031 C 110.398438 33.535156 110.609375 33.4375 110.796875 33.289062 C 110.984375 33.144531 111.128906 32.960938 111.234375 32.75 C 111.339844 32.535156 111.390625 32.308594 111.390625 32.070312 C 111.390625 31.832031 111.339844 31.609375 111.234375 31.394531 C 111.128906 31.179688 110.984375 31 110.796875 30.851562 C 110.609375 30.707031 110.398438 30.609375 110.167969 30.558594 C 109.933594 30.511719 109.703125 30.515625 109.472656 30.574219 L 63.125 30.433594 C 62.894531 30.371094 62.660156 30.363281 62.421875 30.410156 C 62.1875 30.453125 61.972656 30.550781 61.78125 30.695312 C 61.589844 30.84375 61.441406 31.023438 61.335938 31.238281 C 61.226562 31.457031 61.175781 31.683594 61.175781 31.925781 C 61.175781 32.164062 61.226562 32.394531 61.335938 32.609375 C 61.441406 32.824219 61.589844 33.003906 61.78125 33.152344 C 61.972656 33.296875 62.1875 33.394531 62.421875 33.441406 C 62.660156 33.488281 62.894531 33.476562 63.125 33.414062 Z M 63.125 33.414062 " fill-opacity="1" fill-rule="nonzero"/><path fill="#65451f" d="M 63.125 47.582031 L 109.472656 47.734375 C 109.675781 47.734375 109.871094 47.695312 110.0625 47.617188 C 110.25 47.539062 110.417969 47.429688 110.5625 47.285156 C 110.707031 47.140625 110.820312 46.972656 110.898438 46.78125 C 110.976562 46.59375 111.015625 46.394531 111.015625 46.191406 C 111.015625 45.988281 110.976562 45.789062 110.898438 45.601562 C 110.820312 45.410156 110.707031 45.242188 110.5625 45.097656 C 110.417969 44.953125 110.25 44.84375 110.0625 44.765625 C 109.871094 44.6875 109.675781 44.644531 109.472656 44.644531 L 63.125 44.492188 C 62.894531 44.429688 62.660156 44.421875 62.421875 44.464844 C 62.1875 44.511719 61.972656 44.609375 61.78125 44.753906 C 61.589844 44.902344 61.441406 45.082031 61.335938 45.296875 C 61.226562 45.515625 61.175781 45.742188 61.175781 45.984375 C 61.175781 46.222656 61.226562 46.453125 61.335938 46.667969 C 61.441406 46.882812 61.589844 47.0625 61.78125 47.210938 C 61.972656 47.355469 62.1875 47.453125 62.421875 47.5 C 62.660156 47.546875 62.894531 47.535156 63.125 47.472656 Z M 63.125 47.582031 " fill-opacity="1" fill-rule="nonzero"/><path fill="#65451f" d="M 99.921875 58.921875 L 63.125 58.765625 C 62.894531 58.707031 62.664062 58.703125 62.429688 58.753906 C 62.195312 58.804688 61.988281 58.902344 61.800781 59.046875 C 61.613281 59.191406 61.464844 59.375 61.359375 59.585938 C 61.257812 59.800781 61.203125 60.027344 61.203125 60.265625 C 61.203125 60.503906 61.257812 60.730469 61.359375 60.941406 C 61.464844 61.15625 61.613281 61.335938 61.800781 61.484375 C 61.988281 61.628906 62.195312 61.726562 62.429688 61.777344 C 62.664062 61.824219 62.894531 61.820312 63.125 61.761719 L 99.921875 61.902344 C 100.15625 61.964844 100.390625 61.972656 100.625 61.925781 C 100.863281 61.882812 101.074219 61.785156 101.265625 61.640625 C 101.457031 61.492188 101.605469 61.3125 101.714844 61.097656 C 101.820312 60.878906 101.875 60.652344 101.875 60.410156 C 101.875 60.171875 101.820312 59.941406 101.714844 59.726562 C 101.605469 59.511719 101.457031 59.332031 101.265625 59.183594 C 101.074219 59.039062 100.863281 58.941406 100.625 58.894531 C 100.390625 58.847656 100.15625 58.859375 99.921875 58.921875 Z M 99.921875 58.921875 " fill-opacity="1" fill-rule="nonzero"/><path fill="#65451f" d="M 94.996094 80.71875 L 63.757812 80.519531 C 63.421875 80.609375 63.148438 80.792969 62.9375 81.070312 C 62.726562 81.347656 62.617188 81.660156 62.617188 82.007812 C 62.617188 82.355469 62.726562 82.671875 62.9375 82.945312 C 63.148438 83.222656 63.421875 83.40625 63.757812 83.5 L 95.027344 83.652344 C 95.257812 83.710938 95.488281 83.714844 95.722656 83.667969 C 95.953125 83.617188 96.164062 83.519531 96.351562 83.375 C 96.539062 83.226562 96.6875 83.046875 96.789062 82.832031 C 96.894531 82.621094 96.945312 82.394531 96.945312 82.15625 C 96.945312 81.917969 96.894531 81.691406 96.789062 81.476562 C 96.6875 81.265625 96.539062 81.082031 96.351562 80.9375 C 96.164062 80.792969 95.953125 80.695312 95.722656 80.644531 C 95.488281 80.59375 95.257812 80.597656 95.027344 80.65625 Z M 94.996094 80.71875 " fill-opacity="1" fill-rule="nonzero"/></svg>