<svg xmlns="http://www.w3.org/2000/svg" xmlns:xlink="http://www.w3.org/1999/xlink" width="1000" zoomAndPan="magnify" viewBox="0 0 750 749.999995" height="1000" preserveAspectRatio="xMidYMid meet" version="1.0"><defs><clipPath id="ac89eee7fa"><path d="M 68.4375 177 L 593 177 L 593 609 L 68.4375 609 Z M 68.4375 177 " clip-rule="nonzero"/></clipPath><clipPath id="3f8c9534f8"><path d="M 603.480469 264 L 681.1875 264 L 681.1875 368.082031 L 603.480469 368.082031 Z M 603.480469 264 " clip-rule="nonzero"/></clipPath><clipPath id="ca47e4fffe"><path d="M 157.546875 379.257812 L 681.1875 379.257812 L 681.1875 694.859375 L 157.546875 694.859375 Z M 157.546875 379.257812 " clip-rule="nonzero"/></clipPath><clipPath id="772eaeb907"><path d="M 146 55.109375 L 270 55.109375 L 270 178 L 146 178 Z M 146 55.109375 " clip-rule="nonzero"/></clipPath></defs><g clip-path="url(#ac89eee7fa)"><path fill="#8a2be2" d="M 551.609375 368.007812 C 554.726562 368.007812 557.257812 370.53125 557.257812 373.652344 C 557.257812 376.769531 554.726562 379.300781 551.609375 379.300781 L 109.398438 379.300781 C 106.277344 379.300781 103.75 376.769531 103.75 373.652344 C 103.75 370.53125 106.277344 368.007812 109.398438 368.007812 Z M 551.609375 455.886719 L 109.398438 455.886719 C 106.277344 455.886719 103.75 453.355469 103.75 450.238281 C 103.75 447.117188 106.277344 444.59375 109.398438 444.59375 L 551.609375 444.59375 C 554.726562 444.59375 557.257812 447.117188 557.257812 450.238281 C 557.257812 453.355469 554.726562 455.886719 551.609375 455.886719 Z M 551.609375 532.472656 L 109.398438 532.472656 C 106.277344 532.472656 103.75 529.945312 103.75 526.828125 C 103.75 523.707031 106.277344 521.179688 109.398438 521.179688 L 551.609375 521.179688 C 554.726562 521.179688 557.257812 523.707031 557.257812 526.828125 C 557.257812 529.945312 554.726562 532.472656 551.609375 532.472656 Z M 240.421875 280.371094 C 240.421875 305.195312 220.226562 325.390625 195.398438 325.390625 C 170.574219 325.390625 150.375 305.195312 150.375 280.371094 L 150.375 177.253906 L 81.851562 177.253906 C 74.539062 177.253906 68.589844 183.203125 68.589844 190.511719 L 68.589844 281.152344 L 132.972656 281.152344 C 136.09375 281.152344 138.621094 283.679688 138.621094 286.796875 C 138.621094 289.917969 136.09375 292.445312 132.972656 292.445312 L 68.589844 292.445312 L 68.589844 594.773438 C 68.589844 602.082031 74.539062 608.03125 81.851562 608.03125 L 579.15625 608.03125 C 586.464844 608.03125 592.414062 602.082031 592.414062 594.773438 L 592.414062 292.445312 L 259.957031 292.445312 C 256.839844 292.445312 254.308594 289.917969 254.308594 286.796875 C 254.308594 283.679688 256.839844 281.152344 259.957031 281.152344 L 592.414062 281.152344 L 592.414062 190.511719 C 592.414062 183.203125 586.464844 177.253906 579.15625 177.253906 L 240.421875 177.253906 L 240.421875 280.371094 " fill-opacity="1" fill-rule="nonzero"/></g><path fill="#8a2be2" d="M 182.925781 281.152344 L 207.914062 281.152344 C 211.03125 281.152344 213.558594 283.679688 213.558594 286.800781 C 213.558594 289.917969 211.03125 292.445312 207.914062 292.445312 L 182.925781 292.445312 C 179.808594 292.445312 177.28125 289.917969 177.28125 286.800781 C 177.28125 283.679688 179.808594 281.152344 182.925781 281.152344 Z M 195.398438 314.101562 C 213.996094 314.101562 229.128906 298.96875 229.128906 280.367188 L 229.128906 177.253906 L 161.667969 177.253906 L 161.667969 280.367188 C 161.667969 298.96875 176.800781 314.101562 195.398438 314.101562 " fill-opacity="1" fill-rule="nonzero"/><g clip-path="url(#3f8c9534f8)"><path fill="#8a2be2" d="M 668.136719 264.109375 L 603.707031 264.109375 L 603.707031 368.003906 L 681.394531 368.003906 L 681.394531 277.367188 C 681.394531 270.054688 675.445312 264.109375 668.136719 264.109375 " fill-opacity="1" fill-rule="nonzero"/></g><g clip-path="url(#ca47e4fffe)"><path fill="#8a2be2" d="M 603.707031 454.859375 L 640.597656 454.859375 C 643.71875 454.859375 646.246094 457.386719 646.246094 460.503906 C 646.246094 463.625 643.71875 466.152344 640.597656 466.152344 L 603.707031 466.152344 L 603.707031 531.445312 L 640.597656 531.445312 C 643.71875 531.445312 646.246094 533.972656 646.246094 537.089844 C 646.246094 540.210938 643.71875 542.738281 640.597656 542.738281 L 603.707031 542.738281 L 603.707031 594.773438 C 603.707031 599.660156 602.253906 604.203125 599.789062 608.03125 L 640.597656 608.03125 C 643.71875 608.03125 646.246094 610.558594 646.246094 613.679688 C 646.246094 616.800781 643.71875 619.324219 640.597656 619.324219 L 157.574219 619.324219 L 157.574219 681.625 C 157.574219 688.9375 163.523438 694.882812 170.832031 694.882812 L 668.136719 694.882812 C 675.445312 694.882812 681.394531 688.9375 681.394531 681.625 L 681.394531 379.296875 L 603.707031 379.296875 L 603.707031 454.859375 " fill-opacity="1" fill-rule="nonzero"/></g><path fill="#8a2be2" d="M 234.777344 128.613281 C 229.640625 128.613281 225.464844 132.789062 225.464844 137.925781 L 225.464844 177.253906 L 244.085938 177.253906 L 244.085938 137.925781 C 244.085938 132.789062 239.910156 128.613281 234.777344 128.613281 " fill-opacity="1" fill-rule="nonzero"/><g clip-path="url(#772eaeb907)"><path fill="#8a2be2" d="M 207.914062 55.109375 C 174.167969 55.109375 146.710938 82.566406 146.710938 116.308594 L 146.710938 177.253906 L 165.332031 177.253906 L 165.332031 116.308594 C 165.332031 92.828125 184.433594 73.730469 207.914062 73.730469 C 231.390625 73.730469 250.492188 92.828125 250.492188 116.308594 L 250.492188 155.734375 C 250.492188 160.867188 254.667969 165.046875 259.804688 165.046875 C 264.9375 165.046875 269.113281 160.867188 269.113281 155.734375 L 269.113281 116.308594 C 269.113281 82.566406 241.660156 55.109375 207.914062 55.109375 " fill-opacity="1" fill-rule="nonzero"/></g></svg>