<svg xmlns="http://www.w3.org/2000/svg" xmlns:xlink="http://www.w3.org/1999/xlink" width="1000" zoomAndPan="magnify" viewBox="0 0 750 749.999995" height="1000" preserveAspectRatio="xMidYMid meet" version="1.0"><defs><clipPath id="7095e0548c"><path d="M 342.40625 651 L 409.597656 651 L 409.597656 687.648438 L 342.40625 687.648438 Z M 342.40625 651 " clip-rule="nonzero"/></clipPath><clipPath id="f2f91c9b7b"><path d="M 371 62.324219 L 381 62.324219 L 381 101 L 371 101 Z M 371 62.324219 " clip-rule="nonzero"/></clipPath><clipPath id="118742a54c"><path d="M 664.320312 403.21875 L 719.515625 403.21875 L 719.515625 412.992188 L 664.320312 412.992188 Z M 664.320312 403.21875 " clip-rule="nonzero"/></clipPath><clipPath id="7c3231c941"><path d="M 30.265625 401 L 85 401 L 85 411 L 30.265625 411 Z M 30.265625 401 " clip-rule="nonzero"/></clipPath></defs><path fill="#8a2be2" d="M 320.21875 251.628906 C 295.132812 251.628906 274.097656 271.214844 272.332031 296.21875 L 272.148438 298.84375 L 269.78125 299.992188 C 245.113281 311.992188 229.789062 336.476562 229.789062 363.886719 C 229.789062 378.492188 234.203125 392.535156 242.5625 404.496094 L 243.65625 406.058594 L 243.308594 407.933594 C 243.1875 408.582031 243.082031 409.234375 242.996094 409.890625 L 242.824219 411.183594 L 242 412.1875 C 229.667969 427.179688 222.875 446.148438 222.875 465.597656 C 222.875 507.019531 253.726562 542.800781 294.644531 548.824219 L 296.433594 549.089844 L 297.554688 550.511719 C 308.628906 564.566406 326.007812 573.738281 346.492188 576.332031 C 349.730469 576.742188 352.871094 575.773438 355.332031 573.601562 C 357.785156 571.441406 359.191406 568.328125 359.191406 565.0625 L 359.191406 252.25 C 359.191406 244.890625 353.835938 241.582031 349.257812 240.984375 C 344.726562 240.390625 338.773438 242.199219 336.90625 249.230469 L 335.707031 253.972656 L 331.339844 252.9375 C 327.679688 252.070312 323.9375 251.628906 320.21875 251.628906 Z M 347.894531 585.527344 C 347.046875 585.527344 346.195312 585.472656 345.347656 585.367188 C 323.15625 582.554688 304.128906 572.707031 291.539062 557.554688 C 270.316406 554.007812 250.886719 543.132812 236.664062 526.800781 C 221.898438 509.84375 213.765625 488.109375 213.765625 465.597656 C 213.765625 444.65625 220.875 424.214844 233.816406 407.824219 C 225.214844 394.75 220.679688 379.605469 220.679688 363.886719 C 220.679688 348.566406 225.019531 333.675781 233.226562 320.824219 C 240.746094 309.042969 251.175781 299.460938 263.488281 292.96875 C 266.824219 264.476562 291.253906 242.523438 320.21875 242.523438 C 323.285156 242.523438 326.363281 242.773438 329.414062 243.269531 C 333.117188 235.3125 341.292969 230.761719 350.433594 231.953125 C 359.035156 233.074219 368.296875 239.90625 368.296875 252.25 L 368.296875 565.0625 C 368.296875 570.941406 365.765625 576.546875 361.355469 580.4375 C 357.613281 583.734375 352.8125 585.527344 347.894531 585.527344 " fill-opacity="1" fill-rule="nonzero"/><path fill="#8a2be2" d="M 298.8125 557.730469 C 296.167969 557.730469 293.523438 557.550781 290.898438 557.183594 L 292.15625 548.164062 C 301.785156 549.503906 311.761719 547.894531 320.25 543.632812 L 324.335938 551.773438 C 316.535156 555.691406 307.695312 557.730469 298.8125 557.730469 " fill-opacity="1" fill-rule="nonzero"/><path fill="#8a2be2" d="M 326.28125 555.195312 C 330.339844 552.765625 331.660156 547.511719 329.230469 543.453125 C 326.804688 539.398438 321.542969 538.074219 317.488281 540.503906 C 313.429688 542.933594 312.113281 548.191406 314.539062 552.246094 C 316.96875 556.304688 322.226562 557.625 326.28125 555.195312 " fill-opacity="1" fill-rule="nonzero"/><path fill="#8a2be2" d="M 277.371094 444.007812 C 259.226562 436.363281 244.175781 423.832031 233.84375 407.761719 L 241.507812 402.832031 C 250.839844 417.351562 264.464844 428.6875 280.910156 435.613281 L 277.371094 444.007812 " fill-opacity="1" fill-rule="nonzero"/><path fill="#8a2be2" d="M 275.738281 447.644531 C 280.164062 449.308594 285.101562 447.066406 286.765625 442.644531 C 288.425781 438.21875 286.1875 433.28125 281.761719 431.617188 C 277.335938 429.953125 272.398438 432.195312 270.734375 436.617188 C 269.074219 441.042969 271.3125 445.980469 275.738281 447.644531 " fill-opacity="1" fill-rule="nonzero"/><path fill="#8a2be2" d="M 255.578125 309.109375 L 250.128906 301.8125 C 265.4375 290.378906 283.925781 283.910156 303.59375 283.109375 L 303.964844 292.210938 C 286.140625 292.9375 269.410156 298.78125 255.578125 309.109375 " fill-opacity="1" fill-rule="nonzero"/><path fill="#8a2be2" d="M 303.367188 296.253906 C 308.09375 296.242188 311.921875 292.402344 311.914062 287.675781 C 311.90625 282.949219 308.066406 279.121094 303.339844 279.128906 C 298.613281 279.136719 294.785156 282.976562 294.792969 287.703125 C 294.800781 292.433594 298.640625 296.261719 303.367188 296.253906 " fill-opacity="1" fill-rule="nonzero"/><path fill="#8a2be2" d="M 317.085938 345 L 311.78125 337.59375 C 324.59375 328.414062 333.898438 314.453125 337.304688 299.289062 C 341.300781 281.507812 337.277344 262.097656 326.542969 247.363281 L 333.90625 242 C 346.160156 258.820312 350.753906 280.984375 346.191406 301.289062 C 342.300781 318.601562 331.691406 334.535156 317.085938 345 " fill-opacity="1" fill-rule="nonzero"/><path fill="#8a2be2" d="M 310.175781 333.804688 C 306.183594 336.34375 305.007812 341.632812 307.542969 345.621094 C 310.082031 349.609375 315.375 350.789062 319.363281 348.25 C 323.351562 345.714844 324.527344 340.421875 321.992188 336.433594 C 319.453125 332.441406 314.160156 331.265625 310.175781 333.804688 " fill-opacity="1" fill-rule="nonzero"/><path fill="#8a2be2" d="M 362.480469 491.746094 C 349.3125 487.949219 337.460938 477.25 328.214844 460.804688 C 325.015625 455.109375 322.257812 449.15625 319.59375 443.402344 C 316.085938 435.824219 312.773438 428.664062 308.5 421.953125 C 300.722656 409.730469 289.894531 399.480469 277.183594 392.3125 L 281.65625 384.378906 C 295.667969 392.28125 307.605469 403.582031 316.183594 417.0625 C 320.78125 424.289062 324.382812 432.0625 327.859375 439.574219 C 330.453125 445.171875 333.128906 450.960938 336.15625 456.339844 C 341.769531 466.324219 351.328125 479.054688 365.003906 482.992188 L 362.480469 491.746094 " fill-opacity="1" fill-rule="nonzero"/><path fill="#8a2be2" d="M 275.835938 396.203125 C 271.636719 394.035156 269.992188 388.867188 272.164062 384.667969 C 274.335938 380.46875 279.5 378.820312 283.699219 380.992188 C 287.898438 383.164062 289.542969 388.332031 287.371094 392.53125 C 285.203125 396.730469 280.035156 398.375 275.835938 396.203125 " fill-opacity="1" fill-rule="nonzero"/><path fill="#8a2be2" d="M 404.628906 240.878906 C 404.078125 240.878906 403.535156 240.917969 403.011719 240.984375 C 398.429688 241.582031 393.078125 244.890625 393.078125 252.25 L 393.078125 565.0625 C 393.078125 568.328125 394.484375 571.441406 396.9375 573.601562 C 399.398438 575.773438 402.535156 576.742188 405.777344 576.332031 C 426.261719 573.738281 443.640625 564.566406 454.710938 550.511719 L 455.835938 549.089844 L 457.625 548.824219 C 498.539062 542.800781 529.394531 507.019531 529.394531 465.597656 C 529.394531 446.148438 522.601562 427.179688 510.269531 412.1875 L 509.441406 411.183594 L 509.269531 409.890625 C 509.183594 409.234375 509.082031 408.578125 508.960938 407.933594 L 508.613281 406.058594 L 509.707031 404.496094 C 518.0625 392.535156 522.480469 378.492188 522.480469 363.886719 C 522.480469 336.476562 507.15625 311.992188 482.488281 299.992188 L 480.121094 298.84375 L 479.9375 296.21875 C 478.171875 271.214844 457.136719 251.628906 432.050781 251.628906 C 428.332031 251.628906 424.589844 252.070312 420.929688 252.9375 L 416.5625 253.972656 L 415.359375 249.226562 C 413.710938 243.011719 408.863281 240.878906 404.628906 240.878906 Z M 404.375 585.527344 C 399.457031 585.527344 394.65625 583.734375 390.914062 580.4375 C 386.5 576.546875 383.972656 570.941406 383.972656 565.0625 L 383.972656 252.25 C 383.972656 239.90625 393.230469 233.074219 401.835938 231.953125 C 410.976562 230.761719 419.148438 235.3125 422.855469 243.269531 C 425.90625 242.773438 428.984375 242.523438 432.050781 242.523438 C 461.015625 242.523438 485.445312 264.476562 488.777344 292.96875 C 501.089844 299.460938 511.519531 309.042969 519.042969 320.824219 C 527.25 333.675781 531.589844 348.566406 531.589844 363.886719 C 531.589844 379.605469 527.050781 394.75 518.449219 407.824219 C 531.394531 424.214844 538.503906 444.65625 538.503906 465.597656 C 538.503906 488.109375 530.371094 509.84375 515.605469 526.800781 C 501.378906 543.132812 481.953125 554.007812 460.726562 557.554688 C 448.140625 572.707031 429.113281 582.554688 406.921875 585.367188 C 406.070312 585.472656 405.222656 585.527344 404.375 585.527344 " fill-opacity="1" fill-rule="nonzero"/><path fill="#8a2be2" d="M 453.457031 557.730469 C 444.574219 557.730469 435.730469 555.691406 427.933594 551.773438 L 432.019531 543.632812 C 440.507812 547.894531 450.480469 549.503906 460.113281 548.164062 L 461.371094 557.183594 C 458.746094 557.550781 456.097656 557.730469 453.457031 557.730469 " fill-opacity="1" fill-rule="nonzero"/><path fill="#8a2be2" d="M 434.777344 540.503906 C 430.722656 538.074219 425.464844 539.398438 423.039062 543.453125 C 420.609375 547.511719 421.929688 552.765625 425.988281 555.195312 C 430.042969 557.625 435.300781 556.304688 437.726562 552.246094 C 440.15625 548.191406 438.835938 542.933594 434.777344 540.503906 " fill-opacity="1" fill-rule="nonzero"/><path fill="#8a2be2" d="M 474.898438 444.007812 L 471.359375 435.613281 C 487.804688 428.6875 501.429688 417.351562 510.761719 402.832031 L 518.421875 407.761719 C 508.089844 423.832031 493.039062 436.363281 474.898438 444.007812 " fill-opacity="1" fill-rule="nonzero"/><path fill="#8a2be2" d="M 470.507812 431.617188 C 466.082031 433.28125 463.84375 438.21875 465.503906 442.644531 C 467.167969 447.066406 472.105469 449.308594 476.53125 447.644531 C 480.957031 445.980469 483.195312 441.042969 481.53125 436.617188 C 479.871094 432.195312 474.933594 429.953125 470.507812 431.617188 " fill-opacity="1" fill-rule="nonzero"/><path fill="#8a2be2" d="M 496.6875 309.109375 C 482.859375 298.78125 466.128906 292.9375 448.300781 292.210938 L 448.671875 283.109375 C 468.34375 283.910156 486.828125 290.378906 502.140625 301.8125 L 496.6875 309.109375 " fill-opacity="1" fill-rule="nonzero"/><path fill="#8a2be2" d="M 448.929688 279.128906 C 444.203125 279.121094 440.359375 282.949219 440.351562 287.675781 C 440.347656 292.402344 444.171875 296.242188 448.902344 296.253906 C 453.628906 296.261719 457.46875 292.433594 457.476562 287.703125 C 457.484375 282.976562 453.65625 279.136719 448.929688 279.128906 " fill-opacity="1" fill-rule="nonzero"/><path fill="#8a2be2" d="M 435.183594 345 C 420.574219 334.535156 409.964844 318.601562 406.078125 301.289062 C 401.515625 280.984375 406.109375 258.820312 418.363281 242 L 425.722656 247.363281 C 414.992188 262.097656 410.96875 281.507812 414.960938 299.289062 C 418.371094 314.453125 427.671875 328.414062 440.488281 337.59375 L 435.183594 345 " fill-opacity="1" fill-rule="nonzero"/><path fill="#8a2be2" d="M 432.90625 348.25 C 436.894531 350.789062 442.1875 349.609375 444.722656 345.621094 C 447.261719 341.632812 446.085938 336.34375 442.09375 333.804688 C 438.105469 331.265625 432.816406 332.441406 430.277344 336.433594 C 427.742188 340.421875 428.917969 345.714844 432.90625 348.25 " fill-opacity="1" fill-rule="nonzero"/><path fill="#8a2be2" d="M 389.785156 491.746094 L 387.265625 482.992188 C 400.9375 479.054688 410.5 466.324219 416.113281 456.339844 C 419.136719 450.960938 421.816406 445.171875 424.40625 439.578125 C 427.886719 432.0625 431.484375 424.289062 436.085938 417.0625 C 444.660156 403.582031 456.601562 392.28125 470.613281 384.378906 L 475.085938 392.3125 C 462.375 399.480469 451.542969 409.730469 443.769531 421.953125 C 439.496094 428.667969 436.179688 435.828125 432.671875 443.40625 C 430.007812 449.160156 427.253906 455.109375 424.054688 460.804688 C 414.808594 477.25 402.957031 487.949219 389.785156 491.746094 " fill-opacity="1" fill-rule="nonzero"/><path fill="#8a2be2" d="M 468.566406 380.992188 C 472.765625 378.820312 477.933594 380.46875 480.105469 384.667969 C 482.273438 388.867188 480.628906 394.035156 476.429688 396.203125 C 472.230469 398.375 467.066406 396.730469 464.894531 392.53125 C 462.722656 388.332031 464.367188 383.164062 468.566406 380.992188 " fill-opacity="1" fill-rule="nonzero"/><path fill="#8a2be2" d="M 417.804688 602.351562 L 334.464844 602.351562 C 331.949219 602.351562 329.910156 600.3125 329.910156 597.796875 C 329.910156 595.28125 331.949219 593.246094 334.464844 593.246094 L 417.804688 593.246094 C 420.320312 593.246094 422.359375 595.28125 422.359375 597.796875 C 422.359375 600.3125 420.320312 602.351562 417.804688 602.351562 " fill-opacity="1" fill-rule="nonzero"/><path fill="#8a2be2" d="M 417.804688 620.300781 L 334.464844 620.300781 C 331.949219 620.300781 329.910156 618.261719 329.910156 615.746094 C 329.910156 613.230469 331.949219 611.195312 334.464844 611.195312 L 417.804688 611.195312 C 420.320312 611.195312 422.359375 613.230469 422.359375 615.746094 C 422.359375 618.261719 420.320312 620.300781 417.804688 620.300781 " fill-opacity="1" fill-rule="nonzero"/><path fill="#8a2be2" d="M 417.804688 638.246094 L 334.464844 638.246094 C 331.949219 638.246094 329.910156 636.207031 329.910156 633.691406 C 329.910156 631.175781 331.949219 629.140625 334.464844 629.140625 L 417.804688 629.140625 C 420.320312 629.140625 422.359375 631.175781 422.359375 633.691406 C 422.359375 636.207031 420.320312 638.246094 417.804688 638.246094 " fill-opacity="1" fill-rule="nonzero"/><path fill="#8a2be2" d="M 417.804688 656.195312 L 334.464844 656.195312 C 331.949219 656.195312 329.910156 654.15625 329.910156 651.640625 C 329.910156 649.125 331.949219 647.089844 334.464844 647.089844 L 417.804688 647.089844 C 420.320312 647.089844 422.359375 649.125 422.359375 651.640625 C 422.359375 654.15625 420.320312 656.195312 417.804688 656.195312 " fill-opacity="1" fill-rule="nonzero"/><g clip-path="url(#7095e0548c)"><path fill="#8a2be2" d="M 376.132812 687.648438 C 357.777344 687.648438 342.84375 672.710938 342.84375 654.355469 L 342.847656 653.769531 L 351.953125 653.914062 L 351.949219 654.355469 C 351.949219 667.691406 362.800781 678.539062 376.132812 678.539062 C 389.46875 678.539062 400.320312 667.691406 400.320312 654.355469 C 400.320312 653.589844 400.28125 652.820312 400.210938 652.066406 L 409.28125 651.214844 C 409.375 652.253906 409.425781 653.308594 409.425781 654.355469 C 409.425781 672.710938 394.492188 687.648438 376.132812 687.648438 " fill-opacity="1" fill-rule="nonzero"/></g><path fill="#8a2be2" d="M 376.132812 187.597656 C 373.617188 187.597656 371.582031 185.5625 371.582031 183.046875 L 371.582031 151.539062 C 371.582031 149.023438 373.617188 146.980469 376.132812 146.980469 C 378.648438 146.980469 380.6875 149.023438 380.6875 151.539062 L 380.6875 183.046875 C 380.6875 185.5625 378.648438 187.597656 376.132812 187.597656 " fill-opacity="1" fill-rule="nonzero"/><g clip-path="url(#f2f91c9b7b)"><path fill="#8a2be2" d="M 376.132812 100.644531 C 373.617188 100.644531 371.582031 98.605469 371.582031 96.089844 L 371.582031 66.917969 C 371.582031 64.410156 373.617188 62.367188 376.132812 62.367188 C 378.648438 62.367188 380.6875 64.410156 380.6875 66.917969 L 380.6875 96.089844 C 380.6875 98.605469 378.648438 100.644531 376.132812 100.644531 " fill-opacity="1" fill-rule="nonzero"/></g><path fill="#8a2be2" d="M 534.226562 254.03125 C 533.058594 254.03125 531.894531 253.585938 531.003906 252.695312 C 529.226562 250.917969 529.226562 248.035156 531.003906 246.257812 L 573.070312 204.191406 C 574.847656 202.414062 577.730469 202.414062 579.507812 204.191406 C 581.289062 205.96875 581.289062 208.855469 579.507812 210.632812 L 537.445312 252.695312 C 536.554688 253.585938 535.390625 254.03125 534.226562 254.03125 " fill-opacity="1" fill-rule="nonzero"/><path fill="#8a2be2" d="M 590.492188 197.765625 C 589.324219 197.765625 588.160156 197.320312 587.269531 196.429688 C 585.492188 194.652344 585.492188 191.765625 587.269531 189.988281 L 613.113281 164.144531 C 614.894531 162.367188 617.777344 162.367188 619.554688 164.144531 C 621.335938 165.921875 621.335938 168.808594 619.554688 170.585938 L 593.710938 196.429688 C 592.820312 197.320312 591.65625 197.765625 590.492188 197.765625 " fill-opacity="1" fill-rule="nonzero"/><path fill="#8a2be2" d="M 638.046875 412.792969 L 599.035156 412.792969 C 596.523438 412.792969 594.480469 410.753906 594.480469 408.238281 C 594.480469 405.722656 596.523438 403.683594 599.035156 403.683594 L 638.046875 403.683594 C 640.5625 403.683594 642.605469 405.722656 642.605469 408.238281 C 642.605469 410.753906 640.5625 412.792969 638.046875 412.792969 " fill-opacity="1" fill-rule="nonzero"/><g clip-path="url(#118742a54c)"><path fill="#8a2be2" d="M 715.160156 412.792969 L 669.152344 412.792969 C 666.636719 412.792969 664.59375 410.753906 664.59375 408.238281 C 664.59375 405.722656 666.636719 403.683594 669.152344 403.683594 L 715.160156 403.683594 C 717.671875 403.683594 719.710938 405.722656 719.710938 408.238281 C 719.710938 410.753906 717.671875 412.792969 715.160156 412.792969 " fill-opacity="1" fill-rule="nonzero"/></g><path fill="#8a2be2" d="M 553.707031 591.988281 C 552.542969 591.988281 551.375 591.542969 550.488281 590.652344 L 529.382812 569.550781 C 527.605469 567.769531 527.605469 564.886719 529.382812 563.109375 C 531.164062 561.332031 534.046875 561.332031 535.824219 563.109375 L 556.929688 584.214844 C 558.707031 585.992188 558.707031 588.875 556.929688 590.652344 C 556.039062 591.542969 554.875 591.988281 553.707031 591.988281 " fill-opacity="1" fill-rule="nonzero"/><path fill="#8a2be2" d="M 611.496094 651.660156 L 568.742188 608.90625 C 566.960938 607.128906 566.960938 604.246094 568.742188 602.46875 C 570.519531 600.6875 573.402344 600.6875 575.183594 602.46875 L 617.933594 645.21875 L 611.496094 651.660156 " fill-opacity="1" fill-rule="nonzero"/><path fill="#8a2be2" d="M 205.535156 579.480469 C 204.367188 579.480469 203.203125 579.039062 202.3125 578.148438 C 200.535156 576.371094 200.535156 573.484375 202.3125 571.707031 L 212.53125 561.488281 C 214.3125 559.710938 217.195312 559.710938 218.972656 561.488281 C 220.753906 563.269531 220.753906 566.152344 218.972656 567.929688 L 208.753906 578.148438 C 207.863281 579.039062 206.699219 579.480469 205.535156 579.480469 " fill-opacity="1" fill-rule="nonzero"/><path fill="#8a2be2" d="M 133.640625 651.375 C 132.476562 651.375 131.3125 650.929688 130.421875 650.039062 C 128.644531 648.261719 128.644531 645.378906 130.421875 643.597656 L 167.832031 606.191406 C 169.609375 604.410156 172.492188 604.410156 174.273438 606.191406 C 176.050781 607.96875 176.050781 610.851562 174.273438 612.628906 L 136.859375 650.039062 C 135.972656 650.929688 134.804688 651.375 133.640625 651.375 " fill-opacity="1" fill-rule="nonzero"/><path fill="#8a2be2" d="M 150.941406 410.503906 L 109.359375 410.503906 C 106.84375 410.503906 104.804688 408.460938 104.804688 405.949219 C 104.804688 403.433594 106.84375 401.390625 109.359375 401.390625 L 150.941406 401.390625 C 153.457031 401.390625 155.496094 403.433594 155.496094 405.949219 C 155.496094 408.460938 153.457031 410.503906 150.941406 410.503906 " fill-opacity="1" fill-rule="nonzero"/><g clip-path="url(#7c3231c941)"><path fill="#8a2be2" d="M 79.609375 410.503906 L 34.820312 410.503906 C 32.304688 410.503906 30.265625 408.460938 30.265625 405.949219 C 30.265625 403.433594 32.304688 401.390625 34.820312 401.390625 L 79.609375 401.390625 C 82.125 401.390625 84.160156 403.433594 84.160156 405.949219 C 84.160156 408.460938 82.125 410.503906 79.609375 410.503906 " fill-opacity="1" fill-rule="nonzero"/></g><path fill="#8a2be2" d="M 217.375 252.410156 C 216.207031 252.410156 215.042969 251.964844 214.152344 251.078125 L 191.085938 228.011719 C 189.308594 226.230469 189.308594 223.351562 191.085938 221.574219 C 192.867188 219.792969 195.746094 219.792969 197.527344 221.574219 L 220.59375 244.636719 C 222.371094 246.414062 222.371094 249.300781 220.59375 251.078125 C 219.703125 251.964844 218.539062 252.410156 217.375 252.410156 " fill-opacity="1" fill-rule="nonzero"/><path fill="#8a2be2" d="M 169.289062 204.332031 C 168.125 204.332031 166.960938 203.882812 166.070312 202.996094 L 132.042969 168.964844 C 130.261719 167.1875 130.261719 164.304688 132.042969 162.527344 C 133.820312 160.746094 136.703125 160.746094 138.480469 162.527344 L 172.511719 196.554688 C 174.289062 198.332031 174.289062 201.21875 172.511719 202.996094 C 171.621094 203.882812 170.457031 204.332031 169.289062 204.332031 " fill-opacity="1" fill-rule="nonzero"/><path fill="#8a2be2" d="M 302.398438 212.976562 C 300.886719 212.976562 299.40625 212.222656 298.539062 210.847656 L 285.3125 189.839844 C 283.972656 187.707031 284.613281 184.898438 286.742188 183.558594 C 288.871094 182.21875 291.679688 182.859375 293.023438 184.984375 L 306.25 205.996094 C 307.585938 208.125 306.949219 210.933594 304.820312 212.277344 C 304.066406 212.75 303.226562 212.976562 302.398438 212.976562 " fill-opacity="1" fill-rule="nonzero"/><path fill="#8a2be2" d="M 274.019531 167.898438 C 272.507812 167.898438 271.023438 167.144531 270.160156 165.765625 L 251.605469 136.289062 C 250.261719 134.160156 250.902344 131.347656 253.03125 130.011719 C 255.164062 128.667969 257.972656 129.308594 259.3125 131.4375 L 277.867188 160.914062 C 279.210938 163.042969 278.570312 165.855469 276.441406 167.195312 C 275.6875 167.671875 274.847656 167.898438 274.019531 167.898438 " fill-opacity="1" fill-rule="nonzero"/><path fill="#8a2be2" d="M 451.949219 212.976562 C 451.117188 212.976562 450.28125 212.75 449.527344 212.277344 C 447.398438 210.933594 446.757812 208.125 448.097656 205.996094 L 463.125 182.125 C 464.464844 179.996094 467.277344 179.355469 469.402344 180.695312 C 471.53125 182.035156 472.171875 184.847656 470.832031 186.976562 L 455.804688 210.847656 C 454.941406 212.222656 453.460938 212.976562 451.949219 212.976562 " fill-opacity="1" fill-rule="nonzero"/><path fill="#8a2be2" d="M 484.179688 161.769531 C 483.351562 161.769531 482.511719 161.542969 481.757812 161.070312 C 479.632812 159.730469 478.992188 156.917969 480.332031 154.789062 L 495.03125 131.4375 C 496.371094 129.308594 499.183594 128.667969 501.3125 130.011719 C 503.441406 131.347656 504.082031 134.160156 502.742188 136.289062 L 488.039062 159.640625 C 487.171875 161.015625 485.695312 161.769531 484.179688 161.769531 " fill-opacity="1" fill-rule="nonzero"/><path fill="#8a2be2" d="M 174.421875 329.414062 L 134.929688 311.351562 C 132.644531 310.304688 131.636719 307.601562 132.683594 305.316406 C 133.730469 303.03125 136.433594 302.023438 138.71875 303.066406 L 178.210938 321.128906 L 174.421875 329.414062 " fill-opacity="1" fill-rule="nonzero"/><path fill="#8a2be2" d="M 109.746094 299.382812 C 109.113281 299.382812 108.46875 299.246094 107.855469 298.96875 L 72.542969 282.816406 C 70.253906 281.773438 69.25 279.066406 70.296875 276.78125 C 71.339844 274.492188 74.042969 273.488281 76.328125 274.535156 L 111.644531 290.683594 C 113.929688 291.730469 114.9375 294.433594 113.890625 296.71875 C 113.125 298.394531 111.472656 299.382812 109.746094 299.382812 " fill-opacity="1" fill-rule="nonzero"/><path fill="#8a2be2" d="M 575.554688 329.414062 L 571.765625 321.128906 L 612.488281 302.503906 C 614.773438 301.457031 617.476562 302.464844 618.523438 304.753906 C 619.570312 307.039062 618.566406 309.742188 616.277344 310.785156 L 575.554688 329.414062 " fill-opacity="1" fill-rule="nonzero"/><path fill="#8a2be2" d="M 659.605469 290.519531 C 657.875 290.519531 656.226562 289.53125 655.464844 287.859375 C 654.414062 285.570312 655.421875 282.871094 657.710938 281.824219 L 673.648438 274.535156 C 675.933594 273.488281 678.632812 274.492188 679.683594 276.78125 C 680.726562 279.066406 679.722656 281.773438 677.433594 282.816406 L 661.5 290.105469 C 660.882812 290.386719 660.242188 290.519531 659.605469 290.519531 " fill-opacity="1" fill-rule="nonzero"/><path fill="#8a2be2" d="M 147.652344 502.734375 C 146.019531 502.734375 144.445312 501.855469 143.628906 500.3125 C 142.445312 498.09375 143.292969 495.332031 145.511719 494.15625 L 172.5625 479.792969 C 174.785156 478.613281 177.539062 479.457031 178.71875 481.679688 C 179.898438 483.898438 179.054688 486.65625 176.832031 487.835938 L 149.785156 502.199219 C 149.105469 502.5625 148.375 502.734375 147.652344 502.734375 " fill-opacity="1" fill-rule="nonzero"/><path fill="#8a2be2" d="M 84.769531 536.722656 L 80.496094 528.675781 L 120.601562 507.382812 C 122.820312 506.203125 125.578125 507.050781 126.753906 509.269531 C 127.933594 511.492188 127.09375 514.25 124.871094 515.429688 L 84.769531 536.722656 " fill-opacity="1" fill-rule="nonzero"/><path fill="#8a2be2" d="M 597.09375 498.207031 C 596.375 498.207031 595.644531 498.035156 594.964844 497.675781 L 576.433594 487.835938 C 574.210938 486.65625 573.367188 483.898438 574.546875 481.679688 C 575.726562 479.457031 578.484375 478.613281 580.703125 479.792969 L 599.234375 489.632812 C 601.457031 490.8125 602.300781 493.566406 601.121094 495.789062 C 600.304688 497.332031 598.726562 498.207031 597.09375 498.207031 " fill-opacity="1" fill-rule="nonzero"/><path fill="#8a2be2" d="M 670.628906 537.253906 C 669.910156 537.253906 669.175781 537.082031 668.5 536.722656 L 623.761719 512.96875 C 621.539062 511.789062 620.691406 509.03125 621.875 506.8125 C 623.054688 504.589844 625.8125 503.742188 628.03125 504.921875 L 672.769531 528.675781 C 674.988281 529.855469 675.835938 532.613281 674.65625 534.832031 C 673.835938 536.375 672.261719 537.253906 670.628906 537.253906 " fill-opacity="1" fill-rule="nonzero"/></svg>