<svg xmlns="http://www.w3.org/2000/svg" xmlns:xlink="http://www.w3.org/1999/xlink" width="1000" zoomAndPan="magnify" viewBox="0 0 750 749.999995" height="1000" preserveAspectRatio="xMidYMid meet" version="1.0"><defs><clipPath id="a8a07dc3d8"><path d="M 75 57 L 675 57 L 675 693.632812 L 75 693.632812 Z M 75 57 " clip-rule="nonzero"/></clipPath></defs><g clip-path="url(#a8a07dc3d8)"><path fill="#8a2be2" d="M 116.941406 646.460938 L 103.386719 647.058594 C 100.027344 647.210938 97.15625 644.597656 97.035156 641.226562 L 75.113281 146.558594 C 74.992188 143.1875 77.558594 140.335938 80.976562 140.1875 L 501.578125 121.574219 C 502.800781 117.195312 503.59375 114.632812 503.59375 114.632812 C 504.386719 111.832031 507.320312 110.226562 510.128906 111.050781 C 512.9375 111.875 514.523438 114.820312 513.730469 117.621094 C 513.730469 117.621094 513.363281 118.859375 512.691406 121.082031 L 515.132812 120.976562 C 517.453125 111.8125 520.019531 102.757812 522.523438 94.710938 C 526.980469 80.539062 531.683594 69.4375 535.222656 65.589844 C 541.574219 58.714844 552.6875 56.207031 562.703125 58.457031 C 572.960938 60.773438 581.753906 67.894531 583.21875 79.140625 C 584.257812 87.425781 582.546875 101.449219 579.128906 118.140625 L 624.4375 116.136719 C 625.230469 116.101562 625.964844 116.214844 626.695312 116.445312 L 630.910156 116.148438 C 634.265625 115.910156 637.199219 118.441406 637.441406 121.804688 L 674.753906 648.566406 C 674.996094 651.929688 672.492188 654.847656 669.136719 655.085938 L 126.40625 693.558594 C 123.046875 693.796875 120.117188 691.261719 119.933594 687.894531 Z M 182.953125 147.898438 L 87.570312 152.117188 L 87.691406 154.671875 C 87.875 154.644531 88.058594 154.625 88.242188 154.613281 Z M 96.976562 364.59375 L 108.941406 634.585938 L 116.085938 634.269531 Z M 568.382812 118.617188 C 571.863281 102.292969 573.753906 88.554688 572.714844 80.492188 C 571.863281 73.925781 566.367188 70.136719 560.382812 68.78125 C 554.09375 67.371094 547.007812 68.445312 543.039062 72.757812 C 539.988281 76.050781 536.445312 85.761719 532.660156 97.886719 C 530.460938 104.847656 528.261719 112.59375 526.125 120.488281 Z M 129.15625 645.914062 C 130.742188 667.878906 131.660156 680.941406 131.660156 680.941406 L 662.175781 643.339844 L 625.65625 128.761719 L 576.074219 132.277344 C 573.511719 143.445312 570.394531 155.324219 567.097656 167.175781 C 557.574219 201.558594 548.292969 234.113281 540.597656 246.824219 C 538.214844 250.746094 534.308594 253.546875 529.421875 255.132812 C 523.195312 257.132812 515.257812 257.175781 507.5625 255.5 C 499.929688 253.835938 492.601562 250.507812 487.472656 246.082031 C 483.566406 242.667969 480.878906 238.582031 479.902344 234.125 C 478.433594 227.34375 479.902344 213.464844 482.953125 197.378906 C 486.679688 177.769531 492.539062 154.675781 497.058594 137.878906 L 95.203125 166.363281 C 95.203125 166.363281 119.324219 506.558594 128.300781 633.730469 Z M 511.226562 136.871094 L 508.234375 137.085938 C 503.65625 153.859375 497.304688 178.578125 493.335938 199.347656 C 490.648438 213.613281 489 225.890625 490.28125 231.90625 C 490.769531 234.25 492.359375 236.28125 494.433594 238.078125 C 498.34375 241.460938 503.960938 243.886719 509.820312 245.15625 C 514.644531 246.21875 519.652344 246.46875 523.925781 245.628906 C 527.226562 244.980469 530.09375 243.765625 531.558594 241.34375 C 538.949219 229.066406 547.679688 197.546875 556.902344 164.34375 C 559.832031 153.734375 562.703125 143.113281 565.082031 133.054688 L 561.359375 133.316406 C 561.359375 133.617188 561.359375 133.921875 561.296875 134.226562 C 561.296875 134.226562 557.449219 156.21875 552.871094 172.667969 C 550.671875 180.367188 548.230469 186.902344 546.03125 190.007812 C 538.519531 200.578125 525.269531 201.992188 515.621094 197.6875 C 508.660156 194.59375 503.777344 188.644531 503.351562 181.433594 C 503.105469 176.242188 506.402344 157.667969 511.226562 136.871094 Z M 550.550781 134.082031 L 522.21875 136.09375 C 517.210938 156.839844 513.667969 175.707031 513.914062 180.855469 C 514.097656 184.164062 516.722656 186.601562 519.898438 188.023438 C 525.453125 190.488281 533.085938 189.933594 537.421875 183.878906 C 539.191406 181.375 540.902344 176.015625 542.671875 169.808594 C 546.398438 156.488281 549.636719 139.429688 550.550781 134.082031 Z M 550.550781 134.082031 " fill-opacity="1" fill-rule="evenodd"/></g></svg>