<svg xmlns="http://www.w3.org/2000/svg" xmlns:xlink="http://www.w3.org/1999/xlink" width="250" zoomAndPan="magnify" viewBox="0 0 187.5 112.499997" height="150" preserveAspectRatio="xMidYMid meet" version="1.0"><defs><clipPath id="c7859f98af"><path d="M 47 6.5625 L 140 6.5625 L 140 105.125 L 47 105.125 Z M 47 6.5625 " clip-rule="nonzero"/></clipPath></defs><g clip-path="url(#c7859f98af)"><path fill="#65451f" d="M 53.488281 98.085938 L 51.386719 98.179688 C 50.867188 98.203125 50.421875 97.796875 50.402344 97.277344 L 47.003906 20.585938 C 46.988281 20.0625 47.382812 19.621094 47.914062 19.597656 L 113.121094 16.710938 C 113.3125 16.03125 113.433594 15.636719 113.433594 15.636719 C 113.558594 15.203125 114.011719 14.953125 114.445312 15.082031 C 114.882812 15.207031 115.128906 15.664062 115.003906 16.097656 C 115.003906 16.097656 114.949219 16.289062 114.84375 16.636719 L 115.222656 16.621094 C 115.582031 15.199219 115.980469 13.796875 116.367188 12.546875 C 117.058594 10.351562 117.789062 8.628906 118.335938 8.03125 C 119.324219 6.964844 121.046875 6.578125 122.597656 6.925781 C 124.1875 7.285156 125.550781 8.390625 125.777344 10.132812 C 125.941406 11.417969 125.675781 13.59375 125.144531 16.179688 L 132.167969 15.871094 C 132.292969 15.863281 132.40625 15.882812 132.519531 15.917969 L 133.171875 15.871094 C 133.691406 15.832031 134.148438 16.226562 134.183594 16.75 L 139.96875 98.414062 C 140.007812 98.933594 139.621094 99.386719 139.097656 99.425781 L 54.957031 105.390625 C 54.4375 105.425781 53.980469 105.03125 53.953125 104.511719 Z M 63.722656 20.792969 L 48.9375 21.449219 L 48.957031 21.84375 C 48.984375 21.839844 49.011719 21.835938 49.039062 21.835938 Z M 50.394531 54.386719 L 52.25 96.246094 L 53.359375 96.195312 Z M 123.476562 16.253906 C 124.019531 13.722656 124.3125 11.59375 124.148438 10.34375 C 124.019531 9.324219 123.164062 8.738281 122.238281 8.527344 C 121.261719 8.308594 120.164062 8.476562 119.550781 9.144531 C 119.078125 9.65625 118.527344 11.160156 117.941406 13.039062 C 117.597656 14.117188 117.257812 15.320312 116.925781 16.542969 Z M 55.382812 98.003906 C 55.628906 101.40625 55.773438 103.433594 55.773438 103.433594 L 138.019531 97.601562 L 132.359375 17.828125 L 124.671875 18.371094 C 124.273438 20.101562 123.789062 21.945312 123.28125 23.78125 C 121.800781 29.113281 120.363281 34.160156 119.171875 36.128906 C 118.800781 36.738281 118.195312 37.171875 117.4375 37.417969 C 116.472656 37.726562 115.242188 37.734375 114.050781 37.476562 C 112.867188 37.21875 111.730469 36.699219 110.933594 36.015625 C 110.328125 35.484375 109.914062 34.851562 109.761719 34.160156 C 109.535156 33.109375 109.761719 30.957031 110.234375 28.464844 C 110.8125 25.425781 111.71875 21.84375 112.421875 19.238281 L 50.121094 23.65625 C 50.121094 23.65625 53.859375 76.398438 55.25 96.113281 Z M 114.617188 19.082031 L 114.152344 19.117188 C 113.445312 21.71875 112.457031 25.550781 111.84375 28.769531 C 111.425781 30.980469 111.171875 32.886719 111.371094 33.816406 C 111.445312 34.179688 111.691406 34.496094 112.015625 34.773438 C 112.621094 35.296875 113.492188 35.675781 114.398438 35.871094 C 115.148438 36.035156 115.921875 36.074219 116.585938 35.945312 C 117.097656 35.84375 117.542969 35.65625 117.769531 35.28125 C 118.914062 33.378906 120.269531 28.492188 121.699219 23.34375 C 122.152344 21.699219 122.597656 20.050781 122.96875 18.492188 L 122.390625 18.53125 C 122.390625 18.578125 122.390625 18.625 122.378906 18.671875 C 122.378906 18.671875 121.785156 22.082031 121.074219 24.632812 C 120.734375 25.828125 120.355469 26.839844 120.011719 27.320312 C 118.847656 28.960938 116.792969 29.179688 115.300781 28.511719 C 114.21875 28.03125 113.460938 27.109375 113.394531 25.992188 C 113.359375 25.1875 113.871094 22.308594 114.617188 19.082031 Z M 120.714844 18.652344 L 116.320312 18.964844 C 115.546875 22.179688 114.996094 25.105469 115.035156 25.902344 C 115.0625 26.414062 115.46875 26.792969 115.960938 27.015625 C 116.824219 27.394531 118.007812 27.308594 118.679688 26.371094 C 118.953125 25.984375 119.21875 25.152344 119.492188 24.191406 C 120.070312 22.125 120.570312 19.480469 120.714844 18.652344 Z M 120.714844 18.652344 " fill-opacity="1" fill-rule="evenodd"/></g></svg>