<svg xmlns="http://www.w3.org/2000/svg" xmlns:xlink="http://www.w3.org/1999/xlink" width="1000" zoomAndPan="magnify" viewBox="0 0 750 749.999995" height="1000" preserveAspectRatio="xMidYMid meet" version="1.0"><defs><clipPath id="f91969a941"><path d="M 116 105.789062 L 629 105.789062 L 629 644.289062 L 116 644.289062 Z M 116 105.789062 " clip-rule="nonzero"/></clipPath></defs><g clip-path="url(#f91969a941)"><path fill="#8a2be2" d="M 116.554688 115.074219 L 116.554688 634.925781 C 116.554688 635.535156 116.613281 636.140625 116.734375 636.738281 C 116.851562 637.335938 117.027344 637.914062 117.261719 638.476562 C 117.496094 639.042969 117.78125 639.578125 118.117188 640.082031 C 118.457031 640.589844 118.84375 641.058594 119.273438 641.488281 C 119.703125 641.921875 120.171875 642.304688 120.679688 642.644531 C 121.1875 642.984375 121.722656 643.269531 122.285156 643.503906 C 122.847656 643.734375 123.429688 643.910156 124.027344 644.03125 C 124.625 644.148438 125.226562 644.207031 125.835938 644.207031 L 534.292969 644.207031 C 534.902344 644.207031 535.503906 644.148438 536.105469 644.03125 C 536.703125 643.910156 537.28125 643.734375 537.84375 643.503906 C 538.40625 643.269531 538.941406 642.984375 539.449219 642.644531 C 539.957031 642.304688 540.425781 641.921875 540.855469 641.488281 C 541.289062 641.058594 541.671875 640.589844 542.011719 640.082031 C 542.351562 639.578125 542.636719 639.042969 542.867188 638.476562 C 543.101562 637.914062 543.277344 637.335938 543.398438 636.738281 C 543.515625 636.140625 543.574219 635.535156 543.574219 634.925781 L 543.574219 479.527344 L 611.714844 375 L 622.480469 358.570312 C 623.164062 357.523438 623.789062 356.449219 624.367188 355.339844 C 624.941406 354.234375 625.460938 353.101562 625.925781 351.945312 C 626.386719 350.789062 626.792969 349.609375 627.144531 348.414062 C 627.492188 347.214844 627.78125 346.003906 628.011719 344.777344 C 628.242188 343.554688 628.410156 342.320312 628.519531 341.078125 C 628.628906 339.835938 628.675781 338.589844 628.664062 337.34375 C 628.648438 336.097656 628.574219 334.851562 628.441406 333.613281 C 628.304688 332.371094 628.109375 331.144531 627.855469 329.921875 C 627.597656 328.703125 627.285156 327.496094 626.910156 326.308594 C 626.535156 325.117188 626.105469 323.949219 625.617188 322.800781 C 625.128906 321.652344 624.585938 320.53125 623.984375 319.4375 C 623.386719 318.34375 622.738281 317.28125 622.035156 316.25 C 621.332031 315.222656 620.582031 314.226562 619.78125 313.269531 C 618.980469 312.316406 618.136719 311.398438 617.246094 310.527344 C 616.355469 309.652344 615.425781 308.824219 614.457031 308.039062 C 613.484375 307.257812 612.476562 306.523438 611.433594 305.839844 L 609.394531 304.542969 C 608.347656 303.859375 607.273438 303.226562 606.167969 302.648438 C 605.0625 302.070312 603.929688 301.550781 602.773438 301.082031 C 601.613281 300.617188 600.4375 300.207031 599.238281 299.855469 C 598.042969 299.503906 596.832031 299.214844 595.605469 298.984375 C 594.378906 298.75 593.144531 298.582031 591.898438 298.472656 C 590.65625 298.359375 589.410156 298.3125 588.164062 298.324219 C 586.914062 298.335938 585.671875 298.410156 584.429688 298.546875 C 583.191406 298.679688 581.960938 298.875 580.738281 299.132812 C 579.515625 299.386719 578.3125 299.703125 577.121094 300.078125 C 575.929688 300.453125 574.761719 300.882812 573.613281 301.371094 C 572.464844 301.863281 571.34375 302.40625 570.25 303.007812 C 569.15625 303.605469 568.09375 304.257812 567.0625 304.960938 C 566.03125 305.667969 565.039062 306.421875 564.082031 307.222656 C 563.128906 308.023438 562.210938 308.871094 561.339844 309.761719 C 560.46875 310.65625 559.640625 311.585938 558.859375 312.5625 C 558.078125 313.535156 557.347656 314.542969 556.664062 315.589844 L 548.21875 328.585938 L 543.390625 336.011719 L 543.390625 182.097656 C 543.375 180.917969 543.140625 179.785156 542.691406 178.695312 C 542.242188 177.605469 541.609375 176.632812 540.789062 175.785156 L 473.675781 108.484375 C 472.851562 107.621094 471.890625 106.957031 470.792969 106.492188 C 469.699219 106.023438 468.554688 105.789062 467.363281 105.789062 L 125.558594 105.789062 C 124.960938 105.808594 124.371094 105.882812 123.789062 106.015625 C 123.203125 106.148438 122.640625 106.335938 122.09375 106.574219 C 121.546875 106.816406 121.027344 107.109375 120.535156 107.449219 C 120.042969 107.792969 119.589844 108.175781 119.175781 108.605469 C 118.757812 109.035156 118.386719 109.5 118.058594 110 C 117.734375 110.503906 117.457031 111.03125 117.234375 111.585938 C 117.007812 112.140625 116.839844 112.710938 116.726562 113.296875 C 116.609375 113.882812 116.554688 114.476562 116.554688 115.074219 Z M 497.160156 517.867188 L 461.421875 494.472656 L 558.335938 345.851562 L 594.074219 369.246094 Z M 456.222656 512.480469 L 481.9375 529.285156 L 453.25 545.066406 Z M 599.644531 319.300781 L 601.6875 320.601562 C 602.242188 320.960938 602.777344 321.34375 603.292969 321.757812 C 603.808594 322.167969 604.300781 322.605469 604.773438 323.0625 C 605.246094 323.523438 605.695312 324.007812 606.121094 324.511719 C 606.546875 325.015625 606.945312 325.539062 607.316406 326.082031 C 607.691406 326.628906 608.035156 327.1875 608.355469 327.765625 C 608.671875 328.34375 608.960938 328.9375 609.21875 329.542969 C 609.480469 330.148438 609.707031 330.765625 609.90625 331.398438 C 610.105469 332.027344 610.273438 332.664062 610.410156 333.308594 C 610.542969 333.953125 610.648438 334.605469 610.71875 335.261719 C 610.789062 335.917969 610.828125 336.574219 610.835938 337.234375 C 610.84375 337.894531 610.816406 338.550781 610.757812 339.207031 C 610.699219 339.867188 610.609375 340.519531 610.484375 341.167969 C 610.363281 341.816406 610.207031 342.453125 610.023438 343.085938 C 609.835938 343.71875 609.617188 344.34375 609.371094 344.953125 C 609.125 345.566406 608.847656 346.164062 608.539062 346.746094 C 608.234375 347.332031 607.898438 347.898438 607.535156 348.449219 L 603.824219 354.113281 L 568.082031 330.8125 L 571.796875 325.058594 C 572.160156 324.507812 572.546875 323.976562 572.960938 323.464844 C 573.375 322.953125 573.816406 322.464844 574.277344 321.996094 C 574.742188 321.527344 575.226562 321.082031 575.730469 320.664062 C 576.238281 320.242188 576.761719 319.847656 577.308594 319.476562 C 577.851562 319.109375 578.414062 318.765625 578.992188 318.453125 C 579.570312 318.136719 580.164062 317.851562 580.769531 317.597656 C 581.375 317.339844 581.992188 317.113281 582.621094 316.917969 C 583.25 316.722656 583.886719 316.558594 584.53125 316.425781 C 585.175781 316.292969 585.824219 316.191406 586.480469 316.121094 C 587.136719 316.050781 587.792969 316.015625 588.449219 316.007812 C 589.109375 316.003906 589.765625 316.03125 590.421875 316.089844 C 591.074219 316.148438 591.726562 316.242188 592.375 316.363281 C 593.019531 316.488281 593.660156 316.640625 594.292969 316.828125 C 594.921875 317.011719 595.542969 317.230469 596.152344 317.476562 C 596.765625 317.722656 597.359375 317.996094 597.945312 318.304688 C 598.527344 318.609375 599.09375 318.941406 599.644531 319.300781 Z M 516.097656 176.433594 L 473.210938 176.433594 L 473.210938 133.640625 Z M 134.5625 123.707031 L 455.199219 123.707031 L 455.199219 185.53125 C 455.199219 186.140625 455.261719 186.746094 455.378906 187.34375 C 455.5 187.941406 455.675781 188.523438 455.90625 189.085938 C 456.140625 189.648438 456.425781 190.183594 456.765625 190.691406 C 457.105469 191.195312 457.488281 191.664062 457.917969 192.097656 C 458.351562 192.527344 458.820312 192.914062 459.328125 193.25 C 459.832031 193.589844 460.367188 193.875 460.929688 194.109375 C 461.496094 194.34375 462.074219 194.519531 462.671875 194.636719 C 463.269531 194.757812 463.875 194.816406 464.484375 194.816406 L 525.660156 194.816406 L 525.660156 363.394531 L 441.367188 491.875 C 441.097656 492.375 440.878906 492.902344 440.71875 493.453125 C 440.492188 494.027344 440.304688 494.613281 440.164062 495.214844 L 434.222656 560.660156 C 434.160156 561.472656 434.203125 562.277344 434.351562 563.074219 C 434.5 563.871094 434.75 564.640625 435.101562 565.371094 C 435.453125 566.105469 435.890625 566.78125 436.417969 567.398438 C 436.945312 568.015625 437.542969 568.554688 438.210938 569.015625 C 438.917969 569.421875 439.664062 569.734375 440.453125 569.945312 C 441.238281 570.152344 442.039062 570.257812 442.855469 570.257812 C 443.667969 570.257812 444.46875 570.152344 445.257812 569.945312 C 446.042969 569.734375 446.789062 569.421875 447.496094 569.015625 L 503.84375 538.011719 C 504.769531 537.539062 505.542969 536.890625 506.164062 536.0625 L 506.628906 535.503906 L 525.195312 507.65625 L 525.195312 626.292969 L 134.5625 626.292969 Z M 134.5625 123.707031 " fill-opacity="1" fill-rule="nonzero"/></g><path fill="#8a2be2" d="M 192.488281 239.28125 L 470.980469 240.210938 C 471.324219 240.296875 471.667969 240.359375 472.015625 240.40625 C 472.367188 240.453125 472.714844 240.480469 473.066406 240.488281 C 473.417969 240.492188 473.769531 240.480469 474.121094 240.445312 C 474.46875 240.414062 474.816406 240.359375 475.160156 240.289062 C 475.503906 240.214844 475.84375 240.121094 476.175781 240.011719 C 476.511719 239.898438 476.835938 239.769531 477.15625 239.621094 C 477.472656 239.472656 477.785156 239.308594 478.082031 239.125 C 478.382812 238.941406 478.671875 238.738281 478.949219 238.523438 C 479.226562 238.308594 479.492188 238.074219 479.742188 237.828125 C 479.992188 237.582031 480.230469 237.324219 480.449219 237.050781 C 480.671875 236.777344 480.878906 236.492188 481.066406 236.195312 C 481.253906 235.898438 481.425781 235.59375 481.582031 235.277344 C 481.734375 234.960938 481.871094 234.636719 481.988281 234.304688 C 482.105469 233.972656 482.203125 233.636719 482.285156 233.292969 C 482.363281 232.953125 482.421875 232.605469 482.460938 232.257812 C 482.503906 231.90625 482.523438 231.558594 482.523438 231.207031 C 482.523438 230.855469 482.503906 230.503906 482.460938 230.152344 C 482.421875 229.804688 482.363281 229.457031 482.285156 229.117188 C 482.203125 228.773438 482.105469 228.4375 481.988281 228.105469 C 481.871094 227.773438 481.734375 227.449219 481.582031 227.132812 C 481.425781 226.816406 481.253906 226.511719 481.066406 226.214844 C 480.878906 225.917969 480.671875 225.632812 480.449219 225.359375 C 480.230469 225.085938 479.992188 224.828125 479.742188 224.582031 C 479.492188 224.335938 479.226562 224.101562 478.949219 223.886719 C 478.671875 223.671875 478.382812 223.46875 478.082031 223.285156 C 477.785156 223.101562 477.472656 222.9375 477.15625 222.789062 C 476.835938 222.640625 476.511719 222.511719 476.175781 222.398438 C 475.84375 222.289062 475.503906 222.195312 475.160156 222.125 C 474.816406 222.050781 474.46875 221.996094 474.121094 221.964844 C 473.769531 221.929688 473.417969 221.917969 473.066406 221.921875 C 472.714844 221.929688 472.367188 221.957031 472.015625 222.003906 C 471.667969 222.050781 471.324219 222.113281 470.980469 222.199219 L 192.488281 221.363281 C 192.148438 221.273438 191.800781 221.199219 191.449219 221.144531 C 191.097656 221.09375 190.742188 221.058594 190.386719 221.046875 C 190.03125 221.035156 189.679688 221.042969 189.324219 221.070312 C 188.96875 221.097656 188.617188 221.144531 188.269531 221.214844 C 187.921875 221.28125 187.578125 221.371094 187.238281 221.476562 C 186.898438 221.585938 186.566406 221.714844 186.242188 221.859375 C 185.917969 222.003906 185.605469 222.167969 185.300781 222.351562 C 184.992188 222.535156 184.699219 222.734375 184.417969 222.949219 C 184.136719 223.164062 183.867188 223.394531 183.609375 223.644531 C 183.355469 223.890625 183.113281 224.148438 182.886719 224.425781 C 182.660156 224.699219 182.453125 224.984375 182.257812 225.285156 C 182.066406 225.582031 181.890625 225.890625 181.734375 226.210938 C 181.574219 226.527344 181.4375 226.855469 181.316406 227.191406 C 181.199219 227.523438 181.097656 227.863281 181.015625 228.210938 C 180.933594 228.558594 180.875 228.90625 180.832031 229.261719 C 180.792969 229.613281 180.773438 229.96875 180.773438 230.324219 C 180.773438 230.679688 180.792969 231.03125 180.832031 231.386719 C 180.875 231.738281 180.933594 232.089844 181.015625 232.433594 C 181.097656 232.78125 181.199219 233.121094 181.316406 233.457031 C 181.4375 233.792969 181.574219 234.117188 181.734375 234.4375 C 181.890625 234.753906 182.066406 235.0625 182.257812 235.363281 C 182.453125 235.660156 182.660156 235.949219 182.886719 236.222656 C 183.113281 236.496094 183.355469 236.757812 183.609375 237.003906 C 183.867188 237.25 184.136719 237.480469 184.417969 237.699219 C 184.699219 237.914062 184.992188 238.113281 185.300781 238.296875 C 185.605469 238.476562 185.917969 238.640625 186.242188 238.789062 C 186.566406 238.933594 186.898438 239.058594 187.238281 239.167969 C 187.578125 239.277344 187.921875 239.363281 188.269531 239.433594 C 188.617188 239.5 188.96875 239.550781 189.324219 239.578125 C 189.679688 239.605469 190.03125 239.613281 190.386719 239.601562 C 190.742188 239.585938 191.097656 239.554688 191.449219 239.5 C 191.800781 239.449219 192.148438 239.375 192.488281 239.28125 Z M 192.488281 239.28125 " fill-opacity="1" fill-rule="nonzero"/><path fill="#8a2be2" d="M 192.488281 324.40625 L 470.980469 325.335938 C 471.589844 325.335938 472.195312 325.277344 472.792969 325.15625 C 473.390625 325.039062 473.972656 324.863281 474.535156 324.628906 C 475.097656 324.394531 475.632812 324.109375 476.140625 323.769531 C 476.644531 323.433594 477.113281 323.046875 477.546875 322.617188 C 477.976562 322.183594 478.363281 321.714844 478.699219 321.210938 C 479.039062 320.703125 479.324219 320.167969 479.558594 319.605469 C 479.792969 319.042969 479.96875 318.460938 480.085938 317.863281 C 480.207031 317.265625 480.265625 316.660156 480.265625 316.050781 C 480.265625 315.441406 480.207031 314.839844 480.085938 314.242188 C 479.96875 313.644531 479.792969 313.0625 479.558594 312.5 C 479.324219 311.9375 479.039062 311.402344 478.699219 310.894531 C 478.363281 310.386719 477.976562 309.917969 477.546875 309.488281 C 477.113281 309.058594 476.644531 308.671875 476.140625 308.332031 C 475.632812 307.996094 475.097656 307.710938 474.535156 307.476562 C 473.972656 307.242188 473.390625 307.066406 472.792969 306.949219 C 472.195312 306.828125 471.589844 306.769531 470.980469 306.769531 L 192.488281 305.839844 C 192.148438 305.746094 191.800781 305.675781 191.449219 305.621094 C 191.097656 305.566406 190.742188 305.535156 190.386719 305.523438 C 190.03125 305.507812 189.679688 305.515625 189.324219 305.546875 C 188.96875 305.574219 188.617188 305.621094 188.269531 305.691406 C 187.921875 305.757812 187.578125 305.847656 187.238281 305.953125 C 186.898438 306.0625 186.566406 306.1875 186.242188 306.335938 C 185.917969 306.480469 185.605469 306.644531 185.300781 306.828125 C 184.992188 307.007812 184.699219 307.207031 184.417969 307.425781 C 184.136719 307.640625 183.867188 307.871094 183.609375 308.117188 C 183.355469 308.367188 183.113281 308.625 182.886719 308.902344 C 182.660156 309.175781 182.453125 309.460938 182.257812 309.761719 C 182.066406 310.058594 181.890625 310.367188 181.734375 310.6875 C 181.574219 311.003906 181.4375 311.332031 181.316406 311.667969 C 181.199219 312 181.097656 312.339844 181.015625 312.6875 C 180.933594 313.035156 180.875 313.382812 180.832031 313.734375 C 180.792969 314.089844 180.773438 314.445312 180.773438 314.800781 C 180.773438 315.15625 180.792969 315.507812 180.832031 315.863281 C 180.875 316.214844 180.933594 316.566406 181.015625 316.910156 C 181.097656 317.257812 181.199219 317.597656 181.316406 317.933594 C 181.4375 318.265625 181.574219 318.59375 181.734375 318.914062 C 181.890625 319.230469 182.066406 319.539062 182.257812 319.839844 C 182.453125 320.136719 182.660156 320.421875 182.886719 320.699219 C 183.113281 320.972656 183.355469 321.234375 183.609375 321.480469 C 183.867188 321.726562 184.136719 321.957031 184.417969 322.175781 C 184.699219 322.390625 184.992188 322.589844 185.300781 322.769531 C 185.605469 322.953125 185.917969 323.117188 186.242188 323.261719 C 186.566406 323.410156 186.898438 323.535156 187.238281 323.644531 C 187.578125 323.753906 187.921875 323.839844 188.269531 323.910156 C 188.617188 323.976562 188.96875 324.023438 189.324219 324.054688 C 189.679688 324.082031 190.03125 324.089844 190.386719 324.078125 C 190.742188 324.0625 191.097656 324.03125 191.449219 323.976562 C 191.800781 323.925781 192.148438 323.851562 192.488281 323.757812 Z M 192.488281 324.40625 " fill-opacity="1" fill-rule="nonzero"/><path fill="#8a2be2" d="M 413.613281 392.546875 L 192.488281 391.617188 C 192.148438 391.53125 191.804688 391.464844 191.457031 391.417969 C 191.105469 391.371094 190.757812 391.347656 190.40625 391.339844 C 190.054688 391.332031 189.703125 391.347656 189.351562 391.378906 C 189.003906 391.414062 188.65625 391.464844 188.3125 391.539062 C 187.96875 391.613281 187.628906 391.703125 187.296875 391.816406 C 186.960938 391.925781 186.636719 392.054688 186.316406 392.203125 C 185.996094 392.351562 185.6875 392.519531 185.386719 392.703125 C 185.089844 392.886719 184.800781 393.085938 184.523438 393.300781 C 184.246094 393.519531 183.980469 393.75 183.730469 393.996094 C 183.480469 394.242188 183.242188 394.503906 183.023438 394.777344 C 182.800781 395.050781 182.59375 395.332031 182.40625 395.628906 C 182.21875 395.925781 182.046875 396.234375 181.890625 396.550781 C 181.738281 396.863281 181.601562 397.1875 181.484375 397.519531 C 181.367188 397.851562 181.269531 398.1875 181.1875 398.53125 C 181.109375 398.875 181.050781 399.21875 181.011719 399.570312 C 180.96875 399.917969 180.949219 400.269531 180.949219 400.621094 C 180.949219 400.972656 180.96875 401.324219 181.011719 401.671875 C 181.050781 402.023438 181.109375 402.367188 181.1875 402.710938 C 181.269531 403.054688 181.367188 403.390625 181.484375 403.722656 C 181.601562 404.054688 181.738281 404.378906 181.890625 404.691406 C 182.046875 405.007812 182.21875 405.316406 182.40625 405.613281 C 182.59375 405.910156 182.800781 406.191406 183.023438 406.464844 C 183.242188 406.738281 183.480469 407 183.730469 407.246094 C 183.980469 407.492188 184.246094 407.722656 184.523438 407.941406 C 184.800781 408.15625 185.089844 408.355469 185.386719 408.539062 C 185.6875 408.722656 185.996094 408.890625 186.316406 409.039062 C 186.636719 409.1875 186.960938 409.316406 187.296875 409.425781 C 187.628906 409.539062 187.96875 409.628906 188.3125 409.703125 C 188.65625 409.777344 189.003906 409.828125 189.351562 409.863281 C 189.703125 409.894531 190.054688 409.910156 190.40625 409.902344 C 190.757812 409.894531 191.105469 409.871094 191.457031 409.824219 C 191.804688 409.777344 192.148438 409.710938 192.488281 409.625 L 413.613281 410.460938 C 413.957031 410.554688 414.304688 410.628906 414.65625 410.679688 C 415.007812 410.734375 415.359375 410.765625 415.714844 410.78125 C 416.070312 410.792969 416.425781 410.785156 416.777344 410.757812 C 417.132812 410.730469 417.484375 410.679688 417.835938 410.613281 C 418.183594 410.542969 418.527344 410.457031 418.867188 410.347656 C 419.203125 410.238281 419.535156 410.113281 419.859375 409.96875 C 420.183594 409.820312 420.5 409.65625 420.804688 409.476562 C 421.109375 409.292969 421.402344 409.09375 421.683594 408.878906 C 421.96875 408.660156 422.238281 408.429688 422.492188 408.183594 C 422.75 407.9375 422.988281 407.675781 423.214844 407.402344 C 423.441406 407.128906 423.652344 406.839844 423.84375 406.542969 C 424.035156 406.242188 424.210938 405.933594 424.371094 405.617188 C 424.527344 405.296875 424.664062 404.972656 424.785156 404.636719 C 424.90625 404.300781 425.007812 403.960938 425.085938 403.613281 C 425.167969 403.269531 425.226562 402.917969 425.269531 402.566406 C 425.308594 402.214844 425.332031 401.859375 425.332031 401.503906 C 425.332031 401.148438 425.308594 400.792969 425.269531 400.441406 C 425.226562 400.085938 425.167969 399.738281 425.085938 399.390625 C 425.007812 399.046875 424.90625 398.703125 424.785156 398.371094 C 424.664062 398.035156 424.527344 397.707031 424.371094 397.390625 C 424.210938 397.070312 424.035156 396.761719 423.84375 396.464844 C 423.652344 396.164062 423.441406 395.878906 423.214844 395.605469 C 422.988281 395.328125 422.75 395.070312 422.492188 394.824219 C 422.238281 394.574219 421.96875 394.34375 421.683594 394.128906 C 421.402344 393.914062 421.109375 393.714844 420.804688 393.53125 C 420.5 393.347656 420.183594 393.183594 419.859375 393.039062 C 419.535156 392.894531 419.203125 392.765625 418.867188 392.65625 C 418.527344 392.550781 418.183594 392.460938 417.835938 392.394531 C 417.484375 392.324219 417.132812 392.277344 416.777344 392.25 C 416.425781 392.222656 416.070312 392.214844 415.714844 392.226562 C 415.359375 392.238281 415.007812 392.273438 414.65625 392.324219 C 414.304688 392.378906 413.957031 392.453125 413.613281 392.546875 Z M 413.613281 392.546875 " fill-opacity="1" fill-rule="nonzero"/><path fill="#8a2be2" d="M 384 523.527344 L 196.296875 522.320312 C 195.808594 522.453125 195.332031 522.625 194.875 522.835938 C 194.414062 523.046875 193.972656 523.292969 193.550781 523.574219 C 193.132812 523.859375 192.738281 524.171875 192.371094 524.519531 C 192 524.867188 191.664062 525.242188 191.355469 525.640625 C 191.046875 526.042969 190.777344 526.46875 190.539062 526.914062 C 190.300781 527.363281 190.101562 527.824219 189.9375 528.304688 C 189.773438 528.785156 189.652344 529.273438 189.570312 529.773438 C 189.488281 530.273438 189.449219 530.773438 189.449219 531.28125 C 189.449219 531.785156 189.488281 532.289062 189.570312 532.789062 C 189.652344 533.289062 189.773438 533.777344 189.9375 534.257812 C 190.101562 534.734375 190.300781 535.199219 190.539062 535.644531 C 190.777344 536.09375 191.046875 536.515625 191.355469 536.917969 C 191.664062 537.320312 192 537.695312 192.371094 538.042969 C 192.738281 538.386719 193.132812 538.703125 193.550781 538.984375 C 193.972656 539.265625 194.414062 539.515625 194.875 539.722656 C 195.332031 539.933594 195.808594 540.105469 196.296875 540.238281 L 384.183594 541.167969 C 384.527344 541.253906 384.871094 541.316406 385.21875 541.363281 C 385.570312 541.410156 385.917969 541.4375 386.269531 541.445312 C 386.621094 541.449219 386.972656 541.4375 387.324219 541.402344 C 387.671875 541.371094 388.019531 541.316406 388.363281 541.246094 C 388.707031 541.171875 389.046875 541.078125 389.378906 540.96875 C 389.714844 540.855469 390.039062 540.726562 390.359375 540.578125 C 390.679688 540.429688 390.988281 540.265625 391.289062 540.082031 C 391.585938 539.898438 391.875 539.695312 392.152344 539.480469 C 392.429688 539.265625 392.695312 539.035156 392.945312 538.785156 C 393.195312 538.539062 393.433594 538.28125 393.652344 538.007812 C 393.875 537.734375 394.082031 537.449219 394.269531 537.152344 C 394.457031 536.855469 394.628906 536.550781 394.785156 536.234375 C 394.9375 535.917969 395.074219 535.59375 395.191406 535.261719 C 395.308594 534.929688 395.40625 534.59375 395.488281 534.25 C 395.566406 533.910156 395.625 533.5625 395.664062 533.214844 C 395.707031 532.863281 395.726562 532.515625 395.726562 532.164062 C 395.726562 531.8125 395.707031 531.460938 395.664062 531.109375 C 395.625 530.761719 395.566406 530.414062 395.488281 530.074219 C 395.40625 529.730469 395.308594 529.394531 395.191406 529.0625 C 395.074219 528.730469 394.9375 528.40625 394.785156 528.089844 C 394.628906 527.773438 394.457031 527.46875 394.269531 527.171875 C 394.082031 526.875 393.875 526.589844 393.652344 526.316406 C 393.433594 526.042969 393.195312 525.785156 392.945312 525.539062 C 392.695312 525.292969 392.429688 525.058594 392.152344 524.84375 C 391.875 524.628906 391.585938 524.425781 391.285156 524.242188 C 390.988281 524.058594 390.679688 523.894531 390.359375 523.746094 C 390.039062 523.597656 389.714844 523.46875 389.378906 523.355469 C 389.046875 523.246094 388.707031 523.152344 388.363281 523.082031 C 388.019531 523.007812 387.671875 522.953125 387.324219 522.921875 C 386.972656 522.886719 386.621094 522.875 386.269531 522.878906 C 385.917969 522.886719 385.570312 522.914062 385.21875 522.960938 C 384.871094 523.007812 384.527344 523.070312 384.183594 523.15625 Z M 384 523.527344 " fill-opacity="1" fill-rule="nonzero"/></svg>