<svg xmlns="http://www.w3.org/2000/svg" xmlns:xlink="http://www.w3.org/1999/xlink" width="500" zoomAndPan="magnify" viewBox="0 0 375 374.999991" height="500" preserveAspectRatio="xMidYMid meet" version="1.0"><defs><clipPath id="4ee4e83355"><path d="M 100 8.925781 L 275 8.925781 L 275 195 L 100 195 Z M 100 8.925781 " clip-rule="nonzero"/></clipPath><clipPath id="52753a1052"><path d="M 25 195 L 350 195 L 350 365.925781 L 25 365.925781 Z M 25 195 " clip-rule="nonzero"/></clipPath></defs><g clip-path="url(#4ee4e83355)"><path fill="#2e006c" d="M 187.496094 194.179688 C 235.304688 194.179688 274.195312 143.4375 274.195312 95.632812 C 274.195312 47.828125 235.304688 8.925781 187.496094 8.925781 C 139.6875 8.925781 100.792969 47.828125 100.792969 95.632812 C 100.800781 143.433594 139.691406 194.179688 187.496094 194.179688 Z M 187.496094 194.179688 " fill-opacity="1" fill-rule="nonzero"/></g><g clip-path="url(#52753a1052)"><path fill="#2e006c" d="M 252.582031 195.066406 C 235.765625 207.882812 214.785156 215.503906 192.058594 215.503906 L 182.933594 215.503906 C 160.203125 215.503906 139.21875 207.878906 122.40625 195.066406 C 67.492188 203.945312 25.558594 251.539062 25.558594 308.953125 C 25.558594 340.492188 98.058594 366.066406 187.496094 366.066406 C 276.925781 366.066406 349.429688 340.492188 349.429688 308.953125 C 349.429688 251.539062 307.496094 203.945312 252.582031 195.066406 Z M 252.582031 195.066406 " fill-opacity="1" fill-rule="nonzero"/></g></svg>