<svg xmlns="http://www.w3.org/2000/svg" xmlns:xlink="http://www.w3.org/1999/xlink" width="500" zoomAndPan="magnify" viewBox="0 0 375 374.999991" height="500" preserveAspectRatio="xMidYMid meet" version="1.0"><defs><clipPath id="0b8500876d"><path d="M 100 8.925781 L 275 8.925781 L 275 195 L 100 195 Z M 100 8.925781 " clip-rule="nonzero"/></clipPath><clipPath id="f7e34e6803"><path d="M 25 194 L 350 194 L 350 365.925781 L 25 365.925781 Z M 25 194 " clip-rule="nonzero"/></clipPath></defs><g clip-path="url(#0b8500876d)"><path fill="#000000" d="M 187.523438 194.105469 C 235.34375 194.105469 274.238281 143.382812 274.238281 95.597656 C 274.238281 47.8125 235.34375 8.925781 187.523438 8.925781 C 139.707031 8.925781 100.808594 47.8125 100.808594 95.597656 C 100.816406 143.378906 139.710938 194.105469 187.523438 194.105469 Z M 187.523438 194.105469 " fill-opacity="1" fill-rule="nonzero"/></g><g clip-path="url(#f7e34e6803)"><path fill="#000000" d="M 252.625 194.996094 C 235.804688 207.804688 214.820312 215.421875 192.089844 215.421875 L 182.960938 215.421875 C 160.226562 215.421875 139.238281 207.800781 122.421875 194.996094 C 67.5 203.867188 25.558594 251.445312 25.558594 308.835938 C 25.558594 340.363281 98.074219 365.925781 187.523438 365.925781 C 276.972656 365.925781 349.488281 340.363281 349.488281 308.835938 C 349.488281 251.445312 307.546875 203.867188 252.625 194.996094 Z M 252.625 194.996094 " fill-opacity="1" fill-rule="nonzero"/></g></svg>